<?xml version="1.0" encoding="utf-8"?>
<svg viewBox="0 0 360 360" fill="none" shape-rendering="auto" xmlns="http://www.w3.org/2000/svg" xmlns:bx="https://boxy-svg.com">
  <defs>
    <linearGradient gradientUnits="userSpaceOnUse" x1="131" y1="10.91" x2="131" y2="374.605" id="gradient-1" gradientTransform="matrix(0.999796, -0.020226, 0.011637, 0.575246, -5.178976, 136.793741)">
      <stop offset="0" style="stop-color: rgb(46.667% 19.216% 11.373%)"/>
      <stop offset="1" style="stop-color: rgb(89, 0, 94);"/>
    </linearGradient>
  </defs>
  <mask id="viewboxMask">
    <rect width="360" height="360" rx="0" ry="0" x="0" y="0" fill="#fff"/>
  </mask>
  <g mask="url(#viewboxMask)">
    <g transform="translate(80 23)">
      <path d="M154 319.5c-14.4-20-25.67-58.67-27-78L58.5 212 30 319.5h124Z" stroke="#000" stroke-width="4" fill="#f9c9b6"/>
      <path d="M130.37 263.69c-2.1.2-4.22.31-6.37.31-30.78 0-56.05-21.57-58.76-49.1L127 241.5c.38 5.48 1.55 13.32 3.37 22.19Z" style="mix-blend-mode:multiply" fill="#000"/>
      <path d="M181.94 151.37v.01l.1.4.14.65A75.72 75.72 0 0 1 34.93 187.7l-.2-.74L18 117.13l-.06-.29A75.72 75.72 0 0 1 165.2 81.55l.05.21.02.08.05.2.05.2v.01l16.4 68.44.08.34.08.34Z" stroke="#000" stroke-width="4" fill="#f9c9b6"/>
      <g transform="translate(34 102.3)"/>
    </g>
    <g transform="translate(170 183)">
      <path d="M-.5 17.5c2.5 17 31 25 57 5.5" stroke="#000000" stroke-width="4"/>
    </g>
    <g transform="translate(110 102)">
      <path d="M99 10.21c5.67-2.66 19-5.1 27 6.5M23.58 35.52c2.07-5.9 9.68-17.12 23.56-14.7M26.07 29.46l-6.14-5.43M122.96 11.16l6.15-5.43M32.52 23.81l-4.04-7.13M115.51 7.51l4.05-7.13M40.6 20.2l-2.2-7.9M106.44 6.9l2.2-7.9" stroke="#000000" stroke-width="4" stroke-linecap="round"/>
    </g>
    <g transform="translate(49 11)">
      <path d="M -19.93 366.324 C -29.068 383.614 -55.377 340.421 -30.688 321.973 C -31.248 320.423 -16.37 307.38 -17.25 304.48 C -19.61 296.631 -21.375 288.615 -22.53 280.5 C -25.34 260.73 -25.33 234.7 -14.13 209.38 C -12.33 205.29 -10.06 201.08 -7.61 196.53 C 1.86 178.93 14.16 156.07 14.16 114.08 C 14.16 83.49 29 57.73 50.86 39.57 C 72.74 21.39 101.56 10.91 129.24 10.91 C 144.37 10.91 156.54 12.64 166.31 18.55 C 176.03 24.42 183.68 34.6 189.36 52.13 C 189.934 53.963 191.889 54.981 193.72 54.4 C 205.03 50.73 222.19 54.44 236.67 63.9 C 251.09 73.3 262.29 88.05 262.29 105.81 C 262.29 121.24 259.65 131.66 257.07 141.81 C 253.95 154.11 250.94 165.97 253.07 185.31 C 253.77 191.76 255.22 196.34 257.23 200.13 C 259.21 203.86 261.71 206.75 264.35 209.79 L 264.4 209.86 C 270.68 217.11 273.53 223.08 274.46 228.33 C 275.38 233.56 274.41 238.31 272.62 243.23 C 271.72 245.71 270.62 248.2 269.47 250.82 L 269.37 251.04 C 268.25 253.57 267.07 256.23 266.02 259.02 C 263.84 264.79 262.13 271.22 262.3 278.85 C 262.45 285.33 263.6 289.76 265.31 293.12 C 267.01 296.44 269.2 298.56 271.11 300.42 L 271.16 300.47 C 272.9 302.15 274.36 303.57 275.43 305.57 C 275.894 306.431 290.301 313.915 296.83 325.186 C 303.802 337.222 302.91 353.117 302.972 354.94 C 277.947 383.263 267.353 372.656 236.608 372.675 C 234.179 372.661 184.963 337.023 182.54 336.85 C 176.39 327.45 170.79 311.97 166.44 296.05 C 162.23 280.59 159.26 264.97 158.14 254.65 C 195.22 243.93 218.46 205.67 212.87 166.19 L 212.86 166.07 C 212.84 165.912 212.813 165.756 212.78 165.6 C 212.648 164.848 212.505 164.098 212.35 163.35 C 210.453 153.887 208.276 144.483 205.82 135.15 C 203.707 126.974 201.221 118.899 198.37 110.95 C 195.61 103.45 192.54 96.8 189.27 92.71 L 188.97 92.34 L 188.53 92.14 C 186.6 91.31 184.59 90.37 182.5 89.4 C 172.57 84.78 160.66 79.23 145.24 78.62 C 126.46 77.88 102.68 84.4 70.54 107.71 L 68.52 109.17 L 70.47 110.74 C 86.39 123.57 89.84 140.6 89.1 155.04 C 88.571 163.615 86.806 172.069 83.86 180.14 C 82.7 178.45 81.96 176.32 81.41 173.81 C 81.031 172.004 80.711 170.187 80.45 168.36 L 80.4 168.06 C 80.1 166.06 79.77 163.98 79.3 161.97 C 78.34 157.96 76.73 153.95 73.16 151.11 C 69.58 148.27 64.36 146.86 56.76 147.28 L 54.54 147.41 L 55 149.59 L 66.36 202.9 L 66.38 202.98 L 66.41 203.07 C 70.279 215.463 77.113 226.726 86.32 235.88 C 86.854 236.761 87.368 237.655 87.86 238.56 C 88.87 240.38 90.23 242.94 91.62 245.89 C 94.44 251.83 97.28 259.13 97.82 265.09 C 98.39 271.14 96.86 278.95 95.12 285.4 C 94.286 288.481 93.339 291.529 92.28 294.54 C 87.25 292.14 82.75 292.31 78.9 294.55 C 74.74 296.98 71.69 301.61 69.42 306.77 C 65.27 316.19 63.28 328.41 62.36 335.99 C 43.057 331.637 31.968 357.054 13.187 350.821 C 8.08 349.117 2.09 350.368 -2.934 348.433 C -4.408 347.861 -18.471 366.932 -19.93 366.324 Z" stroke-width="3.82" style="fill: url('#gradient-1'); stroke: rgb(0, 0, 0);"/>
    </g>
    <g transform="translate(142 119)">
      <path d="M5.29 34.07c.11.82 1.14 1 1.72.41 2.46-2.52 6.25-4.36 10.65-4.89 2.6-.3 5.1-.12 7.32.48.75.2 1.5-.44 1.23-1.17A10.84 10.84 0 0 0 5.3 34.07ZM69.38 24.07c.12.82 1.15 1 1.73.41 2.44-2.48 6.19-4.3 10.54-4.83 2.56-.3 5.03-.12 7.23.47.75.2 1.5-.44 1.23-1.17a10.74 10.74 0 0 0-20.73 5.12Z" fill="#000000"/>
      <g transform="translate(-40 -8)"/>
    </g>
    <g transform="rotate(-8 1149.44 -1186.92)">
      <path d="M16.5 7c-.33 3.83 0 12.2 4 15 5 3.5-.5 12-10.5 10" stroke="#000" stroke-width="4"/>
    </g>
    <g transform="translate(84 154)">
      <path d="M30.5 6.18A23.78 23.78 0 0 0 23.08 5c-10.5 0-19 6.5-18 18.5 1.04 12.5 8.5 17 19 17A19.6 19.6 0 0 0 31 39.23" stroke="#000" stroke-width="8"/>
      <path d="M31.5 39.04a19.38 19.38 0 0 1-7.42 1.46c-10.5 0-17.96-4.5-19-17-1-12 7.5-18.5 18-18.5 3.14 0 6.19.6 8.92 1.73l-.5 32.3Z" fill="#f9c9b6"/>
      <path d="M27.5 13.5c-4-1.83-12.8-2.8-16 8" stroke="#000" stroke-width="4"/>
      <path d="M17 14c2.17 1.83 6.3 7.5 5.5 15.5" stroke="#000" stroke-width="4"/>
      <g transform="translate(3 35)">
        <rect x="15.69" y="0.864" width="15.382" height="4.836" style="transform-box: fill-box; transform-origin: 50% 50%; fill: rgb(255, 255, 255); stroke: rgb(255, 255, 255);" transform="matrix(0.953339, -0.301902, 0.301902, 0.953339, 2.014829, -2.181851)"/>
        <rect x="15.69" y="0.864" width="15.382" height="4.836" style="transform-origin: 23.381px 3.282px; fill: rgb(211, 211, 211); stroke: rgb(211, 211, 211);" transform="matrix(0.953339, -0.301902, 0.301902, 0.953339, 3.658632, 3.331371)"/>
        <rect x="13.368" y="0.212" width="13.106" height="1.187" style="transform-origin: 19.921px 0.806px; stroke: rgb(110, 0, 112); fill: rgb(110, 0, 112);" transform="matrix(0.953339, -0.301902, 0.301902, 0.953339, 7.233047, 2.813478)"/>
        <rect x="13.85" y="-1.296" width="15.555" height="10.503" style="stroke: rgb(0, 0, 0); transform-box: fill-box; transform-origin: 50% 50%;" transform="matrix(0.953621, -0.30101, 0.30101, 0.953621, 4.614511, -0.121707)"/>
        <path d="M 25.043 1.118 L 29.768 7.054 L 20.319 7.054 L 25.043 1.118 Z" style="transform-box: fill-box; transform-origin: 50% 50%; stroke: rgb(0, 0, 0); fill: rgb(0, 0, 0);" transform="matrix(0.295894, 0.955221, -0.955221, 0.295894, -3.081051, 1.136169)" bx:shape="triangle 20.319 1.118 9.449 5.936 0.5 0 1@2499e99b"/>
      </g>
    </g>
    <g transform="translate(53 272)">
      <path d="M260.37 90.86H-12.54l.1-.2C-7.89 81.38.5 64.31 11.4 49.03c6.2-8.67 13.13-16.65 20.54-22.27 7.41-5.61 15.12-8.73 22.95-8.04 15.06 1.31 28.46 9.56 41.93 17.83l3.83 2.35c14.48 8.82 29.35 17.02 45.72 13.43 5.53-1.2 9.26-3.8 11.6-7.16 2.32-3.3 3.15-7.15 3.3-10.66.14-3.52-.4-6.85-.96-9.26a39.89 39.89 0 0 0-.75-2.78c3.63-3.64 7.47-5.77 11.43-6.73 4.3-1.03 8.89-.73 13.72.7 9.73 2.87 20.14 10.25 30.3 19.73 18.61 17.37 35.69 41.14 45.36 54.68Z" style="stroke: rgb(0, 0, 0); fill: rgb(119, 29, 96);" stroke-width="4.27"/>
    </g>
    <g transform="matrix(-1, 0, 0, -1, 237.222767, 171.430422)" style="">
      <path d="M 5.29 34.07 C 5.4 34.89 6.43 35.07 7.01 34.48 C 9.47 31.96 13.458 33.782 17.858 33.252 C 20.458 32.952 22.76 29.47 24.98 30.07 C 25.73 30.27 26.48 29.63 26.21 28.9 C 23.3 21.079 13.015 19.342 7.697 25.772 C 5.783 28.087 4.915 31.091 5.3 34.07 L 5.29 34.07 Z M 69.38 24.07 C 69.5 24.89 70.53 25.07 71.11 24.48 C 73.55 22 77.588 24.068 81.938 23.538 C 84.498 23.238 86.68 19.53 88.88 20.12 C 89.63 20.32 90.38 19.68 90.11 18.95 C 87.268 11.186 77.087 9.411 71.784 15.755 C 69.852 18.066 68.98 21.084 69.38 24.07 Z" fill="#000000"/>
      <g transform="translate(-40 -8)"/>
    </g>
    <g transform="matrix(1, 0, 0, 1, 68.736512, -115.013368)"/>
  </g>
</svg>