<?xml version="1.0" encoding="utf-8"?>
<svg viewBox="0 0 360 360" fill="none" shape-rendering="auto" xmlns="http://www.w3.org/2000/svg">
  <mask id="viewboxMask">
    <rect width="360" height="360" rx="0" ry="0" x="0" y="0" fill="#fff"/>
  </mask>
  <g mask="url(#viewboxMask)" transform="matrix(0.9999999999999999, 0, 0, 0.9999999999999999, -3.197442310920451e-14, 1.0658141036401503e-14)">
    <g transform="translate(80 23)">
      <path d="M154 319.5c-14.4-20-25.67-58.67-27-78L58.5 212 30 319.5h124Z" fill="#ac6651" stroke="#000" stroke-width="4"/>
      <path d="M130.37 263.69c-2.1.2-4.22.31-6.37.31-30.78 0-56.05-21.57-58.76-49.1L127 241.5c.38 5.48 1.55 13.32 3.37 22.19Z" fill="#000" style="mix-blend-mode:multiply"/>
      <path d="M181.94 151.37v.01l.1.4.14.65A75.72 75.72 0 0 1 34.93 187.7l-.2-.74L18 117.13l-.06-.29A75.72 75.72 0 0 1 165.2 81.55l.05.21.02.08.05.2.05.2v.01l16.4 68.44.08.34.08.34Z" fill="#ac6651" stroke="#000" stroke-width="4"/>
      <g transform="translate(34 102.3)"/>
    </g>
    <g transform="translate(170 183)">
      <path d="M64.73 25.7a36 36 0 0 0 1.18-12.54 4.98 4.98 0 0 0-6.8-4.2c-4.26 1.67-18.03 6.88-27.62 8.2-10.52 1.44-26.66-.32-31.44-.91a4.98 4.98 0 0 0-5.53 5.74 36 36 0 0 0 70.21 3.7Z" fill="#000000"/>
      <path d="M51.83 39.55a32 32 0 0 1-37.2 4.62 21.5 21.5 0 0 1 37.2-4.62Z" fill="#FC909F"/>
    </g>
    <g transform="translate(110 102)">
      <path d="M99 10.21c5.67-2.66 19-5.1 27 6.5M23.58 35.52c2.07-5.9 9.68-17.12 23.56-14.7M26.07 29.46l-6.14-5.43M122.96 11.16l6.15-5.43M32.52 23.81l-4.04-7.13M115.51 7.51l4.05-7.13M40.6 20.2l-2.2-7.9M106.44 6.9l2.2-7.9" stroke="#000000" stroke-width="4" stroke-linecap="round"/>
    </g>
    <g transform="translate(49 11)">
      <path d="m-13.4 312.86-.62-1.64c-.56-1.55-1.35-3.84-2.23-6.74a163.21 163.21 0 0 1-5.28-23.98c-2.81-19.77-2.8-45.8 8.4-71.12 1.8-4.09 4.07-8.3 6.52-12.85 9.47-17.6 21.77-40.46 21.77-82.45 0-30.59 14.84-56.35 36.7-74.51 21.88-18.18 50.7-28.66 78.38-28.66 15.13 0 27.3 1.73 37.07 7.64 9.72 5.87 17.37 16.05 23.05 33.58a3.47 3.47 0 0 0 4.36 2.27c11.31-3.67 28.47.04 42.95 9.5 14.42 9.4 25.62 24.15 25.62 41.91 0 15.43-2.64 25.85-5.22 36-3.12 12.3-6.13 24.16-4 43.5.7 6.45 2.15 11.03 4.16 14.82 1.98 3.73 4.48 6.62 7.12 9.66l.05.07c6.28 7.25 9.13 13.22 10.06 18.47.92 5.23-.05 9.98-1.84 14.9-.9 2.48-2 4.97-3.15 7.59l-.1.22c-1.12 2.53-2.3 5.19-3.35 7.98-2.18 5.77-3.89 12.2-3.72 19.83.15 6.48 1.3 10.91 3.01 14.27 1.7 3.32 3.89 5.44 5.8 7.3l.05.05c1.74 1.68 3.2 3.1 4.27 5.1.96 1.78 1.67 4.13 1.79 7.66a172.14 172.14 0 0 1-87.4 23.9 110.86 110.86 0 0 1-7.28-.28c-6.15-9.4-11.75-24.88-16.1-40.8-4.21-15.46-7.18-31.08-8.3-41.4 37.08-10.72 60.32-48.98 54.73-88.46l-.01-.12a5.97 5.97 0 0 0-.08-.47 76.68 76.68 0 0 0-.43-2.25 486.97 486.97 0 0 0-6.53-28.2 276.64 276.64 0 0 0-7.45-24.2c-2.76-7.5-5.83-14.15-9.1-18.24l-.3-.37-.44-.2c-1.93-.83-3.94-1.77-6.03-2.74-9.93-4.62-21.84-10.17-37.26-10.78-18.78-.74-42.56 5.78-74.7 29.09l-2.02 1.46 1.95 1.57c15.92 12.83 19.37 29.86 18.63 44.3a89.2 89.2 0 0 1-5.24 25.1c-1.16-1.69-1.9-3.82-2.45-6.33a85.19 85.19 0 0 1-.96-5.45l-.05-.3c-.3-2-.63-4.08-1.1-6.09-.96-4.01-2.57-8.02-6.14-10.86-3.58-2.84-8.8-4.25-16.4-3.83l-2.22.13.46 2.18 11.36 53.31.02.08.03.09a79.8 79.8 0 0 0 19.91 32.81 65.49 65.49 0 0 1 1.54 2.68c1.01 1.82 2.37 4.38 3.76 7.33 2.82 5.94 5.66 13.24 6.2 19.2.57 6.05-.96 13.86-2.7 20.31a129.63 129.63 0 0 1-2.84 9.14c-5.03-2.4-9.53-2.23-13.38.01-4.16 2.43-7.21 7.06-9.48 12.22-4.15 9.42-6.14 21.64-7.06 29.22A601.65 601.65 0 0 1 6.2 320.1 353.85 353.85 0 0 1-9 314.64a190.8 190.8 0 0 1-4.4-1.77Z" stroke="#000" stroke-width="3.82" style="fill: rgb(134, 91, 97);"/>
      <path opacity="0.9294117647058824" d="M 148.755 97.509 C 149.597 97.444 152.995 97.391 153.326 97.696 C 153.476 97.833 153.15 98.109 153.047 98.255 C 152.96 98.377 152.842 98.419 152.767 98.535 C 152.683 98.663 152.676 98.876 152.58 99.002 C 152.487 99.124 152.448 99.108 152.207 99.282 C 151.567 99.742 149.415 101.854 147.822 102.361 C 146.267 102.855 144.321 102.638 142.783 102.361 C 141.354 102.103 139.96 100.778 138.864 100.868 C 137.936 100.944 136.917 101.966 136.532 102.361 C 136.319 102.579 136.403 102.796 136.252 102.921 C 136.096 103.049 135.78 102.968 135.599 103.107 C 135.398 103.261 135.43 103.608 135.132 103.854 C 134.669 104.236 133.762 104.759 132.706 104.973 C 131.287 105.261 128.767 105.234 127.108 104.973 C 125.639 104.742 124.173 103.689 123.19 103.667 C 122.503 103.652 121.955 104.039 121.603 104.227 C 121.371 104.351 121.346 104.454 121.137 104.6 C 120.84 104.806 120.231 105.088 119.924 105.346 C 119.673 105.558 119.569 105.709 119.364 106 C 119.087 106.394 119.016 107.263 118.431 107.586 C 117.647 108.018 115.491 107.808 114.606 107.772 C 114.044 107.75 113.52 107.867 113.393 107.586 C 113.226 107.217 113.652 106.042 114.326 105.346 C 115.267 104.376 117.415 103.241 119.271 102.734 C 121.269 102.188 124.103 102.166 125.989 102.361 C 127.532 102.52 129.183 103.517 129.907 103.48 C 130.276 103.462 130.404 103.271 130.56 103.107 C 130.706 102.955 130.689 102.672 130.84 102.547 C 130.996 102.419 131.337 102.489 131.494 102.361 C 131.645 102.236 131.565 101.988 131.773 101.801 C 132.116 101.492 133.292 101.26 133.733 100.868 C 134.091 100.549 134.108 100.032 134.386 99.748 C 134.645 99.484 134.798 99.309 135.319 99.188 C 136.281 98.965 138.711 98.941 140.357 99.188 C 142.008 99.437 144.024 100.882 145.209 100.681 C 146.113 100.528 146.686 99.547 147.168 99.002 C 147.562 98.557 147.7 97.93 148.008 97.696 C 148.241 97.519 148.342 97.541 148.755 97.509 Z M 153.606 110.049 C 154.713 109.892 157.621 110.18 157.805 110.515 C 157.93 110.743 156.761 111.231 156.499 111.448 C 156.349 111.572 156.386 111.603 156.219 111.728 C 155.887 111.976 155.225 112.629 154.353 112.848 C 153.115 113.159 150.327 113.126 149.128 112.848 C 148.324 112.662 147.891 111.823 147.448 111.915 C 147.036 112.001 146.732 112.959 146.515 113.221 C 146.391 113.371 146.311 113.385 146.235 113.501 C 146.152 113.629 146.172 113.826 146.049 113.968 C 145.895 114.145 145.507 114.243 145.302 114.434 C 145.106 114.619 145.036 114.917 144.836 115.087 C 144.633 115.26 144.583 115.357 144.089 115.46 C 142.845 115.72 138.111 115.86 135.692 115.834 C 133.69 115.812 131.804 115.232 130.467 115.46 C 129.459 115.633 128.518 116.291 128.135 116.58 C 127.941 116.726 127.984 116.741 127.855 116.953 C 127.596 117.378 126.685 118.858 126.642 119.286 C 126.621 119.491 126.949 119.559 126.828 119.659 C 126.504 119.928 122.648 120.48 121.883 119.939 C 121.334 119.551 121.565 118.228 121.603 117.793 C 121.625 117.55 121.591 117.535 121.79 117.327 C 122.27 116.825 123.879 115.404 125.615 114.901 C 127.952 114.223 132.694 114.478 135.132 114.527 C 136.876 114.563 138.331 115.148 139.238 114.901 C 139.857 114.732 140.113 114.22 140.451 113.874 C 140.752 113.566 140.908 113.366 141.197 112.941 C 141.611 112.334 141.702 110.936 142.69 110.422 C 144.12 109.678 148.606 109.967 150.061 110.235 C 150.864 110.384 151.005 110.98 151.554 110.982 C 152.173 110.984 152.745 110.171 153.606 110.049 Z M 122.107 148.863 C 123.119 148.804 125.609 149.111 125.746 149.329 C 125.829 149.462 125.145 149.525 124.813 149.796 C 124.356 150.169 123.708 151.018 123.32 151.569 C 122.994 152.032 122.602 152.582 122.574 152.875 C 122.557 153.05 122.786 153.072 122.76 153.248 C 122.716 153.556 122.506 154.183 121.827 154.648 C 120.549 155.523 116.968 156.774 114.083 157.26 C 110.855 157.804 104.657 157.756 103.26 157.447 C 102.767 157.338 102.596 157.106 102.607 156.98 C 102.617 156.86 102.903 156.773 103.26 156.7 C 103.939 156.563 105.779 156.501 106.806 156.514 C 107.66 156.524 108.107 156.776 109.045 156.7 C 110.352 156.595 112.671 156.156 114.083 155.581 C 115.312 155.08 116.459 154.448 117.162 153.621 C 117.806 152.865 117.764 151.632 118.282 150.916 C 118.753 150.264 119.404 149.766 120.055 149.423 C 120.683 149.092 121.293 148.911 122.107 148.863 Z M 186.188 138.861 C 187.587 138.344 190.603 138.732 190.946 139.141 C 191.145 139.377 190.576 139.902 190.293 140.167 C 190.014 140.428 189.52 140.492 189.267 140.727 C 189.041 140.937 188.94 141.294 188.8 141.473 C 188.699 141.603 188.673 141.588 188.52 141.753 C 188.185 142.118 187.678 143.252 186.654 143.899 C 185.139 144.857 181.822 145.933 179.47 146.325 C 177.255 146.695 174.643 146.423 172.939 146.325 C 171.689 146.253 170.971 146.259 169.953 145.952 C 168.83 145.614 166.999 144.643 166.501 144.272 C 166.287 144.113 166.351 144.024 166.221 143.899 C 166.06 143.744 165.732 143.57 165.568 143.433 C 165.444 143.329 165.419 143.297 165.288 143.153 C 165.06 142.902 164.069 142.209 164.262 141.94 C 164.56 141.522 168.196 141.596 169.02 141.66 C 169.398 141.689 169.447 141.685 169.673 141.847 C 169.997 142.078 170.418 142.894 170.699 143.153 C 170.88 143.318 170.91 143.277 171.166 143.433 C 171.697 143.756 173.093 144.889 174.058 145.205 C 174.929 145.491 175.648 145.544 176.671 145.392 C 178 145.194 180.694 144.233 181.429 143.713 C 181.795 143.454 181.72 143.187 181.896 142.966 C 182.064 142.754 182.14 142.713 182.456 142.406 C 183.123 141.759 184.745 139.394 186.188 138.861 Z" style="fill-opacity: 1; fill-rule: nonzero; stroke-dasharray: none; stroke-dashoffset: 0px; stroke-linecap: butt; stroke-linejoin: miter; stroke-miterlimit: 4; stroke-opacity: 1; paint-order: normal; vector-effect: none; opacity: 1; mix-blend-mode: normal; isolation: auto; stroke: rgb(143, 85, 67); stroke-width: 0px; fill: rgb(133, 79, 63);"/>
    </g>
    <g transform="translate(142 119)">
      <g fill="#000000">
        <ellipse cx="16.53" cy="29.4" rx="9" ry="13.5" transform="rotate(-6.78 16.53 29.4)"/>
        <ellipse cx="80.53" cy="19.4" rx="9" ry="13.5" transform="rotate(-6.28 80.53 19.4)"/>
      </g>
      <g transform="translate(-40 -8)"/>
    </g>
    <g transform="rotate(-8 1149.44 -1186.92)">
      <path d="M12.3 12.34c5.45-1.24 14.38.62 12.42 10.54-1.74 8.82-11.1 9.3-13.72 6.82" stroke="#000" stroke-width="4"/>
    </g>
    <g transform="translate(84 154)">
      <path d="M37 8.25V7.13l-.95-.59A24.91 24.91 0 0 0 23.08 3C17.44 3 12.16 4.75 8.4 8.3c-3.8 3.58-5.86 8.83-5.31 15.37.52 6.37 2.66 11.06 6.2 14.17-.29 1-.37 2.08-.24 3.21a8.98 8.98 0 0 0 4.6 7.08C16.09 49.5 19.2 50 22.52 50c5.48 0 10.29-2.95 13.95-6.89l.53-.57V8.25Z" stroke="#000" stroke-width="4"/>
      <path d="M42.97 23.98c.07-.65.1-1.3.1-1.98 0-10.22-9.5-17-20-17C12.6 5 4.09 11.5 5.09 23.5c.56 6.68 2.95 11.07 6.65 13.72a5.7 5.7 0 0 0-.68 3.6C11.68 46.1 16.19 48 22.52 48c11.1 0 19.9-14.05 20.45-24.02Z" fill="#ac6651"/>
      <path d="M27.5 13.5c-4-1.83-12.8-2.8-16 8" stroke="#000" stroke-width="4"/>
      <path d="M17 14c2.17 1.83 6.3 7.5 5.5 15.5" stroke="#000" stroke-width="4"/>
      <g transform="translate(3 42)">
        <path d="M24 0A24 24 0 1 1 0 24c0-6.4 3.5-11.5 6.57-16.5L7.5 6" stroke="#f4d150" stroke-width="4"/>
      </g>
    </g>
    <g transform="translate(53 272)">
      <g stroke="#000" stroke-width="4">
        <path d="M126.77 67.58 128 66l-1.23 1.58 1.72 1.34 1.19-1.83v-.02l.05-.06.04-.05a28.57 28.57 0 0 1 .8-1.18 112.35 112.35 0 0 1 11.5-14.05c3.67-3.78 7.83-7.4 12.13-9.93 4.31-2.53 8.58-3.84 12.53-3.3C209.17 44.2 240.4 63 260.67 91h-273.3c16.3-29.34 39.49-48.02 77.07-56.59 1.6-.36 3.78-.25 6.5.38 2.7.63 5.77 1.73 9.09 3.19 6.62 2.9 14.02 7.16 20.97 11.56a355.78 355.78 0 0 1 25.24 17.63l.4.3.1.08.02.02h.01Z" fill="#f9c9b6"/>
        <path d="m52.61 37.08 5.17-19.23c.2-.78 1.22-1 1.76-.4C74.4 33.7 93.16 33.08 99.4 32.33c.84-.1 1.5.82 1.1 1.58L87.34 58.86c-.2.38-.62.6-1.04.5-3.95-.82-23.62-5.63-33.57-21.5a1 1 0 0 1-.12-.78ZM183.2 36.98 171.61 17.5c-.4-.66-1.37-.65-1.79 0-5.73 8.83-15.63 12.9-19.09 14.1-.62.22-.9.96-.57 1.53l13.5 22.81c.2.34.59.53.97.42 2.13-.61 9.46-3.67 18.54-18.34a1 1 0 0 0 .01-1.04Z" fill="#f9c9b6"/>
        <path d="m52.61 37.08 5.17-19.23c.2-.78 1.22-1 1.76-.4C74.4 33.7 93.16 33.08 99.4 32.33c.84-.1 1.5.82 1.1 1.58L87.34 58.86c-.2.38-.62.6-1.04.5-3.95-.82-23.62-5.63-33.57-21.5a1 1 0 0 1-.12-.78ZM183.2 36.98 171.61 17.5c-.4-.66-1.37-.65-1.79 0-5.73 8.83-15.63 12.9-19.09 14.1-.62.22-.9.96-.57 1.53l13.5 22.81c.2.34.59.53.97.42 2.13-.61 9.46-3.67 18.54-18.34a1 1 0 0 0 .01-1.04Z" fill="#fff" fill-opacity=".75"/>
        <path d="m109.5 54.5-9-21.5-7 15 16 6.5ZM141 53.5l9-21.5 7 15-16 6.5ZM70.5 14l-12 3 10 6.5 2-9.5ZM160 14l11 3-7 6.5-4-9.5Z" fill="#000" stroke-linejoin="round"/>
      </g>
    </g>
  </g>
</svg>