<?xml version="1.0" encoding="utf-8"?>
<svg viewBox="0 0 360 360" fill="none" shape-rendering="auto" xmlns="http://www.w3.org/2000/svg">
  <mask id="viewboxMask">
    <rect width="360" height="360" rx="0" ry="0" x="0" y="0" fill="#fff"/>
  </mask>
  <g mask="url(#viewboxMask)" transform="matrix(1.0000000000000002, 0, 0, 1.0000000000000002, 2.842170943040401e-14, 7.105427357601002e-15)">
    <g transform="translate(80 23)">
      <path d="M154 319.5c-14.4-20-25.67-58.67-27-78L58.5 212 30 319.5h124Z" fill="#f9c9b6" stroke="#000" stroke-width="4"/>
      <path d="M130.37 263.69c-2.1.2-4.22.31-6.37.31-30.78 0-56.05-21.57-58.76-49.1L127 241.5c.38 5.48 1.55 13.32 3.37 22.19Z" fill="#000" style="mix-blend-mode:multiply"/>
      <path d="M181.94 151.37v.01l.1.4.14.65A75.72 75.72 0 0 1 34.93 187.7l-.2-.74L18 117.13l-.06-.29A75.72 75.72 0 0 1 165.2 81.55l.05.21.02.08.05.2.05.2v.01l16.4 68.44.08.34.08.34Z" stroke="#000" stroke-width="4" fill="#f9c9b6"/>
      <g transform="translate(34 102.3)"/>
    </g>
    <g transform="translate(170 183)">
      <path d="M-.5 17.5c2.5 17 31 25 57 5.5" stroke-width="4" stroke="#000000"/>
    </g>
    <g transform="translate(110 102)">
      <path d="M99 10.21c5.67-2.66 19-5.1 27 6.5M23.58 35.52c2.07-5.9 9.68-17.12 23.56-14.7M26.07 29.46l-6.14-5.43M122.96 11.16l6.15-5.43M32.52 23.81l-4.04-7.13M115.51 7.51l4.05-7.13M40.6 20.2l-2.2-7.9M106.44 6.9l2.2-7.9" stroke="#000000" stroke-width="4" stroke-linecap="round"/>
    </g>
    <g transform="translate(49 11)">
      <path d="M -13.4 312.86 L -14.02 311.22 C -14.58 309.67 -15.37 307.38 -16.25 304.48 C -18.61 296.631 -20.375 288.615 -21.53 280.5 C -24.34 260.73 -24.33 234.7 -13.13 209.38 C -11.33 205.29 -9.06 201.08 -6.61 196.53 C 2.86 178.93 15.16 156.07 15.16 114.08 C 15.16 83.49 30 57.73 51.86 39.57 C 73.74 21.39 102.56 10.91 130.24 10.91 C 145.37 10.91 157.54 12.64 167.31 18.55 C 177.03 24.42 201.961 23.749 207.641 41.279 C 208.215 43.112 192.889 54.981 194.72 54.4 C 206.03 50.73 190.236 68.104 204.716 77.564 C 219.136 86.964 263.29 88.05 263.29 105.81 C 263.29 121.24 260.65 131.66 258.07 141.81 C 254.95 154.11 251.94 165.97 254.07 185.31 C 254.77 191.76 256.22 196.34 258.23 200.13 C 260.21 203.86 262.71 206.75 265.35 209.79 L 265.4 209.86 C 271.68 217.11 274.53 223.08 275.46 228.33 C 276.38 233.56 275.41 238.31 273.62 243.23 C 272.72 245.71 271.62 248.2 270.47 250.82 L 270.37 251.04 C 269.25 253.57 268.07 256.23 267.02 259.02 C 264.84 264.79 263.13 271.22 263.3 278.85 C 263.45 285.33 264.6 289.76 266.31 293.12 C 268.01 296.44 270.2 298.56 272.11 300.42 L 272.16 300.47 C 273.9 302.15 275.36 303.57 276.43 305.57 C 277.39 307.35 278.1 309.7 278.22 313.23 C 251.744 328.859 221.565 337.111 190.82 337.13 C 188.391 337.116 185.963 337.023 183.54 336.85 C 177.39 327.45 171.79 311.97 167.44 296.05 C 163.23 280.59 160.26 264.97 159.14 254.65 C 196.22 243.93 219.46 205.67 213.87 166.19 L 213.86 166.07 C 213.84 165.912 213.813 165.756 213.78 165.6 C 213.648 164.848 213.505 164.098 213.35 163.35 C 211.453 153.887 209.276 144.483 206.82 135.15 C 204.707 126.974 202.221 118.899 199.37 110.95 C 196.61 103.45 193.54 96.8 190.27 92.71 L 189.97 92.34 L 189.53 92.14 C 187.6 91.31 185.59 90.37 183.5 89.4 C 173.57 84.78 161.66 79.23 146.24 78.62 C 127.46 77.88 103.68 84.4 71.54 107.71 L 69.52 109.17 L 71.47 110.74 C 87.39 123.57 90.84 140.6 90.1 155.04 C 89.571 163.615 87.806 172.069 84.86 180.14 C 83.7 178.45 82.96 176.32 82.41 173.81 C 82.031 172.004 81.711 170.187 81.45 168.36 L 81.4 168.06 C 81.1 166.06 80.77 163.98 80.3 161.97 C 79.34 157.96 77.73 153.95 74.16 151.11 C 70.58 148.27 65.36 146.86 57.76 147.28 L 55.54 147.41 L 56 149.59 L 67.36 202.9 L 67.38 202.98 L 67.41 203.07 C 71.279 215.463 78.113 226.726 87.32 235.88 C 87.854 236.761 88.368 237.655 88.86 238.56 C 89.87 240.38 91.23 242.94 92.62 245.89 C 95.44 251.83 98.28 259.13 98.82 265.09 C 99.39 271.14 97.86 278.95 96.12 285.4 C 95.286 288.481 94.339 291.529 93.28 294.54 C 88.25 292.14 83.75 292.31 79.9 294.55 C 75.74 296.98 72.69 301.61 70.42 306.77 C 66.27 316.19 64.28 328.41 63.36 335.99 C 44.057 331.637 24.98 326.333 6.2 320.1 C 1.092 318.396 -3.976 316.575 -9 314.64 C -10.474 314.068 -11.941 313.478 -13.4 312.87 L -13.4 312.86 Z" stroke="#000" stroke-width="3.82" style="fill: rgb(125, 89, 72);"/>
    </g>
    <g transform="translate(142 119)">
      <path d="M5.29 34.07c.11.82 1.14 1 1.72.41 2.46-2.52 6.25-4.36 10.65-4.89 2.6-.3 5.1-.12 7.32.48.75.2 1.5-.44 1.23-1.17A10.84 10.84 0 0 0 5.3 34.07ZM69.38 24.07c.12.82 1.15 1 1.73.41 2.44-2.48 6.19-4.3 10.54-4.83 2.56-.3 5.03-.12 7.23.47.75.2 1.5-.44 1.23-1.17a10.74 10.74 0 0 0-20.73 5.12Z" fill="#000000"/>
      <g transform="translate(-40 -8)"/>
    </g>
    <g transform="rotate(-8 1149.44 -1186.92)">
      <path d="M16.5 7c-.33 3.83 0 12.2 4 15 5 3.5-.5 12-10.5 10" stroke="#000" stroke-width="4"/>
    </g>
    <g transform="translate(84 154)">
      <path d="M30.5 6.18A23.78 23.78 0 0 0 23.08 5c-10.5 0-19 6.5-18 18.5 1.04 12.5 8.5 17 19 17A19.6 19.6 0 0 0 31 39.23" stroke="#000" stroke-width="8"/>
      <path d="M31.5 39.04a19.38 19.38 0 0 1-7.42 1.46c-10.5 0-17.96-4.5-19-17-1-12 7.5-18.5 18-18.5 3.14 0 6.19.6 8.92 1.73l-.5 32.3Z" fill="#f9c9b6"/>
      <path d="M27.5 13.5c-4-1.83-12.8-2.8-16 8" stroke="#000" stroke-width="4"/>
      <path d="M17 14c2.17 1.83 6.3 7.5 5.5 15.5" stroke="#000" stroke-width="4"/>
      <g transform="translate(3 35)">
        <circle cx="25" cy="2" r="4" fill="#ffedef"/>
        <circle cx="26" cy="1" r="1" fill="#fff"/>
      </g>
    </g>
    <g transform="translate(53 272)">
      <path d="M260.37 90.86H-12.54l.1-.2C-7.89 81.38.5 64.31 11.4 49.03c6.2-8.67 13.13-16.65 20.54-22.27 7.41-5.61 15.12-8.73 22.95-8.04 15.06 1.31 28.46 9.56 41.93 17.83l3.83 2.35c14.48 8.82 29.35 17.02 45.72 13.43 5.53-1.2 9.26-3.8 11.6-7.16 2.32-3.3 3.15-7.15 3.3-10.66.14-3.52-.4-6.85-.96-9.26a39.89 39.89 0 0 0-.75-2.78c3.63-3.64 7.47-5.77 11.43-6.73 4.3-1.03 8.89-.73 13.72.7 9.73 2.87 20.14 10.25 30.3 19.73 18.61 17.37 35.69 41.14 45.36 54.68Z" fill="#77311d" stroke="#000" stroke-width="4.27"/>
    </g>
  </g>
  <path opacity="0.9058823529411765" d="M 194.98 105.517 C 198.043 105.444 205.07 107.357 205.124 107.784 C 205.173 108.164 199.132 108.397 197.367 108.142 C 196.233 107.979 195.983 107.044 194.98 107.188 C 193.489 107.401 189.89 110.315 189.132 110.887 C 188.866 111.088 188.904 111.079 188.774 111.245 C 188.595 111.474 188.542 111.865 188.177 112.2 C 187.616 112.717 185.793 113.4 185.313 113.871 C 185.041 114.137 185.348 114.415 184.955 114.587 C 183.953 115.025 178.747 114.898 176.601 114.587 C 175.021 114.358 173.469 113.75 172.901 113.393 C 172.633 113.225 172.809 113.106 172.543 112.916 C 171.965 112.503 169.965 111.282 168.724 111.245 C 167.541 111.21 165.804 112.24 165.263 112.558 C 165.019 112.702 165.035 112.75 164.905 112.916 C 164.726 113.145 164.511 113.645 164.309 113.871 C 164.152 114.046 164.003 114.037 163.831 114.229 C 163.58 114.51 163.324 115.24 162.996 115.542 C 162.714 115.801 162.518 115.902 162.041 116.019 C 161.266 116.209 159.206 116.318 158.461 116.258 C 158.038 116.223 157.703 116.275 157.625 116.019 C 157.499 115.605 158.421 113.846 158.819 113.393 C 159.057 113.122 159.354 113.202 159.535 113.035 C 159.706 112.878 159.734 112.598 159.893 112.439 C 160.052 112.28 160.291 112.2 160.49 112.081 C 160.689 111.961 160.723 111.873 161.086 111.723 C 161.884 111.393 163.982 110.552 165.86 110.29 C 168.142 109.972 172.078 109.504 174.549 110.099 C 176.911 110.669 179.221 113.492 180.42 113.632 C 180.999 113.7 181.254 113.378 181.494 113.155 C 181.7 112.963 181.662 112.616 181.852 112.439 C 182.052 112.252 182.48 112.218 182.688 112.081 C 182.852 111.972 182.916 111.889 183.046 111.723 C 183.225 111.494 183.384 111.026 183.642 110.768 C 183.901 110.509 184.368 110.35 184.597 110.171 C 184.764 110.041 184.807 109.91 184.955 109.813 C 185.119 109.706 185.396 109.72 185.552 109.574 C 185.722 109.415 185.688 109.048 185.91 108.858 C 186.187 108.622 186.945 108.617 187.223 108.381 C 187.445 108.192 187.209 107.918 187.581 107.665 C 188.501 107.038 192.263 105.581 194.98 105.517 Z" style="fill-opacity: 1; fill-rule: nonzero; stroke-dasharray: none; stroke-dashoffset: 0px; stroke-linecap: butt; stroke-linejoin: miter; stroke-miterlimit: 4; opacity: 1; mix-blend-mode: normal; isolation: auto; paint-order: stroke; stroke-width: 3px; stroke-opacity: 0.78; stroke: rgba(0, 0, 0, 0); fill: rgb(201, 163, 147);" transform="matrix(1.0000000000000002, 0, 0, 1.0000000000000002, 2.842170943040401e-14, 7.105427357601002e-15)"/>
  <path opacity="0.9058823529411765" d="M 200.797 115.054 C 203.86 114.981 210.887 116.894 210.941 117.321 C 210.99 117.701 204.949 117.934 203.184 117.679 C 202.05 117.516 201.8 116.581 200.797 116.725 C 199.306 116.938 195.707 119.852 194.949 120.424 C 194.683 120.625 194.721 120.616 194.591 120.782 C 194.412 121.011 194.359 121.402 193.994 121.737 C 193.433 122.254 191.61 122.937 191.13 123.408 C 190.858 123.674 191.165 123.952 190.772 124.124 C 189.77 124.562 184.564 124.435 182.418 124.124 C 180.838 123.895 179.286 123.287 178.718 122.93 C 178.45 122.762 178.626 122.643 178.36 122.453 C 177.782 122.04 175.782 120.819 174.541 120.782 C 173.358 120.747 171.621 121.777 171.08 122.095 C 170.836 122.239 170.852 122.287 170.722 122.453 C 170.543 122.682 170.328 123.182 170.126 123.408 C 169.969 123.583 169.82 123.574 169.648 123.766 C 169.397 124.047 169.141 124.777 168.813 125.079 C 168.531 125.338 168.335 125.439 167.858 125.556 C 167.083 125.746 165.023 125.855 164.278 125.795 C 163.855 125.76 163.52 125.812 163.442 125.556 C 163.316 125.142 164.238 123.383 164.636 122.93 C 164.874 122.659 165.171 122.739 165.352 122.572 C 165.523 122.415 165.551 122.135 165.71 121.976 C 165.869 121.817 166.108 121.737 166.307 121.618 C 166.506 121.498 166.54 121.41 166.903 121.26 C 167.701 120.93 169.799 120.089 171.677 119.827 C 173.959 119.509 177.895 119.041 180.366 119.636 C 182.728 120.206 185.038 123.029 186.237 123.169 C 186.816 123.237 187.071 122.915 187.311 122.692 C 187.517 122.5 187.479 122.153 187.669 121.976 C 187.869 121.789 188.297 121.755 188.505 121.618 C 188.669 121.509 188.733 121.426 188.863 121.26 C 189.042 121.031 189.201 120.563 189.459 120.305 C 189.718 120.046 190.185 119.887 190.414 119.708 C 190.581 119.578 190.624 119.447 190.772 119.35 C 190.936 119.243 191.213 119.257 191.369 119.111 C 191.539 118.952 191.505 118.585 191.727 118.395 C 192.004 118.159 192.762 118.154 193.04 117.918 C 193.262 117.729 193.026 117.455 193.398 117.202 C 194.318 116.575 198.08 115.118 200.797 115.054 Z" style="fill-opacity: 1; fill-rule: nonzero; stroke-dasharray: none; stroke-dashoffset: 0px; stroke-linecap: butt; stroke-linejoin: miter; stroke-miterlimit: 4; opacity: 1; mix-blend-mode: normal; isolation: auto; paint-order: stroke; stroke-width: 3px; stroke-opacity: 0.78; stroke: rgba(0, 0, 0, 0); fill: rgb(201, 163, 147);" transform="matrix(1.0000000000000002, 0, 0, 1.0000000000000002, 2.842170943040401e-14, 7.105427357601002e-15)"/>
  <path stroke-width="0" opacity="0.796078431372549" d="M 158.269 153.303 C 162.039 152.678 169.939 153.302 170.375 153.617 C 170.593 153.774 169.316 154.092 168.331 154.246 C 166.727 154.497 163.525 154.069 161.099 154.56 C 158.548 155.077 154.295 156.487 153.395 157.39 C 152.968 157.819 153.636 158.379 153.238 158.648 C 152.522 159.133 148.276 159.174 147.735 158.648 C 147.401 158.324 147.593 157.622 148.206 157.076 C 149.508 155.918 154.674 153.898 158.269 153.303 Z M 219.069 142.172 C 221.292 141.71 224.533 142.051 227.093 142.546 C 229.598 143.03 233.948 144.635 234.277 145.065 C 234.378 145.197 234.22 145.271 233.997 145.345 C 233.408 145.541 230.84 145.79 229.519 145.531 C 228.321 145.297 227.541 144.407 226.346 144.039 C 225.022 143.63 223.088 143.051 221.868 143.292 C 220.831 143.497 220.009 144.2 219.349 144.972 C 218.649 145.79 218.714 147.576 217.856 148.144 C 216.967 148.732 214.91 148.451 214.03 148.33 C 213.459 148.252 212.921 148.245 212.817 147.864 C 212.662 147.289 213.499 145.506 214.404 144.598 C 215.453 143.546 217.192 142.563 219.069 142.172 Z" style="fill-opacity: 1; fill-rule: nonzero; stroke-dasharray: none; stroke-dashoffset: 0px; stroke-linecap: butt; stroke-linejoin: miter; stroke-miterlimit: 4; stroke-opacity: 1; stroke-width: 3.82px; paint-order: normal; vector-effect: none; opacity: 1; mix-blend-mode: normal; isolation: auto; stroke: rgba(0, 0, 0, 0); fill: rgb(201, 163, 147);" transform="matrix(1.0000000000000002, 0, 0, 1.0000000000000002, 2.842170943040401e-14, 7.105427357601002e-15)"/>
</svg>