<?xml version="1.0" encoding="utf-8"?>
<svg viewBox="0 0 360 360" fill="none" shape-rendering="auto" xmlns="http://www.w3.org/2000/svg">
  <mask id="viewboxMask">
    <rect width="360" height="360" rx="0" ry="0" x="0" y="0" fill="#fff"/>
  </mask>
  <g mask="url(#viewboxMask)" transform="matrix(0.9999999999999999, 0, 0, 0.9999999999999999, -6.039613253960852e-14, -3.552713678800501e-15)">
    <g transform="translate(80 23)">
      <path d="M154 319.5c-14.4-20-25.67-58.67-27-78L58.5 212 30 319.5h124Z" fill="#f9c9b6" stroke="#000" stroke-width="4"/>
      <path d="M130.37 263.69c-2.1.2-4.22.31-6.37.31-30.78 0-56.05-21.57-58.76-49.1L127 241.5c.38 5.48 1.55 13.32 3.37 22.19Z" fill="#000" style="mix-blend-mode:multiply"/>
      <path d="M181.94 151.37v.01l.1.4.14.65A75.72 75.72 0 0 1 34.93 187.7l-.2-.74L18 117.13l-.06-.29A75.72 75.72 0 0 1 165.2 81.55l.05.21.02.08.05.2.05.2v.01l16.4 68.44.08.34.08.34Z" fill="#f9c9b6" stroke="#000" stroke-width="4"/>
      <g transform="translate(34 102.3)"/>
    </g>
    <g transform="translate(170 183)">
      <path d="M-.5 17.5c2.5 17 31 25 57 5.5" stroke="#000000" stroke-width="4"/>
    </g>
    <g transform="translate(110 102)">
      <path d="M27 26.5c6.17 2.5 21.1 3 31.5-15M94 4c5.17 5.33 18.1 12.8 28.5 0" stroke="#000000" stroke-width="4" stroke-linecap="round"/>
    </g>
    <g transform="translate(49 11)">
      <g stroke="#000">
        <path d="m105.84 88.82 1.88.3v.08l-.04.16-.12.52c-.12.45-.3 1.09-.6 1.9a41.7 41.7 0 0 1-3.4 6.92c-3.17 5.32-8.7 12.66-18.31 21.6 29.97.74 55-8.92 72.82-19.04a156.35 156.35 0 0 0 21.71-14.87 118.43 118.43 0 0 0 7.5-6.7l.1-.1.01-.01 2.29-2.38.93 3.16-1.84.54 1.84-.54v.05l.05.13.15.52a817.06 817.06 0 0 1 2.69 9.28c1.75 6.14 4.14 14.58 6.66 23.77 5.03 18.35 10.6 39.81 12.7 51.97 3.49 20.32-1.91 35.74-5.1 44.87-.63 1.77-1.17 3.3-1.54 4.6.06.04.12.1.22.16.6.42 1.65.91 3.18 1.4 3.02.96 7.32 1.74 11.92 2.19 4.6.44 9.38.53 13.34.14 1.98-.2 3.7-.5 5.08-.92a6.85 6.85 0 0 0 2.58-1.27c.02-.08.03-.29-.02-.68-.1-.78-.4-1.87-.93-3.32-.8-2.15-1.97-4.8-3.35-7.88l-1.46-3.3c-3.93-8.94-8.65-20.56-9.68-32.4-1.15-13.16 1.45-24.42 3.79-34.54l.11-.48c2.39-10.34 4.38-19.32 2.34-28.42-3.1-13.8-7.32-25.3-13.8-33.57-6.42-8.17-15.13-13.27-27.5-14.21l-1.28-.1-.4-1.22c-5.7-17.57-13.38-29.05-23.18-36.17-9.8-7.12-21.96-10.05-36.94-10.05-27.7 0-57.5 10.52-79.88 28.72-22.35 18.18-37.14 43.9-35.2 74.33 2.13 33.6-.3 59.06-5.8 77.72-5 17-12.59 28.46-21.68 35.14 1.19.61 2.78 1.39 4.77 2.27 5.02 2.24 12.59 5.2 22.67 8.03 19.34 5.43 47.95 10.38 85.71 8.89-8.32-7.15-16.72-15.83-23.37-25-7.63-10.53-13.14-21.94-13.3-32.58-.19-12.62.67-45.67.93-52.5.62-15.9 10.82-28.15 20.54-36.3a96.6 96.6 0 0 1 18.96-12.34l.2-.1.13-.06.1-.05h.02v-.01l.8 1.74Zm0 0 1.88.3.56-3.5-3.23 1.46.79 1.74Zm100.23 126.57.03.04-.03-.04Z" stroke-width="3.82" style="fill: rgb(43, 43, 43);"/>
        <path d="M191 58c.5 4.5-.3 13.5-1.5 19.5" stroke-width="4"/>
      </g>
    </g>
    <g transform="translate(142 119)">
      <circle cx="15.24" cy="20.24" r="12" transform="rotate(-6.28 15.24 20.24)" fill="#e0ddff"/>
      <ellipse cx="16.53" cy="29.4" rx="9" ry="13.5" transform="rotate(-6.78 16.53 29.4)" fill="#000000"/>
      <circle cx="79.02" cy="11.61" r="12" transform="rotate(-6.28 79.02 11.61)" fill="#e0ddff"/>
      <ellipse cx="80.53" cy="19.4" rx="9" ry="13.5" transform="rotate(-6.28 80.53 19.4)" fill="#000000"/>
      <g transform="translate(-40 -8)"/>
    </g>
    <g transform="rotate(-8 1149.44 -1186.92)">
      <path d="M12.3 12.34c5.45-1.24 14.38.62 12.42 10.54-1.74 8.82-11.1 9.3-13.72 6.82" stroke="#000" stroke-width="4"/>
    </g>
    <g transform="translate(84 154)">
      <path d="M30.5 6.18A23.78 23.78 0 0 0 23.08 5c-10.5 0-19 6.5-18 18.5 1.04 12.5 8.5 17 19 17A19.6 19.6 0 0 0 31 39.23" stroke="#000" stroke-width="8"/>
      <path d="M31.5 39.04a19.38 19.38 0 0 1-7.42 1.46c-10.5 0-17.96-4.5-19-17-1-12 7.5-18.5 18-18.5 3.14 0 6.19.6 8.92 1.73l-.5 32.3Z" fill="#f9c9b6"/>
      <path d="M27.5 13.5c-4-1.83-12.8-2.8-16 8" stroke="#000" stroke-width="4"/>
      <path d="M17 14c2.17 1.83 6.3 7.5 5.5 15.5" stroke="#000" stroke-width="4"/>
      <g transform="translate(3 35)">
        <circle cx="25" cy="2" r="4" fill="#9287ff"/>
        <circle cx="26" cy="1" r="1" fill="#fff"/>
      </g>
    </g>
    <g transform="translate(53 272)">
      <g stroke="#000" stroke-width="4">
        <path d="M260.7 91H-12.64C3.67 61.66 26.86 42.98 64.44 34.4c16.02-3.65 34.67-5.47 56.56-5.47 9.46 0 16.81 1.44 23.8 3.35 2.58.7 5.18 1.5 7.84 2.3 4.4 1.34 8.97 2.72 13.91 3.86l.14.03.15.01c46.12 3.8 73.78 24.3 93.85 52.5Z" fill="#e0ddff"/>
        <path d="m52.93 36.58 9.15-19.6a1 1 0 0 1 1.25-.51c37.93 13.42 72.43 12.48 104.4 3.57a1 1 0 0 1 1.09.38l13.93 19.05a.98.98 0 0 1-.42 1.5c-33.6 13.2-96.67 10.95-128.91-3.07a.98.98 0 0 1-.49-1.32Z" fill="#e0ddff"/>
        <path opacity=".75" d="m52.93 36.58 9.15-19.6a1 1 0 0 1 1.25-.51c37.93 13.42 72.43 12.48 104.4 3.57a1 1 0 0 1 1.09.38l13.93 19.05a.98.98 0 0 1-.42 1.5c-33.6 13.2-96.67 10.95-128.91-3.07a.98.98 0 0 1-.49-1.32Z" fill="#fff"/>
      </g>
    </g>
  </g>
  <path opacity="0.9019607843137255" d="M 167.562 158.908 C 168.955 158.254 172.531 158.793 173.082 159.322 C 173.387 159.615 173.015 160.287 172.806 160.564 C 172.621 160.808 172.283 160.7 171.978 160.978 C 171.498 161.414 170.729 162.885 170.322 163.324 C 170.092 163.571 169.984 163.485 169.77 163.738 C 169.399 164.175 169.117 165.516 168.39 166.084 C 167.575 166.72 166.539 166.965 164.94 167.188 C 162.494 167.528 157.196 167.867 154.452 167.188 C 152.277 166.649 150.22 165.023 149.347 164.29 C 148.886 163.903 148.921 163.581 148.657 163.324 C 148.41 163.084 148.136 162.994 147.829 162.772 C 147.46 162.505 146.835 162.162 146.587 161.806 C 146.379 161.508 146.066 161.051 146.311 160.84 C 146.778 160.434 150.001 160.343 151.416 160.84 C 152.715 161.296 153.768 162.658 154.59 163.462 C 155.247 164.104 155.347 164.793 156.108 165.256 C 157.076 165.843 159.012 166.358 160.248 166.36 C 161.322 166.36 162.527 166.089 163.146 165.532 C 163.707 165.027 163.624 163.742 163.974 163.324 C 164.215 163.036 164.459 163.234 164.802 162.91 C 165.468 162.279 166.239 159.528 167.562 158.908 Z M 235.262 149.193 C 236.244 149.15 238.909 148.76 239.264 149.469 C 239.661 150.261 238.447 152.843 236.78 154.161 C 234.399 156.044 227.954 157.697 224.499 158.301 C 221.813 158.77 219.009 158.409 217.599 158.301 C 216.824 158.241 216.466 158.193 216.081 158.025 C 215.773 157.89 215.665 157.688 215.391 157.473 C 215.046 157.201 214.517 156.875 214.149 156.507 C 213.781 156.139 213.425 155.615 213.183 155.265 C 212.998 154.997 212.6 154.752 212.769 154.575 C 213.123 154.204 216.895 153.945 217.875 154.161 C 218.421 154.281 218.542 154.53 218.841 154.851 C 219.194 155.23 219.36 156.071 219.807 156.369 C 220.241 156.658 220.577 156.718 221.463 156.645 C 223.261 156.496 229.738 154.948 230.984 154.161 C 231.506 153.832 231.263 153.663 231.536 153.195 C 232.007 152.388 232.991 150.047 233.744 149.469 C 234.243 149.086 234.592 149.222 235.262 149.193 Z M 207.647 118.889 C 208.787 118.54 215.071 118.357 215.079 119.07 C 215.09 119.95 204.897 123.667 203.841 124.689 C 203.499 125.02 204.028 125.233 203.659 125.415 C 202.556 125.957 195.645 126.071 192.058 125.415 C 188.665 124.794 186.413 123.787 186.413 123.787 C 186.834 124.002 190.773 121.857 191.333 122.152 C 192.503 122.767 195.838 124.878 198.221 124.689 C 200.835 124.483 205.279 121.188 206.378 120.339 C 206.812 120.004 206.717 119.85 206.922 119.614 C 207.138 119.366 207.131 119.047 207.647 118.889 Z" style="fill-opacity: 1; fill-rule: nonzero; stroke-dasharray: none; stroke-dashoffset: 0px; stroke-linecap: butt; stroke-linejoin: miter; stroke-miterlimit: 4; stroke-opacity: 1; paint-order: normal; vector-effect: none; opacity: 1; mix-blend-mode: normal; isolation: auto; stroke: rgb(219, 176, 160); stroke-width: 0px; fill: rgb(161, 130, 118);" transform="matrix(0.9999999999999999, 0, 0, 0.9999999999999999, -6.039613253960852e-14, -3.552713678800501e-15)"/>
</svg>