<?xml version="1.0" encoding="utf-8"?>
<svg viewBox="0 0 360 360" fill="none" shape-rendering="auto" xmlns="http://www.w3.org/2000/svg">
  <mask id="viewboxMask">
    <rect width="360" height="360" rx="0" ry="0" x="0" y="0" fill="#fff"/>
  </mask>
  <g mask="url(#viewboxMask)" transform="matrix(0.9999999999999999, 0, 0, 0.9999999999999999, 0, -3.552713678800501e-15)">
    <g transform="translate(80 23)">
      <path d="M154 319.5c-14.4-20-25.67-58.67-27-78L58.5 212 30 319.5h124Z" fill="#f9c9b6" stroke="#000" stroke-width="4"/>
      <path d="M130.37 263.69c-2.1.2-4.22.31-6.37.31-30.78 0-56.05-21.57-58.76-49.1L127 241.5c.38 5.48 1.55 13.32 3.37 22.19Z" fill="#000" style="mix-blend-mode:multiply"/>
      <path d="M181.94 151.37v.01l.1.4.14.65A75.72 75.72 0 0 1 34.93 187.7l-.2-.74L18 117.13l-.06-.29A75.72 75.72 0 0 1 165.2 81.55l.05.21.02.08.05.2.05.2v.01l16.4 68.44.08.34.08.34Z" fill="#f9c9b6" stroke="#000" stroke-width="4"/>
      <g transform="translate(34 102.3)"/>
    </g>
    <g transform="translate(170 183)">
      <path d="M-.5 17.5c2.5 17 31 25 57 5.5" stroke="#000000" stroke-width="4"/>
    </g>
    <g transform="translate(110 102)">
      <path d="M99 10.21c5.67-2.66 19-5.1 27 6.5M23.58 35.52c2.07-5.9 9.68-17.12 23.56-14.7M26.07 29.46l-6.14-5.43M122.96 11.16l6.15-5.43M32.52 23.81l-4.04-7.13M115.51 7.51l4.05-7.13M40.6 20.2l-2.2-7.9M106.44 6.9l2.2-7.9" stroke="#000000" stroke-width="4" stroke-linecap="round"/>
    </g>
    <g transform="translate(49 11)">
      <path d="M123.79 17.49H123.94a96.78 96.78 0 0 1 62.07 24.36c14.06 12.4 22.45 26.87 25.19 36.73-4.06 2.32-11.01 4.31-19.88 5.95-9.68 1.78-21.3 3.08-33.15 4.01-23.7 1.86-48.2 2.2-59.63 1.96l-6.07-.13 4.8 3.71c2.5 1.93 5.83 3.28 9.34 4.22 3.55.95 7.42 1.54 11.14 1.87 3.82.34 7.55.42 10.64.34-10.59 8.16-24.06 14.44-37.35 19.09a225.88 225.88 0 0 1-39.83 9.92l-2.15.32.5 2.11c3.34 14.43 9.5 39.65 13.62 56.57 1.83 7.5 3.26 13.38 3.87 15.94 1.09 4.56 4.5 11.05 8.4 17.03 3.6 5.52 7.78 10.89 11.32 14.2l-7.84 31.81H49.37c8.34-12.71 10.1-27.4 8.4-42.98-1.84-16.87-7.76-35-14-53.17l-1.85-5.36c-5.69-16.46-11.36-32.88-14.43-48.6-3.4-17.44-3.56-33.75 2.83-48.09 10.34-23.21 28.66-36.7 47-44.12 18.37-7.45 36.61-8.76 46.46-7.71Z" stroke="#000" stroke-width="4" style="fill: rgb(155, 153, 177);"/>
    </g>
    <g transform="translate(142 119)">
      <g fill="#000000">
        <ellipse cx="16.12" cy="28.93" rx="9" ry="10" transform="rotate(-6.78 16.12 28.93)"/>
        <ellipse cx="80.15" cy="18.92" rx="9" ry="10" transform="rotate(-6.28 80.15 18.92)"/>
      </g>
      <g transform="translate(-40 -8)">
        <g stroke="#e0ddff" stroke-width="4">
          <path d="M34.5 42.5 0 49.12" stroke-linecap="round"/>
          <path d="M35.47 18.53 74.2 13.1a6 6 0 0 1 6.77 5.1l5.57 39.62a6 6 0 0 1-5.1 6.78l-34.48 4.84a6 6 0 0 1-6.65-4.48l-9.81-39.01a6 6 0 0 1 4.98-7.4ZM145.92 3.22 107.2 8.66a6 6 0 0 0-5.1 6.78l5.56 39.6a6 6 0 0 0 6.78 5.11l34.47-4.84a6 6 0 0 0 5.16-6.14l-1.32-40.2a6 6 0 0 0-6.83-5.75ZM83.5 37.12l22-3.5"/>
        </g>
      </g>
    </g>
    <g transform="rotate(-8 1149.44 -1186.92)">
      <path d="M12.3 12.34c5.45-1.24 14.38.62 12.42 10.54-1.74 8.82-11.1 9.3-13.72 6.82" stroke="#000" stroke-width="4"/>
    </g>
    <g transform="translate(84 154)">
      <path d="M37 8.25V7.13l-.95-.59A24.91 24.91 0 0 0 23.08 3C17.44 3 12.16 4.75 8.4 8.3c-3.8 3.58-5.86 8.83-5.31 15.37.52 6.37 2.66 11.06 6.2 14.17-.29 1-.37 2.08-.24 3.21a8.98 8.98 0 0 0 4.6 7.08C16.09 49.5 19.2 50 22.52 50c5.48 0 10.29-2.95 13.95-6.89l.53-.57V8.25Z" stroke="#000" stroke-width="4"/>
      <path d="M42.97 23.98c.07-.65.1-1.3.1-1.98 0-10.22-9.5-17-20-17C12.6 5 4.09 11.5 5.09 23.5c.56 6.68 2.95 11.07 6.65 13.72a5.7 5.7 0 0 0-.68 3.6C11.68 46.1 16.19 48 22.52 48c11.1 0 19.9-14.05 20.45-24.02Z" fill="#f9c9b6"/>
      <path d="M27.5 13.5c-4-1.83-12.8-2.8-16 8" stroke="#000" stroke-width="4"/>
      <path d="M17 14c2.17 1.83 6.3 7.5 5.5 15.5" stroke="#000" stroke-width="4"/>
      <g transform="translate(3 42)">
        <circle cx="25" cy="2" r="4" fill="#9287ff"/>
        <circle cx="26" cy="1" r="1" fill="#fff"/>
      </g>
    </g>
    <g transform="translate(53 272)">
      <g stroke="#000" stroke-width="4">
        <path d="M260.7 91H-12.64C3.67 61.66 26.86 42.98 64.44 34.4c16.02-3.65 34.67-5.47 56.56-5.47 9.46 0 16.81 1.44 23.8 3.35 2.58.7 5.18 1.5 7.84 2.3 4.4 1.34 8.97 2.72 13.91 3.86l.14.03.15.01c46.12 3.8 73.78 24.3 93.85 52.5Z" fill="#f4d150"/>
        <path d="m52.93 36.58 9.15-19.6a1 1 0 0 1 1.25-.51c37.93 13.42 72.43 12.48 104.4 3.57a1 1 0 0 1 1.09.38l13.93 19.05a.98.98 0 0 1-.42 1.5c-33.6 13.2-96.67 10.95-128.91-3.07a.98.98 0 0 1-.49-1.32Z" fill="#f4d150"/>
        <path opacity=".75" d="m52.93 36.58 9.15-19.6a1 1 0 0 1 1.25-.51c37.93 13.42 72.43 12.48 104.4 3.57a1 1 0 0 1 1.09.38l13.93 19.05a.98.98 0 0 1-.42 1.5c-33.6 13.2-96.67 10.95-128.91-3.07a.98.98 0 0 1-.49-1.32Z" fill="#fff"/>
      </g>
    </g>
  </g>
  <path opacity="0.8941176470588236" d="M 165.783 156.602 C 167.129 156.201 169.042 156.418 169.38 156.85 C 169.625 157.163 169.106 157.915 168.76 158.338 C 168.385 158.796 167.479 159.184 167.147 159.455 C 166.952 159.614 167.02 159.635 166.775 159.827 C 166.201 160.278 164.545 161.87 163.055 162.307 C 161.384 162.797 158.584 162.378 157.101 162.307 C 156.076 162.258 155.31 162.23 154.745 162.059 C 154.345 161.938 154.213 161.718 153.877 161.563 C 153.486 161.383 152.967 161.232 152.512 161.067 C 152.058 160.902 151.563 160.8 151.148 160.571 C 150.737 160.344 149.88 159.912 150.032 159.703 C 150.291 159.346 153.726 159.114 155.365 159.331 C 156.891 159.532 158.053 161.058 159.582 160.819 C 161.462 160.525 163.98 157.139 165.783 156.602 Z M 230.971 147.325 C 231.994 147.042 235.469 147.137 235.808 147.573 C 236.021 147.847 235.394 148.33 234.94 148.813 C 234.268 149.529 232.351 150.957 231.839 151.418 C 231.613 151.621 231.635 151.664 231.467 151.79 C 231.251 151.952 230.889 152.121 230.599 152.286 C 230.31 152.451 230.335 152.645 229.731 152.782 C 228.132 153.145 220.943 153.604 218.321 153.278 C 216.631 153.068 214.942 152.403 214.724 152.038 C 214.618 151.861 214.787 151.668 215.096 151.542 C 215.819 151.245 218.896 151.097 220.305 151.294 C 221.42 151.449 222.032 152.324 223.034 152.286 C 224.192 152.242 226.286 151.13 226.878 150.674 C 227.172 150.447 227.085 150.219 227.251 150.053 C 227.416 149.888 227.699 149.814 227.871 149.681 C 228.022 149.564 228.06 149.431 228.243 149.309 C 228.499 149.139 229.106 149.008 229.359 148.813 C 229.552 148.665 229.542 148.508 229.731 148.317 C 230.006 148.04 230.316 147.506 230.971 147.325 Z M 197.683 114.384 C 200.002 113.866 205.12 114.313 205.496 114.632 C 205.647 114.759 205.259 114.99 204.876 115.128 C 204.119 115.4 201.337 115.251 200.535 115.624 C 200.066 115.842 200.255 116.183 199.791 116.492 C 198.958 117.048 197.649 117.887 195.202 118.352 C 190.683 119.212 173.207 119.78 172.257 119.345 C 172.01 119.231 172.326 119.008 172.878 118.848 C 174.847 118.278 187.691 118.487 191.978 117.36 C 194.748 116.632 195.537 114.862 197.683 114.384 Z" style="fill-opacity: 1; fill-rule: nonzero; stroke-dasharray: none; stroke-dashoffset: 0px; stroke-linecap: butt; stroke-linejoin: miter; stroke-miterlimit: 4; stroke-opacity: 1; paint-order: normal; vector-effect: none; opacity: 1; mix-blend-mode: normal; isolation: auto; fill: rgb(207, 167, 151); stroke: rgb(207, 167, 151); stroke-width: 0px;" transform="matrix(0.9999999999999999, 0, 0, 0.9999999999999999, 0, -3.552713678800501e-15)"/>
</svg>