<?xml version="1.0" encoding="utf-8"?>
<svg viewBox="0 0 360 360" fill="none" shape-rendering="auto" xmlns="http://www.w3.org/2000/svg">
  <mask id="viewboxMask">
    <rect width="360" height="360" rx="0" ry="0" x="0" y="0" fill="#fff"/>
  </mask>
  <g mask="url(#viewboxMask)" transform="matrix(0.9999999999999999, 0, 0, 0.9999999999999999, 0, -3.552713678800501e-15)">
    <g transform="translate(80 23)">
      <path d="M154 319.5c-14.4-20-25.67-58.67-27-78L58.5 212 30 319.5h124Z" fill="#f9c9b6" stroke="#000" stroke-width="4"/>
      <path d="M130.37 263.69c-2.1.2-4.22.31-6.37.31-30.78 0-56.05-21.57-58.76-49.1L127 241.5c.38 5.48 1.55 13.32 3.37 22.19Z" fill="#000" style="mix-blend-mode:multiply"/>
      <path d="M181.94 151.37v.01l.1.4.14.65A75.72 75.72 0 0 1 34.93 187.7l-.2-.74L18 117.13l-.06-.29A75.72 75.72 0 0 1 165.2 81.55l.05.21.02.08.05.2.05.2v.01l16.4 68.44.08.34.08.34Z" fill="#f9c9b6" stroke="#000" stroke-width="4"/>
      <g transform="translate(34 102.3)"/>
    </g>
    <g transform="translate(170 183)">
      <path d="M10 24.16c4.94 6.45 12.43 13.6 23.98 11.96 11.55-1.62 16.68-9.6 15.17-16.04" stroke="#000000" stroke-width="4"/>
    </g>
    <g transform="translate(110 102)">
      <path d="M27 26.5c6.17 2.5 21.1 3 31.5-15M94 4c5.17 5.33 18.1 12.8 28.5 0M37.15 26.46 31 21.03M116.22 9.44l1.78-8M45.6 22.81l-4.05-7.13M108.14 9.02l.94-8.15M52.67 17.2l-2.2-7.9M100 8.03l-.78-8.16" stroke="#000000" stroke-width="4" stroke-linecap="round"/>
    </g>
    <g transform="translate(49 11)">
      <path d="m-13.4 312.86-.62-1.64c-.56-1.55-1.35-3.84-2.23-6.74a163.21 163.21 0 0 1-5.28-23.98c-2.81-19.77-2.8-45.8 8.4-71.12 1.8-4.09 4.07-8.3 6.52-12.85 9.47-17.6 21.77-40.46 21.77-82.45 0-30.59 14.84-56.35 36.7-74.51 21.88-18.18 50.7-28.66 78.38-28.66 15.13 0 27.3 1.73 37.07 7.64 9.72 5.87 17.37 16.05 23.05 33.58a3.47 3.47 0 0 0 4.36 2.27c11.31-3.67 28.47.04 42.95 9.5 14.42 9.4 25.62 24.15 25.62 41.91 0 15.43-2.64 25.85-5.22 36-3.12 12.3-6.13 24.16-4 43.5.7 6.45 2.15 11.03 4.16 14.82 1.98 3.73 4.48 6.62 7.12 9.66l.05.07c6.28 7.25 9.13 13.22 10.06 18.47.92 5.23-.05 9.98-1.84 14.9-.9 2.48-2 4.97-3.15 7.59l-.1.22c-1.12 2.53-2.3 5.19-3.35 7.98-2.18 5.77-3.89 12.2-3.72 19.83.15 6.48 1.3 10.91 3.01 14.27 1.7 3.32 3.89 5.44 5.8 7.3l.05.05c1.74 1.68 3.2 3.1 4.27 5.1.96 1.78 1.67 4.13 1.79 7.66a172.14 172.14 0 0 1-87.4 23.9 110.86 110.86 0 0 1-7.28-.28c-6.15-9.4-11.75-24.88-16.1-40.8-4.21-15.46-7.18-31.08-8.3-41.4 37.08-10.72 60.32-48.98 54.73-88.46l-.01-.12a5.97 5.97 0 0 0-.08-.47 76.68 76.68 0 0 0-.43-2.25 486.97 486.97 0 0 0-6.53-28.2 276.64 276.64 0 0 0-7.45-24.2c-2.76-7.5-5.83-14.15-9.1-18.24l-.3-.37-.44-.2c-1.93-.83-3.94-1.77-6.03-2.74-9.93-4.62-21.84-10.17-37.26-10.78-18.78-.74-42.56 5.78-74.7 29.09l-2.02 1.46 1.95 1.57c15.92 12.83 19.37 29.86 18.63 44.3a89.2 89.2 0 0 1-5.24 25.1c-1.16-1.69-1.9-3.82-2.45-6.33a85.19 85.19 0 0 1-.96-5.45l-.05-.3c-.3-2-.63-4.08-1.1-6.09-.96-4.01-2.57-8.02-6.14-10.86-3.58-2.84-8.8-4.25-16.4-3.83l-2.22.13.46 2.18 11.36 53.31.02.08.03.09a79.8 79.8 0 0 0 19.91 32.81 65.49 65.49 0 0 1 1.54 2.68c1.01 1.82 2.37 4.38 3.76 7.33 2.82 5.94 5.66 13.24 6.2 19.2.57 6.05-.96 13.86-2.7 20.31a129.63 129.63 0 0 1-2.84 9.14c-5.03-2.4-9.53-2.23-13.38.01-4.16 2.43-7.21 7.06-9.48 12.22-4.15 9.42-6.14 21.64-7.06 29.22A601.65 601.65 0 0 1 6.2 320.1 353.85 353.85 0 0 1-9 314.64a190.8 190.8 0 0 1-4.4-1.77Z" stroke="#000" stroke-width="3.82" style="fill: rgb(221, 205, 207);"/>
    </g>
    <g transform="translate(142 119)">
      <path d="M26.47 24.36c1.86 6.36-5.04 1.48-11.4 3.33-6.36 1.86-9.78 9.76-11.64 3.4a12 12 0 0 1 23.04-6.73ZM90.26 15.17c1.64 6.42-4.7 1.52-11.11 3.15-6.43 1.64-10.51 9.19-12.15 2.77a12 12 0 1 1 23.26-5.92Z" fill="#D2EFF3"/>
      <path d="M5.29 34.07c.11.82 1.14 1 1.72.41 2.46-2.52 6.25-4.36 10.65-4.89 2.6-.3 5.1-.12 7.32.48.75.2 1.5-.44 1.23-1.17A10.84 10.84 0 0 0 5.3 34.07ZM69.38 24.07c.12.82 1.15 1 1.73.41 2.44-2.48 6.19-4.3 10.54-4.83 2.56-.3 5.03-.12 7.23.47.75.2 1.5-.44 1.23-1.17a10.74 10.74 0 0 0-20.73 5.12Z" fill="#000000"/>
      <g transform="translate(-40 -8)"/>
    </g>
    <g transform="rotate(-8 1149.44 -1186.92)">
      <path d="M12.3 12.34c5.45-1.24 14.38.62 12.42 10.54-1.74 8.82-11.1 9.3-13.72 6.82" stroke="#000" stroke-width="4"/>
    </g>
    <g transform="translate(84 154)">
      <path d="M37 8.25V7.13l-.95-.59A24.91 24.91 0 0 0 23.08 3C17.44 3 12.16 4.75 8.4 8.3c-3.8 3.58-5.86 8.83-5.31 15.37.52 6.37 2.66 11.06 6.2 14.17-.29 1-.37 2.08-.24 3.21a8.98 8.98 0 0 0 4.6 7.08C16.09 49.5 19.2 50 22.52 50c5.48 0 10.29-2.95 13.95-6.89l.53-.57V8.25Z" stroke="#000" stroke-width="4"/>
      <path d="M42.97 23.98c.07-.65.1-1.3.1-1.98 0-10.22-9.5-17-20-17C12.6 5 4.09 11.5 5.09 23.5c.56 6.68 2.95 11.07 6.65 13.72a5.7 5.7 0 0 0-.68 3.6C11.68 46.1 16.19 48 22.52 48c11.1 0 19.9-14.05 20.45-24.02Z" fill="#f9c9b6"/>
      <path d="M27.5 13.5c-4-1.83-12.8-2.8-16 8" stroke="#000" stroke-width="4"/>
      <path d="M17 14c2.17 1.83 6.3 7.5 5.5 15.5" stroke="#000" stroke-width="4"/>
      <g transform="translate(3 42)">
        <path d="M24 0A24 24 0 1 1 0 24c0-6.4 3.5-11.5 6.57-16.5L7.5 6" stroke="#ac6651" stroke-width="4"/>
      </g>
    </g>
    <g transform="translate(53 272)">
      <g stroke="#000" stroke-width="4">
        <path d="M260.7 91H-12.64C3.67 61.66 26.86 42.98 64.44 34.4c16.02-3.65 34.67-5.47 56.56-5.47 9.46 0 16.81 1.44 23.8 3.35 2.58.7 5.18 1.5 7.84 2.3 4.4 1.34 8.97 2.72 13.91 3.86l.14.03.15.01c46.12 3.8 73.78 24.3 93.85 52.5Z" fill="#77311d"/>
        <path d="m52.93 36.58 9.15-19.6a1 1 0 0 1 1.25-.51c37.93 13.42 72.43 12.48 104.4 3.57a1 1 0 0 1 1.09.38l13.93 19.05a.98.98 0 0 1-.42 1.5c-33.6 13.2-96.67 10.95-128.91-3.07a.98.98 0 0 1-.49-1.32Z" fill="#77311d"/>
        <path opacity=".75" d="m52.93 36.58 9.15-19.6a1 1 0 0 1 1.25-.51c37.93 13.42 72.43 12.48 104.4 3.57a1 1 0 0 1 1.09.38l13.93 19.05a.98.98 0 0 1-.42 1.5c-33.6 13.2-96.67 10.95-128.91-3.07a.98.98 0 0 1-.49-1.32Z" fill="#fff"/>
      </g>
    </g>
  </g>
  <path opacity="0.8666666666666667" d="M 196.503 97.657 C 198.481 97.359 201.234 97.628 201.548 97.946 C 201.692 98.091 201.523 98.283 201.116 98.522 C 199.881 99.246 193.44 101.454 190.162 101.981 C 187.398 102.426 184.453 102.07 182.667 101.981 C 181.496 101.923 181.131 101.508 180.073 101.693 C 178.583 101.953 175.549 103.053 174.452 104.143 C 173.602 104.988 174.115 106.593 173.299 107.17 C 172.369 107.826 169.75 107.534 168.831 107.458 C 168.316 107.416 167.949 107.504 167.822 107.17 C 167.606 106.604 168.001 104.423 168.975 103.423 C 170.202 102.163 172.956 101.331 175.461 100.828 C 178.363 100.246 183.658 100.443 185.55 100.54 C 186.489 100.588 186.378 100.943 187.279 100.828 C 189.071 100.601 193.93 98.046 196.503 97.657 Z M 196.965 114.261 C 197.938 114.067 202.056 114.268 202.297 114.693 C 202.465 114.99 200.925 115.578 200.568 115.991 C 200.309 116.289 200.391 116.544 200.135 116.855 C 199.778 117.291 199.399 117.992 198.406 118.297 C 196.682 118.826 192.389 118.347 189.47 118.297 C 186.627 118.248 182.97 117.598 181.111 118.008 C 179.903 118.275 179.116 118.991 178.66 119.45 C 178.364 119.747 178.429 120.096 178.228 120.314 C 178.038 120.521 177.726 120.514 177.507 120.747 C 177.233 121.039 177.326 121.809 176.787 122.044 C 175.905 122.427 172.16 122.189 171.742 121.612 C 171.447 121.204 172.408 120.117 172.751 119.738 C 172.988 119.477 173.28 119.498 173.472 119.306 C 173.664 119.113 173.618 118.844 173.904 118.585 C 174.379 118.156 175.233 117.459 176.498 117.144 C 178.439 116.659 182.293 116.854 185.146 116.855 C 187.961 116.857 191.725 117.578 193.506 117.144 C 194.621 116.871 195.25 116.151 195.667 115.702 C 195.949 115.4 195.889 115.076 196.1 114.838 C 196.317 114.592 196.459 114.362 196.965 114.261 Z M 155.686 153.233 C 157.977 152.637 163.004 152.685 165.775 153.233 C 168.046 153.682 171.449 155.208 171.396 155.684 C 171.346 156.134 167.834 156.362 166.064 156.116 C 164.23 155.861 162.456 153.834 160.587 154.098 C 158.48 154.396 155.066 157.659 154.101 158.566 C 153.672 158.97 153.732 159.13 153.524 159.431 C 153.302 159.753 153.016 160.186 152.804 160.44 C 152.644 160.631 152.689 160.753 152.371 160.872 C 151.631 161.15 148.077 161.588 147.327 161.305 C 146.961 161.166 146.816 160.952 146.894 160.584 C 147.056 159.827 149.227 157.469 150.209 156.692 C 150.893 156.152 151.703 156.119 152.083 155.828 C 152.333 155.637 152.235 155.496 152.515 155.251 C 153.059 154.777 154.143 153.635 155.686 153.233 Z M 225.733 141.934 C 228.575 141.659 232.717 141.3 234.957 141.934 C 236.616 142.403 238.334 143.8 238.56 144.384 C 238.677 144.686 238.485 144.945 238.128 145.105 C 237.422 145.42 234.882 145.513 233.516 145.105 C 232.205 144.712 231.68 142.979 230.057 142.798 C 227.718 142.539 221.656 145.073 220.112 145.681 C 219.468 145.935 219.469 146.072 219.103 146.258 C 218.706 146.458 218.024 146.595 217.806 146.834 C 217.651 147.003 217.902 147.277 217.661 147.411 C 217.116 147.713 213.755 147.726 213.049 147.411 C 212.692 147.251 212.459 147.003 212.617 146.69 C 212.981 145.969 216.382 144.165 218.526 143.375 C 220.742 142.559 223.137 142.185 225.733 141.934 Z" style="fill-opacity: 1; fill-rule: nonzero; stroke-dasharray: none; stroke-dashoffset: 0px; stroke-linecap: butt; stroke-linejoin: miter; stroke-miterlimit: 4; stroke-opacity: 1; paint-order: normal; vector-effect: none; opacity: 1; mix-blend-mode: normal; isolation: auto; stroke: rgb(180, 145, 131); stroke-width: 0px; fill: rgb(170, 137, 124);" transform="matrix(0.9999999999999999, 0, 0, 0.9999999999999999, 0, -3.552713678800501e-15)"/>
</svg>