<?xml version="1.0" encoding="utf-8"?>
<svg viewBox="0 0 360 360" fill="none" shape-rendering="auto" xmlns="http://www.w3.org/2000/svg">
  <mask id="viewboxMask">
    <rect width="360" height="360" rx="0" ry="0" x="0" y="0" fill="#fff"/>
  </mask>
  <g mask="url(#viewboxMask)" transform="matrix(1, 0, 0, 1, 1.1368683772161603e-13, 0)">
    <g transform="translate(80 23)">
      <path d="M154 319.5c-14.4-20-25.67-58.67-27-78L58.5 212 30 319.5h124Z" stroke="#000" stroke-width="4" fill="#ac6651"/>
      <path d="M130.37 263.69c-2.1.2-4.22.31-6.37.31-30.78 0-56.05-21.57-58.76-49.1L127 241.5c.38 5.48 1.55 13.32 3.37 22.19Z" style="mix-blend-mode:multiply" fill="#000"/>
      <path d="M181.94 151.37v.01l.1.4.14.65A75.72 75.72 0 0 1 34.93 187.7l-.2-.74L18 117.13l-.06-.29A75.72 75.72 0 0 1 165.2 81.55l.05.21.02.08.05.2.05.2v.01l16.4 68.44.08.34.08.34Z" stroke="#000" stroke-width="4" fill="#ac6651"/>
      <g transform="translate(34 102.3)"/>
    </g>
    <g transform="translate(170 183)">
      <path d="M-.5 17.5c2.5 17 31 25 57 5.5" stroke="#000000" stroke-width="4"/>
    </g>
    <g transform="translate(110 102)">
      <path d="M27 26.5c6.17 2.5 21.1 3 31.5-15M94 4c5.17 5.33 18.1 12.8 28.5 0M37.15 26.46 31 21.03M116.22 9.44l1.78-8M45.6 22.81l-4.05-7.13M108.14 9.02l.94-8.15M52.67 17.2l-2.2-7.9M100 8.03l-.78-8.16" stroke="#000000" stroke-width="4" stroke-linecap="round"/>
    </g>
    <g transform="translate(49 11)">
      <path d="m-13.4 312.86-.62-1.64c-.56-1.55-1.35-3.84-2.23-6.74a163.21 163.21 0 0 1-5.28-23.98c-2.81-19.77-2.8-45.8 8.4-71.12 1.8-4.09 4.07-8.3 6.52-12.85 9.47-17.6 21.77-40.46 21.77-82.45 0-30.59 14.84-56.35 36.7-74.51 21.88-18.18 50.7-28.66 78.38-28.66 15.13 0 27.3 1.73 37.07 7.64 9.72 5.87 17.37 16.05 23.05 33.58a3.47 3.47 0 0 0 4.36 2.27c11.31-3.67 28.47.04 42.95 9.5 14.42 9.4 25.62 24.15 25.62 41.91 0 15.43-2.64 25.85-5.22 36-3.12 12.3-6.13 24.16-4 43.5.7 6.45 2.15 11.03 4.16 14.82 1.98 3.73 4.48 6.62 7.12 9.66l.05.07c6.28 7.25 9.13 13.22 10.06 18.47.92 5.23-.05 9.98-1.84 14.9-.9 2.48-2 4.97-3.15 7.59l-.1.22c-1.12 2.53-2.3 5.19-3.35 7.98-2.18 5.77-3.89 12.2-3.72 19.83.15 6.48 1.3 10.91 3.01 14.27 1.7 3.32 3.89 5.44 5.8 7.3l.05.05c1.74 1.68 3.2 3.1 4.27 5.1.96 1.78 1.67 4.13 1.79 7.66a172.14 172.14 0 0 1-87.4 23.9 110.86 110.86 0 0 1-7.28-.28c-6.15-9.4-11.75-24.88-16.1-40.8-4.21-15.46-7.18-31.08-8.3-41.4 37.08-10.72 60.32-48.98 54.73-88.46l-.01-.12a5.97 5.97 0 0 0-.08-.47 76.68 76.68 0 0 0-.43-2.25 486.97 486.97 0 0 0-6.53-28.2 276.64 276.64 0 0 0-7.45-24.2c-2.76-7.5-5.83-14.15-9.1-18.24l-.3-.37-.44-.2c-1.93-.83-3.94-1.77-6.03-2.74-9.93-4.62-21.84-10.17-37.26-10.78-18.78-.74-42.56 5.78-74.7 29.09l-2.02 1.46 1.95 1.57c15.92 12.83 19.37 29.86 18.63 44.3a89.2 89.2 0 0 1-5.24 25.1c-1.16-1.69-1.9-3.82-2.45-6.33a85.19 85.19 0 0 1-.96-5.45l-.05-.3c-.3-2-.63-4.08-1.1-6.09-.96-4.01-2.57-8.02-6.14-10.86-3.58-2.84-8.8-4.25-16.4-3.83l-2.22.13.46 2.18 11.36 53.31.02.08.03.09a79.8 79.8 0 0 0 19.91 32.81 65.49 65.49 0 0 1 1.54 2.68c1.01 1.82 2.37 4.38 3.76 7.33 2.82 5.94 5.66 13.24 6.2 19.2.57 6.05-.96 13.86-2.7 20.31a129.63 129.63 0 0 1-2.84 9.14c-5.03-2.4-9.53-2.23-13.38.01-4.16 2.43-7.21 7.06-9.48 12.22-4.15 9.42-6.14 21.64-7.06 29.22A601.65 601.65 0 0 1 6.2 320.1 353.85 353.85 0 0 1-9 314.64a190.8 190.8 0 0 1-4.4-1.77Z" stroke="#000" stroke-width="3.82" style="fill: rgb(207, 167, 151);"/>
    </g>
    <g transform="translate(142 119)">
      <circle cx="15.24" cy="20.24" r="12" transform="rotate(-6.28 15.24 20.24)" fill="#d2eff3"/>
      <ellipse cx="16.53" cy="29.4" rx="9" ry="13.5" transform="rotate(-6.78 16.53 29.4)" fill="#000000"/>
      <circle cx="79.02" cy="11.61" r="12" transform="rotate(-6.28 79.02 11.61)" fill="#d2eff3"/>
      <ellipse cx="80.53" cy="19.4" rx="9" ry="13.5" transform="rotate(-6.28 80.53 19.4)" fill="#000000"/>
      <g transform="translate(-40 -8)"/>
    </g>
    <g transform="rotate(-8 1149.44 -1186.92)">
      <path d="M12.3 12.34c5.45-1.24 14.38.62 12.42 10.54-1.74 8.82-11.1 9.3-13.72 6.82" stroke="#000" stroke-width="4"/>
    </g>
    <g transform="translate(84 154)">
      <path d="M30.5 6.18A23.78 23.78 0 0 0 23.08 5c-10.5 0-19 6.5-18 18.5 1.04 12.5 8.5 17 19 17A19.6 19.6 0 0 0 31 39.23" stroke="#000" stroke-width="8"/>
      <path d="M31.5 39.04a19.38 19.38 0 0 1-7.42 1.46c-10.5 0-17.96-4.5-19-17-1-12 7.5-18.5 18-18.5 3.14 0 6.19.6 8.92 1.73l-.5 32.3Z" fill="#ac6651"/>
      <path d="M27.5 13.5c-4-1.83-12.8-2.8-16 8" stroke="#000" stroke-width="4"/>
      <path d="M17 14c2.17 1.83 6.3 7.5 5.5 15.5" stroke="#000" stroke-width="4"/>
      <g transform="translate(3 35)"/>
    </g>
    <g transform="translate(53 272)">
      <g stroke="#000" stroke-width="4">
        <path d="M260.7 91H-12.64C3.67 61.66 26.86 42.98 64.44 34.4c16.02-3.65 34.67-5.47 56.56-5.47 9.46 0 16.81 1.44 23.8 3.35 2.58.7 5.18 1.5 7.84 2.3 4.4 1.34 8.97 2.72 13.91 3.86l.14.03.15.01c46.12 3.8 73.78 24.3 93.85 52.5Z" fill="#ffeba4"/>
        <path d="m52.93 36.58 9.15-19.6a1 1 0 0 1 1.25-.51c37.93 13.42 72.43 12.48 104.4 3.57a1 1 0 0 1 1.09.38l13.93 19.05a.98.98 0 0 1-.42 1.5c-33.6 13.2-96.67 10.95-128.91-3.07a.98.98 0 0 1-.49-1.32Z" fill="#ffeba4"/>
        <path opacity=".75" d="m52.93 36.58 9.15-19.6a1 1 0 0 1 1.25-.51c37.93 13.42 72.43 12.48 104.4 3.57a1 1 0 0 1 1.09.38l13.93 19.05a.98.98 0 0 1-.42 1.5c-33.6 13.2-96.67 10.95-128.91-3.07a.98.98 0 0 1-.49-1.32Z" fill="#fff"/>
      </g>
    </g>
  </g>
  <path stroke-width="0" opacity="0.9764705882352941" d="M 200.872 102.301 C 202.201 102.183 203.644 102.223 204.648 102.364 C 205.415 102.472 206.388 102.752 206.504 102.899 C 206.549 102.956 206.515 103.01 206.409 103.056 C 206.076 103.202 203.956 103.295 203.201 103.308 C 202.714 103.316 202.734 103.128 202.131 103.245 C 200.739 103.516 196.448 105.779 194.014 106.265 C 191.979 106.671 189.802 106.488 188.477 106.391 C 187.598 106.326 187.215 106.213 186.527 106.014 C 185.756 105.791 184.844 105.015 184.073 105.07 C 183.326 105.122 182.295 106.013 181.965 106.265 C 181.815 106.379 181.809 106.431 181.745 106.517 C 181.684 106.599 181.641 106.709 181.587 106.769 C 181.546 106.815 181.522 106.8 181.461 106.863 C 181.33 106.999 180.945 107.576 180.801 107.712 C 180.73 107.779 180.685 107.765 180.644 107.807 C 180.602 107.849 180.591 107.922 180.549 107.964 C 180.507 108.006 180.435 108.025 180.392 108.058 C 180.353 108.088 180.339 108.118 180.297 108.153 C 180.242 108.199 180.131 108.253 180.077 108.31 C 180.031 108.359 180.065 108.411 179.983 108.467 C 179.798 108.594 179.259 108.815 178.662 108.908 C 177.784 109.045 176.043 109.019 175.012 108.971 C 174.177 108.932 173.5 108.861 172.873 108.719 C 172.325 108.595 171.804 108.044 171.426 108.216 C 170.998 108.41 171.103 109.732 170.545 110.103 C 169.896 110.535 168.408 110.39 167.525 110.355 C 166.775 110.325 165.788 110.273 165.543 110.009 C 165.38 109.833 165.533 109.409 165.606 109.285 C 165.649 109.21 165.742 109.253 165.794 109.191 C 165.865 109.109 165.906 108.894 165.952 108.782 C 165.987 108.694 166.005 108.633 166.046 108.562 C 166.088 108.487 166.159 108.408 166.203 108.342 C 166.241 108.284 166.271 108.238 166.298 108.184 C 166.323 108.133 166.322 108.068 166.361 108.027 C 166.403 107.982 166.502 107.976 166.549 107.933 C 166.594 107.891 166.61 107.819 166.644 107.775 C 166.673 107.737 166.667 107.731 166.738 107.681 C 166.938 107.541 167.566 107.01 168.28 106.831 C 169.298 106.577 171.505 106.65 172.558 106.706 C 173.278 106.744 173.686 106.81 174.194 106.957 C 174.679 107.098 175.343 107.443 175.547 107.555 C 175.63 107.601 175.636 107.655 175.673 107.649 C 175.709 107.644 175.732 107.576 175.767 107.524 C 175.813 107.457 175.862 107.33 175.924 107.272 C 175.979 107.221 176.06 107.235 176.113 107.178 C 176.181 107.104 176.224 106.921 176.271 106.831 C 176.305 106.765 176.317 106.726 176.365 106.674 C 176.424 106.61 176.547 106.556 176.617 106.485 C 176.682 106.419 176.717 106.319 176.774 106.265 C 176.823 106.219 176.889 106.213 176.931 106.171 C 176.973 106.129 176.984 106.055 177.026 106.014 C 177.068 105.972 177.11 105.964 177.183 105.919 C 177.299 105.848 177.59 105.679 177.686 105.605 C 177.739 105.564 177.708 105.558 177.781 105.51 C 177.989 105.373 178.913 104.871 179.417 104.692 C 179.845 104.54 179.995 104.503 180.612 104.44 C 181.753 104.325 184.776 104.252 186.275 104.315 C 187.393 104.361 188.211 104.411 188.98 104.629 C 189.645 104.818 189.88 105.462 190.679 105.447 C 191.953 105.423 194.502 103.711 196.279 103.182 C 197.883 102.704 199.425 102.43 200.872 102.301 Z M 200.772 113.375 C 201.77 113.333 203.019 113.327 204.044 113.501 C 205.015 113.666 206.491 114.203 206.781 114.35 C 206.866 114.394 206.813 114.398 206.875 114.445 C 207.018 114.553 207.645 114.89 207.787 115.011 C 207.854 115.068 207.81 115.082 207.882 115.137 C 208.05 115.265 208.972 115.593 209.046 115.735 C 209.08 115.799 209.057 115.846 208.951 115.892 C 208.623 116.036 206.752 116.18 205.805 116.144 C 204.972 116.111 204.239 116.03 203.54 115.766 C 202.845 115.504 201.858 114.565 201.621 114.571 C 201.529 114.573 201.582 114.717 201.527 114.759 C 201.464 114.807 201.307 114.775 201.244 114.822 C 201.188 114.864 201.205 114.969 201.149 115.011 C 201.086 115.059 200.929 115.026 200.866 115.074 C 200.811 115.116 200.847 115.201 200.772 115.263 C 200.641 115.371 200.116 115.469 199.985 115.577 C 199.91 115.639 199.993 115.695 199.891 115.766 C 199.618 115.957 198.472 116.368 197.563 116.521 C 196.474 116.705 194.838 116.709 193.725 116.647 C 192.79 116.595 192.023 116.491 191.271 116.27 C 190.562 116.061 189.582 115.364 189.32 115.389 C 189.214 115.399 189.235 115.528 189.194 115.577 C 189.162 115.618 189.135 115.623 189.1 115.672 C 189.046 115.747 188.984 115.945 188.911 116.018 C 188.854 116.075 188.77 116.068 188.723 116.112 C 188.677 116.154 188.675 116.19 188.628 116.27 C 188.543 116.413 188.349 116.822 188.219 116.962 C 188.132 117.055 188.019 117.051 187.967 117.119 C 187.921 117.18 187.948 117.287 187.905 117.339 C 187.863 117.39 187.763 117.39 187.716 117.434 C 187.671 117.475 187.655 117.547 187.621 117.591 C 187.592 117.629 187.575 117.642 187.527 117.685 C 187.447 117.758 187.236 117.906 187.149 118 C 187.086 118.069 187.08 118.129 187.024 118.189 C 186.959 118.256 186.831 118.313 186.772 118.377 C 186.724 118.429 186.726 118.498 186.678 118.535 C 186.625 118.575 186.511 118.562 186.457 118.598 C 186.411 118.629 186.408 118.685 186.363 118.723 C 186.309 118.77 186.196 118.794 186.143 118.849 C 186.094 118.901 186.138 118.95 186.048 119.038 C 185.824 119.258 185.053 119.945 184.287 120.171 C 183.316 120.456 181.441 120.334 180.511 120.296 C 179.876 120.271 179.687 120.264 179.064 120.108 C 178.138 119.875 176.094 118.64 175.352 118.786 C 174.876 118.881 174.698 119.641 174.534 119.793 C 174.459 119.863 174.446 119.79 174.377 119.887 C 174.169 120.181 173.815 122.114 173.307 122.562 C 172.922 122.9 172.43 122.768 171.891 122.813 C 171.252 122.867 170.328 122.867 169.689 122.813 C 169.15 122.768 168.466 122.785 168.273 122.562 C 168.122 122.386 168.252 122.079 168.336 121.775 C 168.447 121.376 168.879 120.587 168.997 120.359 C 169.047 120.263 169.039 120.285 169.091 120.202 C 169.196 120.038 169.515 119.49 169.658 119.353 C 169.734 119.28 169.753 119.333 169.846 119.258 C 170.057 119.09 170.538 118.374 170.947 118.094 C 171.33 117.832 171.626 117.697 172.206 117.591 C 173.068 117.433 174.642 117.435 175.855 117.528 C 177.075 117.622 178.679 117.925 179.505 118.157 C 180.03 118.305 180.388 118.536 180.606 118.629 C 180.72 118.678 180.741 118.698 180.826 118.723 C 180.925 118.753 181.099 118.819 181.172 118.786 C 181.232 118.759 181.207 118.659 181.266 118.598 C 181.349 118.512 181.579 118.44 181.675 118.346 C 181.755 118.269 181.786 118.155 181.833 118.094 C 181.867 118.05 181.884 118.037 181.927 118 C 181.988 117.948 182.12 117.875 182.179 117.811 C 182.226 117.759 182.231 117.696 182.273 117.654 C 182.315 117.612 182.389 117.601 182.43 117.559 C 182.472 117.517 182.483 117.444 182.525 117.402 C 182.567 117.36 182.64 117.35 182.682 117.308 C 182.724 117.266 182.735 117.192 182.777 117.15 C 182.818 117.108 182.897 117.105 182.934 117.056 C 182.974 117.003 182.953 116.888 182.997 116.836 C 183.039 116.785 183.116 116.81 183.185 116.741 C 183.303 116.626 183.51 116.22 183.594 116.081 C 183.642 116.003 183.644 115.965 183.689 115.923 C 183.737 115.88 183.819 115.891 183.878 115.829 C 183.96 115.742 184.004 115.49 184.098 115.389 C 184.177 115.303 184.317 115.291 184.381 115.231 C 184.432 115.184 184.414 115.141 184.475 115.074 C 184.587 114.953 184.81 114.726 185.105 114.571 C 185.51 114.358 186.077 114.126 186.803 114.004 C 187.789 113.839 189.575 113.824 190.642 113.879 C 191.489 113.922 192.08 113.949 192.781 114.193 C 193.528 114.454 194.325 115.438 194.983 115.452 C 195.554 115.463 196.319 114.762 196.525 114.571 C 196.612 114.489 196.526 114.455 196.619 114.382 C 196.839 114.208 197.677 113.856 198.318 113.69 C 199.041 113.503 199.88 113.413 200.772 113.375 Z" style="fill-opacity: 1; fill-rule: nonzero; stroke-dasharray: none; stroke-dashoffset: 0px; stroke-linecap: butt; stroke-linejoin: miter; stroke-miterlimit: 4; stroke-opacity: 1; stroke-width: 3.82px; paint-order: normal; vector-effect: none; opacity: 1; mix-blend-mode: normal; isolation: auto; stroke: rgba(0, 0, 0, 0); fill: rgb(134, 80, 63);" transform="matrix(1, 0, 0, 1, 1.1368683772161603e-13, 0)"/>
</svg>