<?xml version="1.0" encoding="utf-8"?>
<svg viewBox="0 0 360 360" fill="none" shape-rendering="auto" xmlns="http://www.w3.org/2000/svg">
  <mask id="viewboxMask">
    <rect width="360" height="360" rx="0" ry="0" x="0" y="0" fill="#fff"/>
  </mask>
  <g mask="url(#viewboxMask)" transform="matrix(0.9999999999999999, 0, 0, 0.9999999999999999, -6.039613253960852e-14, -3.552713678800501e-15)">
    <g transform="translate(80 23)">
      <path d="M154 319.5c-14.4-20-25.67-58.67-27-78L58.5 212 30 319.5h124Z" fill="#f9c9b6" stroke="#000" stroke-width="4"/>
      <path d="M130.37 263.69c-2.1.2-4.22.31-6.37.31-30.78 0-56.05-21.57-58.76-49.1L127 241.5c.38 5.48 1.55 13.32 3.37 22.19Z" fill="#000" style="mix-blend-mode:multiply"/>
      <path d="M181.94 151.37v.01l.1.4.14.65A75.72 75.72 0 0 1 34.93 187.7l-.2-.74L18 117.13l-.06-.29A75.72 75.72 0 0 1 165.2 81.55l.05.21.02.08.05.2.05.2v.01l16.4 68.44.08.34.08.34Z" fill="#f9c9b6" stroke="#000" stroke-width="4"/>
      <g transform="translate(34 102.3)"/>
    </g>
    <g transform="translate(170 183)">
      <path d="M-.5 17.5c2.5 17 31 25 57 5.5" stroke="#000000" stroke-width="4"/>
    </g>
    <g transform="translate(110 102)">
      <path d="M27 26.5c6.17 2.5 21.1 3 31.5-15M94 4c5.17 5.33 18.1 12.8 28.5 0" stroke="#000000" stroke-width="4" stroke-linecap="round"/>
    </g>
    <g transform="translate(49 11)">
      <path d="m-13.4 312.86-.62-1.64c-.56-1.55-1.35-3.84-2.23-6.74a163.21 163.21 0 0 1-5.28-23.98c-2.81-19.77-2.8-45.8 8.4-71.12 1.8-4.09 4.07-8.3 6.52-12.85 9.47-17.6 21.77-40.46 21.77-82.45 0-30.59 14.84-56.35 36.7-74.51 21.88-18.18 50.7-28.66 78.38-28.66 15.13 0 27.3 1.73 37.07 7.64 9.72 5.87 17.37 16.05 23.05 33.58a3.47 3.47 0 0 0 4.36 2.27c11.31-3.67 28.47.04 42.95 9.5 14.42 9.4 25.62 24.15 25.62 41.91 0 15.43-2.64 25.85-5.22 36-3.12 12.3-6.13 24.16-4 43.5.7 6.45 2.15 11.03 4.16 14.82 1.98 3.73 4.48 6.62 7.12 9.66l.05.07c6.28 7.25 9.13 13.22 10.06 18.47.92 5.23-.05 9.98-1.84 14.9-.9 2.48-2 4.97-3.15 7.59l-.1.22c-1.12 2.53-2.3 5.19-3.35 7.98-2.18 5.77-3.89 12.2-3.72 19.83.15 6.48 1.3 10.91 3.01 14.27 1.7 3.32 3.89 5.44 5.8 7.3l.05.05c1.74 1.68 3.2 3.1 4.27 5.1.96 1.78 1.67 4.13 1.79 7.66a172.14 172.14 0 0 1-87.4 23.9 110.86 110.86 0 0 1-7.28-.28c-6.15-9.4-11.75-24.88-16.1-40.8-4.21-15.46-7.18-31.08-8.3-41.4 37.08-10.72 60.32-48.98 54.73-88.46l-.01-.12a5.97 5.97 0 0 0-.08-.47 76.68 76.68 0 0 0-.43-2.25 486.97 486.97 0 0 0-6.53-28.2 276.64 276.64 0 0 0-7.45-24.2c-2.76-7.5-5.83-14.15-9.1-18.24l-.3-.37-.44-.2c-1.93-.83-3.94-1.77-6.03-2.74-9.93-4.62-21.84-10.17-37.26-10.78-18.78-.74-42.56 5.78-74.7 29.09l-2.02 1.46 1.95 1.57c15.92 12.83 19.37 29.86 18.63 44.3a89.2 89.2 0 0 1-5.24 25.1c-1.16-1.69-1.9-3.82-2.45-6.33a85.19 85.19 0 0 1-.96-5.45l-.05-.3c-.3-2-.63-4.08-1.1-6.09-.96-4.01-2.57-8.02-6.14-10.86-3.58-2.84-8.8-4.25-16.4-3.83l-2.22.13.46 2.18 11.36 53.31.02.08.03.09a79.8 79.8 0 0 0 19.91 32.81 65.49 65.49 0 0 1 1.54 2.68c1.01 1.82 2.37 4.38 3.76 7.33 2.82 5.94 5.66 13.24 6.2 19.2.57 6.05-.96 13.86-2.7 20.31a129.63 129.63 0 0 1-2.84 9.14c-5.03-2.4-9.53-2.23-13.38.01-4.16 2.43-7.21 7.06-9.48 12.22-4.15 9.42-6.14 21.64-7.06 29.22A601.65 601.65 0 0 1 6.2 320.1 353.85 353.85 0 0 1-9 314.64a190.8 190.8 0 0 1-4.4-1.77Z" stroke="#000" stroke-width="3.82" style="fill: rgb(111, 86, 78);"/>
    </g>
    <g transform="translate(142 119)">
      <path d="M5.29 34.07c.11.82 1.14 1 1.72.41 2.46-2.52 6.25-4.36 10.65-4.89 2.6-.3 5.1-.12 7.32.48.75.2 1.5-.44 1.23-1.17A10.84 10.84 0 0 0 5.3 34.07ZM69.38 24.07c.12.82 1.15 1 1.73.41 2.44-2.48 6.19-4.3 10.54-4.83 2.56-.3 5.03-.12 7.23.47.75.2 1.5-.44 1.23-1.17a10.74 10.74 0 0 0-20.73 5.12Z" fill="#000000"/>
      <g transform="translate(-40 -8)"/>
    </g>
    <g transform="rotate(-8 1149.44 -1186.92)">
      <path d="M12.3 12.34c5.45-1.24 14.38.62 12.42 10.54-1.74 8.82-11.1 9.3-13.72 6.82" stroke="#000" stroke-width="4"/>
    </g>
    <g transform="translate(84 154)">
      <path d="M37 8.25V7.13l-.95-.59A24.91 24.91 0 0 0 23.08 3C17.44 3 12.16 4.75 8.4 8.3c-3.8 3.58-5.86 8.83-5.31 15.37.52 6.37 2.66 11.06 6.2 14.17-.29 1-.37 2.08-.24 3.21a8.98 8.98 0 0 0 4.6 7.08C16.09 49.5 19.2 50 22.52 50c5.48 0 10.29-2.95 13.95-6.89l.53-.57V8.25Z" stroke="#000" stroke-width="4"/>
      <path d="M42.97 23.98c.07-.65.1-1.3.1-1.98 0-10.22-9.5-17-20-17C12.6 5 4.09 11.5 5.09 23.5c.56 6.68 2.95 11.07 6.65 13.72a5.7 5.7 0 0 0-.68 3.6C11.68 46.1 16.19 48 22.52 48c11.1 0 19.9-14.05 20.45-24.02Z" fill="#f9c9b6"/>
      <path d="M27.5 13.5c-4-1.83-12.8-2.8-16 8" stroke="#000" stroke-width="4"/>
      <path d="M17 14c2.17 1.83 6.3 7.5 5.5 15.5" stroke="#000" stroke-width="4"/>
      <g transform="translate(3 42)"/>
    </g>
    <g transform="translate(53 272)">
      <g stroke="#000" stroke-width="4">
        <path d="M260.7 91H-12.64C3.67 61.66 26.86 42.98 64.44 34.4c16.02-3.65 34.67-5.47 56.56-5.47 9.46 0 16.81 1.44 23.8 3.35 2.58.7 5.18 1.5 7.84 2.3 4.4 1.34 8.97 2.72 13.91 3.86l.14.03.15.01c46.12 3.8 73.78 24.3 93.85 52.5Z" fill="#000000"/>
        <path d="m52.93 36.58 9.15-19.6a1 1 0 0 1 1.25-.51c37.93 13.42 72.43 12.48 104.4 3.57a1 1 0 0 1 1.09.38l13.93 19.05a.98.98 0 0 1-.42 1.5c-33.6 13.2-96.67 10.95-128.91-3.07a.98.98 0 0 1-.49-1.32Z" fill="#000000"/>
        <path opacity=".75" d="m52.93 36.58 9.15-19.6a1 1 0 0 1 1.25-.51c37.93 13.42 72.43 12.48 104.4 3.57a1 1 0 0 1 1.09.38l13.93 19.05a.98.98 0 0 1-.42 1.5c-33.6 13.2-96.67 10.95-128.91-3.07a.98.98 0 0 1-.49-1.32Z" fill="#fff"/>
      </g>
    </g>
  </g>
  <path opacity="0.9333333333333333" d="M 193.296 102.454 C 194.528 102.222 197.894 102.432 198.21 102.712 C 198.337 102.825 198.151 102.969 197.951 103.143 C 197.54 103.502 195.689 104.25 195.279 104.609 C 195.079 104.783 195.202 104.87 195.02 105.04 C 194.684 105.353 193.372 105.962 193.037 106.247 C 192.866 106.392 192.968 106.425 192.778 106.592 C 192.328 106.988 190.933 108.27 189.675 108.661 C 188.241 109.107 186.095 109.219 184.502 108.833 C 182.939 108.455 181.178 106.544 180.191 106.42 C 179.597 106.345 179.148 106.722 178.898 106.937 C 178.722 107.088 178.845 107.256 178.64 107.454 C 178.254 107.825 177.164 108.591 176.226 108.833 C 175.183 109.102 173.385 108.981 172.605 108.833 C 172.131 108.744 171.674 108.554 171.656 108.402 C 171.641 108.265 172.183 108.118 172.346 107.971 C 172.473 107.858 172.451 107.751 172.605 107.626 C 172.856 107.423 173.647 107.14 173.898 106.937 C 174.052 106.812 173.964 106.742 174.157 106.592 C 174.591 106.253 175.865 105.327 177.088 105.04 C 178.606 104.685 181.112 104.642 182.778 105.04 C 184.29 105.402 185.97 107.104 186.744 107.109 C 187.165 107.112 187.261 106.707 187.519 106.506 C 187.778 106.305 187.955 106.159 188.295 105.902 C 188.787 105.531 189.943 104.783 190.278 104.437 C 190.456 104.253 190.422 104.121 190.537 104.006 C 190.652 103.891 190.849 103.839 190.968 103.747 C 191.073 103.666 191.062 103.6 191.227 103.488 C 191.572 103.255 192.384 102.625 193.296 102.454 Z M 194.537 112.213 C 195.611 111.947 198.465 111.95 198.761 112.385 C 198.978 112.702 197.878 113.651 197.641 113.937 C 197.518 114.085 197.5 114.095 197.382 114.196 C 197.216 114.338 196.93 114.532 196.692 114.713 C 196.442 114.904 196.255 115.053 195.916 115.317 C 195.424 115.701 194.269 116.484 193.934 116.868 C 193.747 117.082 193.832 117.215 193.675 117.386 C 193.461 117.618 193.208 117.929 192.64 118.075 C 191.651 118.33 189.125 118.529 187.64 118.075 C 186.205 117.637 185.132 115.539 183.847 115.489 C 182.574 115.44 180.489 117.309 179.967 117.73 C 179.763 117.896 179.858 117.961 179.709 118.075 C 179.481 118.249 178.814 118.385 178.588 118.593 C 178.421 118.746 178.601 118.981 178.329 119.11 C 177.676 119.419 173.905 119.376 173.157 119.282 C 172.871 119.247 172.763 119.215 172.726 119.11 C 172.685 118.995 172.785 118.764 172.984 118.593 C 173.321 118.302 174.632 117.973 174.967 117.73 C 175.143 117.603 175.012 117.555 175.226 117.386 C 175.807 116.925 179.013 115.243 179.795 114.799 C 180.143 114.601 180.015 114.55 180.398 114.454 C 181.278 114.236 184.666 114.096 185.916 114.11 C 186.686 114.118 187.204 114.151 187.554 114.282 C 187.78 114.366 187.771 114.477 187.985 114.627 C 188.339 114.875 189.402 115.395 189.623 115.661 C 189.735 115.797 189.623 115.991 189.709 116.006 C 189.839 116.03 190.305 115.56 190.485 115.403 C 190.607 115.297 190.606 115.25 190.744 115.144 C 190.974 114.968 191.548 114.743 191.865 114.454 C 192.179 114.168 192.271 113.755 192.64 113.42 C 193.101 113.002 193.703 112.42 194.537 112.213 Z M 157.845 154.146 C 159.76 153.99 162.109 153.932 163.88 154.146 C 165.41 154.331 167.642 154.812 167.932 155.181 C 168.064 155.348 167.929 155.571 167.674 155.698 C 167.112 155.977 164.768 156.016 163.535 155.871 C 162.444 155.742 161.761 154.979 160.604 155.008 C 159.14 155.046 156.102 156.333 155.345 156.646 C 155.055 156.767 155.187 156.83 154.914 156.905 C 154.301 157.075 151.978 157.264 151.121 157.25 C 150.593 157.241 150.115 157.252 150 157.078 C 149.903 156.931 150.029 156.633 150.259 156.388 C 150.649 155.971 151.635 155.365 152.673 155.008 C 154.01 154.549 156.035 154.294 157.845 154.146 Z M 224.677 142.559 C 226.298 142.354 228.251 142.227 229.677 142.559 C 230.925 142.851 232.976 143.848 232.867 144.197 C 232.742 144.595 229.159 144.763 227.953 144.629 C 227.109 144.535 226.931 143.794 226.056 143.939 C 224.556 144.187 220.466 146.95 219.418 147.991 C 218.869 148.536 218.797 149.01 218.728 149.37 C 218.68 149.619 218.998 149.828 218.814 149.974 C 218.419 150.287 215.531 150.254 214.676 150.146 C 214.19 150.085 213.875 150.057 213.728 149.801 C 213.556 149.504 213.668 148.826 213.9 148.336 C 214.185 147.735 214.758 147.16 215.538 146.525 C 216.599 145.663 218.469 144.43 220.021 143.766 C 221.519 143.126 223.081 142.762 224.677 142.559 Z" style="fill-opacity: 1; fill-rule: nonzero; stroke-dasharray: none; stroke-dashoffset: 0px; stroke-linecap: butt; stroke-linejoin: miter; stroke-miterlimit: 4; stroke-opacity: 1; paint-order: normal; vector-effect: none; opacity: 1; mix-blend-mode: normal; isolation: auto; stroke: rgb(194, 160, 139); fill: rgb(154, 130, 107); stroke-width: 0px;" transform="matrix(0.9999999999999999, 0, 0, 0.9999999999999999, -6.039613253960852e-14, -3.552713678800501e-15)"/>
</svg>