<?xml version="1.0" encoding="utf-8"?>
<svg viewBox="0 0 360 360" fill="none" shape-rendering="auto" xmlns="http://www.w3.org/2000/svg">
  <mask id="viewboxMask">
    <rect width="360" height="360" rx="0" ry="0" x="0" y="0" fill="#fff"/>
  </mask>
  <g mask="url(#viewboxMask)" transform="matrix(0.9999999999999999, 0, 0, 0.9999999999999999, 0, 0)">
    <g transform="translate(80 23)">
      <path d="M154 319.5c-14.4-20-25.67-58.67-27-78L58.5 212 30 319.5h124Z" stroke="#000" stroke-width="4" fill="#77311d"/>
      <path d="M130.37 263.69c-2.1.2-4.22.31-6.37.31-30.78 0-56.05-21.57-58.76-49.1L127 241.5c.38 5.48 1.55 13.32 3.37 22.19Z" style="mix-blend-mode:multiply" fill="#000"/>
      <path d="M181.94 151.37v.01l.1.4.14.65A75.72 75.72 0 0 1 34.93 187.7l-.2-.74L18 117.13l-.06-.29A75.72 75.72 0 0 1 165.2 81.55l.05.21.02.08.05.2.05.2v.01l16.4 68.44.08.34.08.34Z" stroke="#000" stroke-width="4" fill="#77311d"/>
      <g transform="translate(34 102.3)"/>
    </g>
    <g transform="translate(170 183)">
      <path d="M-.5 17.5c2.5 17 31 25 57 5.5" stroke="#000000" stroke-width="4"/>
    </g>
    <g transform="translate(110 102)">
      <path d="M27 26.5c6.17 2.5 21.1 3 31.5-15M94 4c5.17 5.33 18.1 12.8 28.5 0M37.15 26.46 31 21.03M116.22 9.44l1.78-8M45.6 22.81l-4.05-7.13M108.14 9.02l.94-8.15M52.67 17.2l-2.2-7.9M100 8.03l-.78-8.16" stroke="#000000" stroke-width="4" stroke-linecap="round"/>
    </g>
    <g transform="translate(49 11)">
      <path stroke="rgb(255,0,0)" stroke-width="0" opacity="0.9411764705882353" d="M 155.711 105.495 C 157.892 105.324 160.447 105.144 162.899 105.495 C 165.496 105.867 169.647 107.405 170.877 107.795 C 171.369 107.951 171.363 107.977 171.668 108.083 C 172.038 108.211 172.319 108.514 172.961 108.514 C 174.075 108.514 177.608 107.541 178.208 107.22 C 178.412 107.112 178.209 107.027 178.424 106.933 C 178.858 106.741 180.714 106.451 182.384 106.261 C 182.761 106.154 183.33 106.037 183.887 106.041 C 184.047 106.042 184.256 106.056 184.49 106.078 C 184.583 106.074 184.67 106.071 184.749 106.07 C 185.701 106.056 186.669 106.157 186.833 106.358 C 186.86 106.391 186.871 106.431 186.867 106.474 C 186.942 106.501 186.982 106.525 186.977 106.544 C 186.972 106.564 186.914 106.587 186.815 106.61 C 186.772 106.676 186.704 106.739 186.618 106.789 C 186.17 107.045 183.901 107.031 183.383 107.22 C 183.147 107.306 183.292 107.386 183.024 107.508 C 182.284 107.842 179.37 108.775 177.418 109.089 C 175.399 109.413 172.767 109.409 171.093 109.376 C 169.845 109.352 169.418 109.387 168.074 109.089 C 165.975 108.623 161.557 106.487 159.305 106.214 C 157.732 106.023 156.354 106.375 155.567 106.645 C 155.08 106.812 154.873 107.094 154.633 107.292 C 154.446 107.446 154.333 107.568 154.202 107.723 C 154.07 107.879 153.973 108.104 153.842 108.226 C 153.731 108.331 153.579 108.346 153.483 108.442 C 153.387 108.538 153.377 108.708 153.267 108.801 C 153.146 108.906 152.914 108.941 152.764 109.017 C 152.63 109.085 152.591 109.106 152.405 109.233 C 152.029 109.488 150.775 110.378 150.464 110.67 C 150.319 110.807 150.33 110.839 150.249 110.958 C 150.144 111.111 150.105 111.34 149.889 111.533 C 149.571 111.818 148.58 112.135 148.308 112.395 C 148.147 112.549 148.286 112.664 148.092 112.826 C 147.682 113.172 146.372 113.884 145.217 114.12 C 143.825 114.404 142.146 114.355 140.186 114.12 C 137.713 113.824 133.568 111.98 131.417 112.108 C 129.914 112.197 128.572 113.247 128.039 113.545 C 127.807 113.675 127.828 113.744 127.68 113.833 C 127.504 113.938 127.177 113.986 127.033 114.12 C 126.909 114.236 126.983 114.409 126.817 114.551 C 126.536 114.794 125.443 115.068 125.164 115.27 C 125.017 115.376 125.088 115.442 124.948 115.558 C 124.685 115.775 123.768 116.157 123.439 116.42 C 123.215 116.599 123.162 116.801 123.008 116.923 C 122.872 117.031 122.691 117.01 122.576 117.139 C 122.438 117.295 122.404 117.7 122.289 117.858 C 122.204 117.974 122.097 117.973 122.001 118.073 C 121.882 118.198 121.773 118.454 121.642 118.576 C 121.53 118.681 121.411 118.646 121.283 118.792 C 121.067 119.038 120.782 119.764 120.564 120.158 C 120.381 120.489 120.442 120.818 120.061 121.02 C 119.403 121.369 117.035 121.393 116.179 121.308 C 115.656 121.256 115.218 121.246 115.101 120.948 C 114.949 120.559 115.648 119.192 115.892 118.864 C 116.017 118.696 116.155 118.744 116.251 118.648 C 116.347 118.553 116.329 118.474 116.467 118.289 C 116.755 117.902 117.688 116.674 118.192 116.276 C 118.537 116.004 118.938 116.018 119.126 115.845 C 119.265 115.717 119.176 115.557 119.342 115.414 C 119.623 115.172 120.662 114.888 120.995 114.695 C 121.188 114.584 121.206 114.497 121.354 114.408 C 121.53 114.302 121.825 114.226 122.001 114.12 C 122.149 114.031 122.199 113.945 122.361 113.833 C 122.589 113.674 123.067 113.417 123.295 113.258 C 123.456 113.145 123.407 113.104 123.654 112.97 C 124.279 112.634 126.287 111.574 127.967 111.245 C 129.935 110.86 132.554 110.828 134.867 111.101 C 137.249 111.383 140.715 113.013 142.055 112.97 C 142.732 112.949 143.049 112.602 143.277 112.395 C 143.427 112.258 143.376 112.06 143.492 111.964 C 143.612 111.865 143.873 111.902 143.995 111.82 C 144.101 111.75 144.066 111.669 144.211 111.533 C 144.522 111.24 145.839 110.44 146.152 110.095 C 146.316 109.914 146.251 109.76 146.367 109.664 C 146.487 109.565 146.748 109.602 146.87 109.52 C 146.976 109.45 146.957 109.353 147.086 109.233 C 147.314 109.02 148.041 108.643 148.308 108.37 C 148.502 108.171 148.56 107.933 148.667 107.795 C 148.746 107.695 148.765 107.684 148.883 107.579 C 149.104 107.383 149.768 106.859 150.033 106.645 C 150.199 106.511 150.125 106.457 150.392 106.358 C 151.108 106.093 153.768 105.647 155.711 105.495 Z M 72.553 192.546 C 73.415 191.939 77.406 191.934 78.155 192.546 C 78.656 192.956 78.176 193.508 78.155 194.6 C 78.113 196.753 77.314 202.257 77.781 205.804 C 78.23 209.214 78.967 212.233 80.769 215.514 C 82.889 219.374 87.9 224.915 90.479 227.278 C 92.112 228.774 92.979 228.295 94.587 229.892 C 97.238 232.525 102.958 242.138 104.483 243.71 C 104.991 244.233 105.159 244.07 105.417 244.27 C 105.645 244.446 105.651 244.568 105.977 244.83 C 106.619 245.346 109.708 246.75 109.525 247.257 C 109.316 247.838 104.758 248.024 103.55 247.818 C 102.855 247.699 102.609 247.426 102.243 247.071 C 101.853 246.693 101.683 245.923 101.309 245.577 C 100.983 245.275 100.438 245.283 100.189 245.017 C 99.96 244.772 100.061 244.366 99.815 244.083 C 99.507 243.728 98.68 243.429 98.321 243.149 C 98.061 242.946 98.03 242.919 97.761 242.589 C 97.221 241.925 95.673 239.656 95.147 238.855 C 94.85 238.403 94.855 238.342 94.587 237.921 C 94.165 237.259 93.301 235.662 92.719 235.12 C 92.328 234.756 91.922 234.877 91.599 234.56 C 91.216 234.183 90.934 233.345 90.665 232.879 C 90.452 232.508 90.356 232.308 90.105 231.946 C 89.778 231.472 89.218 230.646 88.798 230.265 C 88.477 229.974 88.176 229.892 87.865 229.705 C 87.553 229.518 87.276 229.346 86.931 229.145 C 86.539 228.915 85.99 228.753 85.624 228.398 C 85.234 228.02 84.97 227.262 84.69 226.904 C 84.487 226.644 84.39 226.547 84.13 226.344 C 83.772 226.064 83.041 225.815 82.636 225.41 C 82.232 225.006 81.967 224.348 81.703 223.916 C 81.484 223.56 81.344 223.327 81.142 222.983 C 80.913 222.59 80.78 222.146 80.395 221.676 C 79.886 221.052 78.707 220.237 78.155 219.622 C 77.727 219.145 77.482 218.711 77.221 218.315 C 76.998 217.975 76.917 217.887 76.661 217.381 C 76.17 216.413 74.932 213.687 74.42 212.339 C 74.045 211.351 73.907 210.822 73.673 209.912 C 73.404 208.863 73.314 206.853 72.926 206.364 C 72.718 206.101 72.365 206.554 72.179 206.177 C 71.629 205.065 72.015 196.797 72.179 194.6 C 72.262 193.493 71.972 192.955 72.553 192.546 Z M 210.358 194.152 C 209.81 197.884 208.936 202.411 208.117 203.675 C 207.758 204.231 207.299 203.927 206.997 204.235 C 206.658 204.581 206.539 205.129 206.25 205.729 C 205.88 206.496 205.401 207.988 204.943 208.53 C 204.641 208.887 204.427 208.48 204.009 209.09 C 202.649 211.077 198.724 224.582 196.54 228.51 C 195.251 230.829 193.643 232.075 192.992 232.805 C 192.694 233.139 192.737 233.11 192.432 233.365 C 191.882 233.826 190.864 235.04 189.631 235.419 C 188.1 235.89 184.734 235.664 183.656 235.419 C 183.111 235.295 182.646 235.02 182.722 234.859 C 182.837 234.615 185.036 234.589 185.71 234.299 C 186.174 234.099 186.332 233.877 186.644 233.552 C 187.016 233.163 187.384 232.408 187.764 232.058 C 188.071 231.775 188.449 231.747 188.698 231.498 C 188.947 231.249 189.058 230.822 189.258 230.564 C 189.434 230.336 189.579 230.46 189.818 230.004 C 190.506 228.69 192.386 220.687 193.179 219.36 C 193.473 218.868 193.673 219.151 193.926 218.8 C 194.351 218.209 194.883 216.337 195.233 215.626 C 195.454 215.176 195.641 215.045 195.793 214.692 C 195.959 214.306 195.954 213.703 196.167 213.385 C 196.35 213.111 196.617 213.22 196.914 212.825 C 197.522 212.016 198.695 208.742 199.341 207.783 C 199.704 207.245 200.058 207.278 200.275 206.85 C 200.535 206.334 200.34 205.229 200.648 204.796 C 200.9 204.442 201.491 204.533 201.769 204.235 C 202.061 203.922 202.115 203.252 202.329 202.928 C 202.498 202.672 202.675 202.803 202.889 202.368 C 203.45 201.223 204.726 197.056 205.13 193.779 C 205.603 189.931 204.785 182.914 205.13 180.521 C 205.297 179.357 205.498 178.975 205.877 178.467 C 206.012 178.286 206.145 178.123 206.299 177.984 C 206.191 177.711 206.213 177.39 206.399 177.234 C 206.924 176.797 210.771 176.797 211.441 177.234 C 211.789 177.461 211.904 178.041 211.674 178.309 C 212.682 181.045 210.994 189.82 210.358 194.152 Z" style="fill-opacity: 1; fill-rule: nonzero; stroke: rgb(0, 0, 0); stroke-dasharray: none; stroke-dashoffset: 0px; stroke-linecap: butt; stroke-linejoin: miter; stroke-miterlimit: 4; stroke-width: 3.82px; paint-order: normal; vector-effect: none; opacity: 1; mix-blend-mode: normal; isolation: auto; stroke-opacity: 0.06; fill: rgba(97, 40, 24, 0.933);"/>
      <g stroke="#000">
        <path d="m105.84 88.82 1.88.3v.08l-.04.16-.12.52c-.12.45-.3 1.09-.6 1.9a41.7 41.7 0 0 1-3.4 6.92c-3.17 5.32-8.7 12.66-18.31 21.6 29.97.74 55-8.92 72.82-19.04a156.35 156.35 0 0 0 21.71-14.87 118.43 118.43 0 0 0 7.5-6.7l.1-.1.01-.01 2.29-2.38.93 3.16-1.84.54 1.84-.54v.05l.05.13.15.52a817.06 817.06 0 0 1 2.69 9.28c1.75 6.14 4.14 14.58 6.66 23.77 5.03 18.35 10.6 39.81 12.7 51.97 3.49 20.32-1.91 35.74-5.1 44.87-.63 1.77-1.17 3.3-1.54 4.6.06.04.12.1.22.16.6.42 1.65.91 3.18 1.4 3.02.96 7.32 1.74 11.92 2.19 4.6.44 9.38.53 13.34.14 1.98-.2 3.7-.5 5.08-.92a6.85 6.85 0 0 0 2.58-1.27c.02-.08.03-.29-.02-.68-.1-.78-.4-1.87-.93-3.32-.8-2.15-1.97-4.8-3.35-7.88l-1.46-3.3c-3.93-8.94-8.65-20.56-9.68-32.4-1.15-13.16 1.45-24.42 3.79-34.54l.11-.48c2.39-10.34 4.38-19.32 2.34-28.42-3.1-13.8-7.32-25.3-13.8-33.57-6.42-8.17-15.13-13.27-27.5-14.21l-1.28-.1-.4-1.22c-5.7-17.57-13.38-29.05-23.18-36.17-9.8-7.12-21.96-10.05-36.94-10.05-27.7 0-57.5 10.52-79.88 28.72-22.35 18.18-37.14 43.9-35.2 74.33 2.13 33.6-.3 59.06-5.8 77.72-5 17-12.59 28.46-21.68 35.14 1.19.61 2.78 1.39 4.77 2.27 5.02 2.24 12.59 5.2 22.67 8.03 19.34 5.43 47.95 10.38 85.71 8.89-8.32-7.15-16.72-15.83-23.37-25-7.63-10.53-13.14-21.94-13.3-32.58-.19-12.62.67-45.67.93-52.5.62-15.9 10.82-28.15 20.54-36.3a96.6 96.6 0 0 1 18.96-12.34l.2-.1.13-.06.1-.05h.02v-.01l.8 1.74Zm0 0 1.88.3.56-3.5-3.23 1.46.79 1.74Zm100.23 126.57.03.04-.03-.04Z" stroke-width="3.82" style="fill: rgb(160, 121, 127);"/>
        <path d="M191 58c.5 4.5-.3 13.5-1.5 19.5" stroke-width="4" style="fill: rgb(160, 121, 127);"/>
      </g>
    </g>
    <g transform="translate(142 119)">
      <g fill="#000000">
        <ellipse cx="16.53" cy="29.4" rx="9" ry="13.5" transform="rotate(-6.78 16.53 29.4)"/>
        <ellipse cx="80.53" cy="19.4" rx="9" ry="13.5" transform="rotate(-6.28 80.53 19.4)"/>
      </g>
      <g transform="translate(-40 -8)">
        <g stroke="#d2eff3" stroke-width="4">
          <path d="M34.5 42.5 0 49.12" stroke-linecap="round"/>
          <path d="M35.47 18.53 74.2 13.1a6 6 0 0 1 6.77 5.1l5.57 39.62a6 6 0 0 1-5.1 6.78l-34.48 4.84a6 6 0 0 1-6.65-4.48l-9.81-39.01a6 6 0 0 1 4.98-7.4ZM145.92 3.22 107.2 8.66a6 6 0 0 0-5.1 6.78l5.56 39.6a6 6 0 0 0 6.78 5.11l34.47-4.84a6 6 0 0 0 5.16-6.14l-1.32-40.2a6 6 0 0 0-6.83-5.75ZM83.5 37.12l22-3.5"/>
        </g>
      </g>
    </g>
    <g transform="rotate(-8 1149.44 -1186.92)">
      <path d="M16.5 3c0 14 7 25 7 25S20 34 10 32" stroke="#000" stroke-width="4"/>
    </g>
    <g transform="translate(84 154)">
      <path d="M30.5 6.18A23.78 23.78 0 0 0 23.08 5c-10.5 0-19 6.5-18 18.5 1.04 12.5 8.5 17 19 17A19.6 19.6 0 0 0 31 39.23" stroke="#000" stroke-width="8"/>
      <path d="M31.5 39.04a19.38 19.38 0 0 1-7.42 1.46c-10.5 0-17.96-4.5-19-17-1-12 7.5-18.5 18-18.5 3.14 0 6.19.6 8.92 1.73l-.5 32.3Z" fill="#77311d"/>
      <path d="M27.5 13.5c-4-1.83-12.8-2.8-16 8" stroke="#000" stroke-width="4"/>
      <path d="M17 14c2.17 1.83 6.3 7.5 5.5 15.5" stroke="#000" stroke-width="4"/>
      <g transform="translate(3 35)"/>
    </g>
    <g transform="translate(53 272)">
      <g stroke="#000" stroke-width="4">
        <path d="M260.7 91H-12.64C3.67 61.66 26.86 42.98 64.44 34.4c16.02-3.65 34.67-5.47 56.56-5.47 9.46 0 16.81 1.44 23.8 3.35 2.58.7 5.18 1.5 7.84 2.3 4.4 1.34 8.97 2.72 13.91 3.86l.14.03.15.01c46.12 3.8 73.78 24.3 93.85 52.5Z" fill="#fc909f"/>
        <path d="m52.93 36.58 9.15-19.6a1 1 0 0 1 1.25-.51c37.93 13.42 72.43 12.48 104.4 3.57a1 1 0 0 1 1.09.38l13.93 19.05a.98.98 0 0 1-.42 1.5c-33.6 13.2-96.67 10.95-128.91-3.07a.98.98 0 0 1-.49-1.32Z" fill="#fc909f"/>
        <path opacity=".75" d="m52.93 36.58 9.15-19.6a1 1 0 0 1 1.25-.51c37.93 13.42 72.43 12.48 104.4 3.57a1 1 0 0 1 1.09.38l13.93 19.05a.98.98 0 0 1-.42 1.5c-33.6 13.2-96.67 10.95-128.91-3.07a.98.98 0 0 1-.49-1.32Z" fill="#fff"/>
      </g>
    </g>
  </g>
  <path stroke-width="0" opacity="0.9411764705882353" d="M 170.279 152.075 C 171.143 152.062 174.094 152.145 174.406 152.479 C 174.562 152.646 174.18 152.852 174.083 153.127 C 173.956 153.485 173.899 154.198 173.759 154.503 C 173.665 154.706 173.531 154.719 173.435 154.907 C 173.306 155.161 173.28 155.747 173.112 155.959 C 172.984 156.119 172.737 156.026 172.626 156.202 C 172.464 156.459 172.571 157.236 172.464 157.578 C 172.385 157.831 172.237 157.902 172.14 158.144 C 172.014 158.459 171.994 159.124 171.817 159.358 C 171.69 159.526 171.439 159.47 171.331 159.601 C 171.22 159.736 171.262 160.03 171.169 160.167 C 171.09 160.286 170.926 160.305 170.846 160.41 C 170.763 160.519 170.805 160.721 170.684 160.815 C 170.527 160.937 170.142 160.858 169.874 160.977 C 169.575 161.11 169.173 161.409 168.984 161.624 C 168.842 161.786 168.902 161.967 168.741 162.11 C 168.518 162.308 167.865 162.323 167.608 162.595 C 167.355 162.865 167.375 163.505 167.204 163.728 C 167.086 163.882 166.893 163.846 166.799 163.971 C 166.696 164.108 166.786 164.37 166.637 164.538 C 166.435 164.765 165.776 164.956 165.504 165.104 C 165.321 165.204 165.35 165.234 165.1 165.347 C 164.524 165.607 162.919 166.409 161.539 166.642 C 159.917 166.916 157.022 166.706 155.874 166.642 C 155.252 166.607 154.939 166.591 154.66 166.48 C 154.462 166.401 154.433 166.254 154.255 166.156 C 154.029 166.032 153.553 165.993 153.365 165.832 C 153.215 165.704 153.246 165.49 153.122 165.347 C 152.986 165.189 152.698 165.061 152.556 164.942 C 152.448 164.852 152.405 164.82 152.313 164.699 C 152.175 164.519 151.965 164.071 151.827 163.89 C 151.736 163.77 151.664 163.767 151.585 163.647 C 151.474 163.48 151.412 163.082 151.261 162.919 C 151.131 162.779 150.915 162.814 150.775 162.676 C 150.609 162.513 150.487 162.15 150.371 161.948 C 150.278 161.787 150.244 161.65 150.128 161.543 C 150.005 161.431 149.769 161.464 149.642 161.3 C 149.469 161.077 149.507 160.427 149.319 160.167 C 149.16 159.949 148.827 159.884 148.671 159.763 C 148.558 159.675 148.52 159.641 148.428 159.52 C 148.291 159.339 148.073 158.928 147.943 158.711 C 147.844 158.546 147.781 158.48 147.7 158.306 C 147.593 158.077 147.537 157.604 147.376 157.416 C 147.248 157.265 146.925 157.286 146.891 157.173 C 146.858 157.067 146.912 156.87 147.134 156.768 C 147.64 156.538 149.918 156.54 150.856 156.607 C 151.52 156.654 152.085 156.627 152.394 156.93 C 152.697 157.228 152.55 158.036 152.718 158.387 C 152.845 158.653 153.03 158.816 153.203 158.954 C 153.356 159.074 153.547 159.065 153.689 159.196 C 153.851 159.346 153.979 159.657 154.093 159.844 C 154.188 159.998 154.249 160.099 154.336 160.248 C 154.436 160.418 154.518 160.679 154.66 160.815 C 154.792 160.941 155.025 160.929 155.145 161.058 C 155.272 161.193 155.271 161.487 155.388 161.624 C 155.494 161.747 155.689 161.732 155.793 161.867 C 155.919 162.031 155.937 162.429 156.036 162.595 C 156.107 162.716 156.199 162.719 156.278 162.838 C 156.39 163.005 156.458 163.373 156.602 163.566 C 156.734 163.743 156.979 163.825 157.088 163.971 C 157.181 164.097 157.151 164.27 157.25 164.376 C 157.358 164.491 157.583 164.535 157.735 164.619 C 157.879 164.697 158.007 164.739 158.14 164.861 C 158.305 165.013 158.324 165.459 158.625 165.509 C 159.128 165.592 160.895 164.657 161.296 164.376 C 161.478 164.248 161.425 164.234 161.539 164.052 C 161.763 163.693 162.109 162.612 162.591 162.11 C 163.06 161.621 164.003 161.277 164.371 161.058 C 164.575 160.936 164.613 160.899 164.776 160.815 C 164.976 160.711 165.286 160.671 165.504 160.491 C 165.752 160.287 165.985 159.887 166.152 159.601 C 166.298 159.35 166.357 159.071 166.475 158.873 C 166.576 158.706 166.705 158.664 166.799 158.468 C 166.934 158.188 167.008 157.62 167.123 157.254 C 167.225 156.927 167.364 156.645 167.447 156.364 C 167.522 156.108 167.485 155.798 167.608 155.635 C 167.717 155.492 167.967 155.56 168.094 155.393 C 168.271 155.158 168.298 154.522 168.418 154.179 C 168.517 153.893 168.613 153.732 168.741 153.45 C 168.899 153.104 169.025 152.459 169.308 152.237 C 169.558 152.04 169.793 152.082 170.279 152.075 Z M 234.827 142.881 C 235.768 142.841 238.207 142.918 238.469 143.205 C 238.601 143.349 238.243 143.529 238.146 143.771 C 238.019 144.086 237.968 144.75 237.822 144.985 C 237.729 145.135 237.59 145.073 237.498 145.228 C 237.347 145.484 237.336 146.408 237.174 146.604 C 237.083 146.714 236.931 146.525 236.851 146.685 C 236.62 147.146 236.952 150.282 236.851 151.379 C 236.785 152.086 236.684 152.64 236.527 152.916 C 236.436 153.077 236.282 153.03 236.203 153.159 C 236.102 153.324 236.196 153.738 236.041 153.887 C 235.881 154.043 235.443 153.954 235.232 154.049 C 235.057 154.129 234.992 154.263 234.827 154.373 C 234.628 154.505 234.301 154.661 234.099 154.778 C 233.938 154.87 233.968 154.905 233.694 155.02 C 232.977 155.323 230.473 156.361 228.677 156.639 C 226.767 156.935 224.535 156.935 222.526 156.639 C 220.515 156.342 217.294 155.248 216.619 154.859 C 216.391 154.728 216.464 154.68 216.376 154.535 C 216.254 154.335 216.1 153.966 215.971 153.726 C 215.858 153.514 215.751 153.365 215.647 153.159 C 215.535 152.936 215.488 152.62 215.324 152.431 C 215.162 152.244 214.832 152.147 214.676 152.026 C 214.563 151.938 214.579 151.885 214.434 151.783 C 214.156 151.589 213.173 151.236 212.896 150.974 C 212.722 150.809 212.784 150.596 212.653 150.488 C 212.518 150.377 212.224 150.419 212.087 150.327 C 211.968 150.247 211.951 150.159 211.844 150.003 C 211.67 149.751 210.91 149.117 211.115 148.87 C 211.452 148.466 214.701 148.439 215.728 148.708 C 216.415 148.888 216.795 149.448 217.104 149.679 C 217.297 149.823 217.369 149.921 217.509 150.003 C 217.639 150.079 217.783 150.088 217.913 150.165 C 218.053 150.247 218.143 150.374 218.318 150.488 C 218.547 150.639 219.02 150.786 219.208 150.974 C 219.355 151.12 219.338 151.337 219.451 151.46 C 219.558 151.576 219.748 151.594 219.856 151.702 C 219.964 151.81 219.991 151.999 220.098 152.107 C 220.206 152.215 220.408 152.197 220.503 152.35 C 220.634 152.562 220.522 153.19 220.665 153.402 C 220.775 153.564 221.03 153.516 221.151 153.645 C 221.277 153.78 221.146 154.01 221.393 154.211 C 221.924 154.642 224.211 155.541 225.278 155.668 C 226.082 155.764 226.817 155.481 227.301 155.344 C 227.633 155.25 227.677 155.191 228.029 155.02 C 228.642 154.724 230.386 154.095 230.862 153.564 C 231.181 153.207 231.053 152.698 231.186 152.431 C 231.281 152.239 231.42 152.326 231.509 152.026 C 231.744 151.241 231.636 147.246 231.833 146.28 C 231.923 145.842 232.006 145.89 232.157 145.552 C 232.398 145.012 232.698 143.632 233.209 143.205 C 233.636 142.848 234.143 142.911 234.827 142.881 Z" style="fill-opacity: 1; fill-rule: nonzero; stroke-dasharray: none; stroke-dashoffset: 0px; stroke-linecap: butt; stroke-linejoin: miter; stroke-miterlimit: 4; stroke-opacity: 1; stroke-width: 3.82px; paint-order: normal; vector-effect: none; opacity: 1; mix-blend-mode: normal; isolation: auto; fill: rgba(97, 40, 24, 0.933); stroke: rgba(0, 0, 0, 0);" transform="matrix(0.9999999999999999, 0, 0, 0.9999999999999999, 0, 0)"/>
</svg>