<?xml version="1.0" encoding="utf-8"?>
<svg viewBox="0 0 360 360" fill="none" shape-rendering="auto" xmlns="http://www.w3.org/2000/svg">
  <mask id="viewboxMask">
    <rect width="360" height="360" rx="0" ry="0" x="0" y="0" fill="#fff"/>
  </mask>
  <g mask="url(#viewboxMask)" transform="matrix(1.0000000000000002, 0, 0, 1.0000000000000002, 5.684341886080802e-14, 1.4210854715202004e-14)">
    <g transform="translate(80 23)">
      <path d="M154 319.5c-14.4-20-25.67-58.67-27-78L58.5 212 30 319.5h124Z" stroke="#000" stroke-width="4" fill="#f9c9b6"/>
      <path d="M130.37 263.69c-2.1.2-4.22.31-6.37.31-30.78 0-56.05-21.57-58.76-49.1L127 241.5c.38 5.48 1.55 13.32 3.37 22.19Z" style="mix-blend-mode:multiply" fill="#000"/>
      <path d="M181.94 151.37v.01l.1.4.14.65A75.72 75.72 0 0 1 34.93 187.7l-.2-.74L18 117.13l-.06-.29A75.72 75.72 0 0 1 165.2 81.55l.05.21.02.08.05.2.05.2v.01l16.4 68.44.08.34.08.34Z" stroke="#000" stroke-width="4" fill="#f9c9b6"/>
      <g transform="translate(34 102.3)"/>
    </g>
    <g transform="translate(170 183)">
      <path d="M64.73 25.7a36 36 0 0 0 1.18-12.54 4.98 4.98 0 0 0-6.8-4.2c-4.26 1.67-18.03 6.88-27.62 8.2-10.52 1.44-26.66-.32-31.44-.91a4.98 4.98 0 0 0-5.53 5.74 36 36 0 0 0 70.21 3.7Z" fill="#000000"/>
      <path d="M51.83 39.55a32 32 0 0 1-37.2 4.62 21.5 21.5 0 0 1 37.2-4.62Z" fill="#FC909F"/>
    </g>
    <g transform="translate(110 102)">
      <path d="M99 10.21c5.67-2.66 19-5.1 27 6.5M23.58 35.52c2.07-5.9 9.68-17.12 23.56-14.7" stroke="#000000" stroke-width="4" stroke-linecap="round"/>
    </g>
    <g transform="translate(49 11)">
      <ellipse cx="147.85" cy="58.18" rx="6.86" ry="18.44" transform="rotate(117 147.85 58.18)" fill="#FCFDFF"/>
    </g>
    <g transform="translate(142 119)">
      <path d="M26.47 24.36c1.86 6.36-5.04 1.48-11.4 3.33-6.36 1.86-9.78 9.76-11.64 3.4a12 12 0 0 1 23.04-6.73ZM90.26 15.17c1.64 6.42-4.7 1.52-11.11 3.15-6.43 1.64-10.51 9.19-12.15 2.77a12 12 0 1 1 23.26-5.92Z" fill="#D2EFF3"/>
      <path d="M5.29 34.07c.11.82 1.14 1 1.72.41 2.46-2.52 6.25-4.36 10.65-4.89 2.6-.3 5.1-.12 7.32.48.75.2 1.5-.44 1.23-1.17A10.84 10.84 0 0 0 5.3 34.07ZM69.38 24.07c.12.82 1.15 1 1.73.41 2.44-2.48 6.19-4.3 10.54-4.83 2.56-.3 5.03-.12 7.23.47.75.2 1.5-.44 1.23-1.17a10.74 10.74 0 0 0-20.73 5.12Z" fill="#000000"/>
      <g transform="translate(-40 -8)"/>
    </g>
    <g transform="rotate(-8 1149.44 -1186.92)">
      <path d="M16.5 7c-.33 3.83 0 12.2 4 15 5 3.5-.5 12-10.5 10" stroke="#000" stroke-width="4"/>
    </g>
    <g transform="translate(84 154)">
      <path d="M30.5 6.18A23.78 23.78 0 0 0 23.08 5c-10.5 0-19 6.5-18 18.5 1.04 12.5 8.5 17 19 17A19.6 19.6 0 0 0 31 39.23" stroke="#000" stroke-width="8"/>
      <path d="M31.5 39.04a19.38 19.38 0 0 1-7.42 1.46c-10.5 0-17.96-4.5-19-17-1-12 7.5-18.5 18-18.5 3.14 0 6.19.6 8.92 1.73l-.5 32.3Z" fill="#f9c9b6"/>
      <path d="M27.5 13.5c-4-1.83-12.8-2.8-16 8" stroke="#000" stroke-width="4"/>
      <path d="M17 14c2.17 1.83 6.3 7.5 5.5 15.5" stroke="#000" stroke-width="4"/>
      <g transform="translate(3 35)">
        <path d="M24 0A24 24 0 1 1 0 24c0-6.4 3.5-11.5 6.57-16.5L7.5 6" stroke="#6bd9e9" stroke-width="4"/>
      </g>
    </g>
    <g transform="translate(53 272)">
      <g stroke="#000" stroke-width="4">
        <path d="M126.77 67.58 128 66l-1.23 1.58 1.72 1.34 1.19-1.83v-.02l.05-.06.04-.05a28.57 28.57 0 0 1 .8-1.18 112.35 112.35 0 0 1 11.5-14.05c3.67-3.78 7.83-7.4 12.13-9.93 4.31-2.53 8.58-3.84 12.53-3.3C209.17 44.2 240.4 63 260.67 91h-273.3c16.3-29.34 39.49-48.02 77.07-56.59 1.6-.36 3.78-.25 6.5.38 2.7.63 5.77 1.73 9.09 3.19 6.62 2.9 14.02 7.16 20.97 11.56a355.78 355.78 0 0 1 25.24 17.63l.4.3.1.08.02.02h.01Z" fill="#9287ff"/>
        <path d="m52.61 37.08 5.17-19.23c.2-.78 1.22-1 1.76-.4C74.4 33.7 93.16 33.08 99.4 32.33c.84-.1 1.5.82 1.1 1.58L87.34 58.86c-.2.38-.62.6-1.04.5-3.95-.82-23.62-5.63-33.57-21.5a1 1 0 0 1-.12-.78ZM183.2 36.98 171.61 17.5c-.4-.66-1.37-.65-1.79 0-5.73 8.83-15.63 12.9-19.09 14.1-.62.22-.9.96-.57 1.53l13.5 22.81c.2.34.59.53.97.42 2.13-.61 9.46-3.67 18.54-18.34a1 1 0 0 0 .01-1.04Z" fill="#9287ff"/>
        <path d="m52.61 37.08 5.17-19.23c.2-.78 1.22-1 1.76-.4C74.4 33.7 93.16 33.08 99.4 32.33c.84-.1 1.5.82 1.1 1.58L87.34 58.86c-.2.38-.62.6-1.04.5-3.95-.82-23.62-5.63-33.57-21.5a1 1 0 0 1-.12-.78ZM183.2 36.98 171.61 17.5c-.4-.66-1.37-.65-1.79 0-5.73 8.83-15.63 12.9-19.09 14.1-.62.22-.9.96-.57 1.53l13.5 22.81c.2.34.59.53.97.42 2.13-.61 9.46-3.67 18.54-18.34a1 1 0 0 0 .01-1.04Z" fill-opacity=".75" fill="#fff"/>
        <path d="m109.5 54.5-9-21.5-7 15 16 6.5ZM141 53.5l9-21.5 7 15-16 6.5ZM70.5 14l-12 3 10 6.5 2-9.5ZM160 14l11 3-7 6.5-4-9.5Z" stroke-linejoin="round" fill="#000"/>
      </g>
    </g>
  </g>
  <path stroke-width="0" opacity="0.9294117647058824" d="M 171.823 147.352 C 172.787 147.303 175.447 147.11 175.979 147.744 C 176.426 148.276 175.534 149.706 175.508 150.409 C 175.489 150.928 175.744 151.301 175.665 151.664 C 175.593 151.998 175.421 152.24 175.116 152.526 C 174.695 152.921 173.536 153.369 173.156 153.703 C 172.923 153.907 172.907 154.118 172.764 154.251 C 172.642 154.366 172.604 154.358 172.372 154.487 C 171.846 154.778 169.676 155.794 169.236 156.133 C 169.053 156.274 169.169 156.342 169 156.447 C 168.669 156.654 167.909 156.947 166.962 157.074 C 165.504 157.269 162.255 157.206 160.689 157.074 C 159.597 156.982 158.701 156.443 158.18 156.604 C 157.822 156.714 157.952 157.177 157.553 157.388 C 156.884 157.74 155.534 157.891 153.946 158.015 C 151.63 158.196 146.633 158.175 144.538 158.015 C 143.265 157.917 142.534 157.877 141.872 157.544 C 141.326 157.271 140.943 156.732 140.696 156.368 C 140.507 156.091 140.478 155.893 140.382 155.584 C 140.265 155.21 139.814 154.542 140.068 154.251 C 140.427 153.842 142.364 153.915 143.283 153.938 C 144.04 153.956 144.877 153.934 145.243 154.251 C 145.552 154.519 145.432 155.187 145.557 155.506 C 145.65 155.745 145.726 155.841 145.87 156.055 C 146.062 156.339 146.107 156.864 146.655 157.074 C 147.665 157.463 151.711 157.301 152.613 156.917 C 153.047 156.733 152.836 156.361 153.162 156.133 C 153.64 155.8 154.525 155.515 155.514 155.349 C 156.826 155.129 159.094 155.014 160.533 155.192 C 161.745 155.342 162.548 156.295 163.669 156.133 C 165 155.941 167.435 154.031 167.981 153.546 C 168.19 153.36 168.051 153.292 168.216 153.154 C 168.503 152.914 169.549 152.672 169.863 152.37 C 170.086 152.155 170.074 151.907 170.177 151.664 C 170.283 151.412 170.441 151.244 170.49 150.88 C 170.564 150.33 170.308 149.098 170.333 148.528 C 170.35 148.143 170.292 147.862 170.49 147.665 C 170.727 147.43 171.206 147.383 171.823 147.352 Z M 235.991 135.308 C 236.877 135.312 239.064 135.175 239.363 135.622 C 239.601 135.979 238.685 136.909 238.5 137.347 C 238.374 137.646 238.358 137.828 238.265 138.052 C 238.174 138.272 237.968 138.486 237.952 138.68 C 237.937 138.848 238.085 139.01 238.108 139.15 C 238.128 139.267 238.128 139.347 238.108 139.464 C 238.085 139.604 237.952 139.777 237.952 139.934 C 237.952 140.091 238.085 140.265 238.108 140.405 C 238.128 140.521 238.128 140.602 238.108 140.718 C 238.085 140.858 237.952 141.032 237.952 141.189 C 237.952 141.346 238.123 141.491 238.108 141.659 C 238.092 141.853 237.901 141.973 237.795 142.286 C 237.618 142.808 237.424 144.346 237.246 144.717 C 237.166 144.883 237.13 144.859 237.011 144.952 C 236.824 145.099 236.733 145.353 236.148 145.501 C 234.709 145.867 228.73 145.376 226.426 145.972 C 224.823 146.386 224.502 147.494 222.976 147.853 C 220.932 148.334 216.516 147.973 214.822 147.853 C 213.874 147.786 213.812 147.578 212.94 147.54 C 211.563 147.479 208.095 147.957 206.981 147.853 C 206.421 147.801 206.185 147.711 205.962 147.54 C 205.78 147.401 205.749 147.19 205.648 146.991 C 205.539 146.775 205.443 146.501 205.334 146.285 C 205.234 146.086 205.121 145.936 205.021 145.736 C 204.912 145.52 204.822 145.223 204.707 145.031 C 204.61 144.869 204.508 144.796 204.393 144.639 C 204.252 144.444 203.778 144.105 203.923 143.933 C 204.189 143.617 206.792 143.48 207.765 143.619 C 208.481 143.722 208.97 143.892 209.411 144.325 C 209.918 144.822 209.603 146.09 210.509 146.599 C 212.018 147.446 218 147.42 219.526 147.069 C 220.262 146.9 220.474 146.445 220.702 146.207 C 220.845 146.057 220.74 145.943 220.937 145.815 C 221.352 145.544 222.459 145.243 223.76 145.031 C 225.759 144.705 231.321 144.907 232.306 144.403 C 232.683 144.211 232.617 143.88 232.62 143.698 C 232.622 143.565 232.486 143.551 232.463 143.384 C 232.422 143.086 232.476 142.1 232.62 141.894 C 232.698 141.783 232.858 141.96 232.934 141.816 C 233.128 141.446 232.826 139.122 232.934 138.366 C 232.999 137.907 233.182 137.665 233.247 137.425 C 233.292 137.259 233.252 137.136 233.326 137.033 C 233.403 136.924 233.581 136.952 233.718 136.798 C 233.938 136.55 234.05 135.715 234.423 135.465 C 234.803 135.211 235.339 135.306 235.991 135.308 Z M 160.013 80.332 C 162.941 80.042 166.149 79.965 168.907 80.332 C 171.475 80.673 173.573 81.856 176.073 82.308 C 178.67 82.778 181.412 82.962 184.226 83.049 C 187.168 83.141 190.453 82.493 193.368 82.802 C 196.167 83.1 200.267 84.291 201.398 84.779 C 201.84 84.97 201.654 85.077 202.015 85.273 C 202.713 85.651 205.469 86.266 205.845 86.756 C 206.035 87.004 205.993 87.33 205.721 87.497 C 205.156 87.844 202.812 87.894 201.027 87.497 C 198.75 86.99 195.315 84.658 193.121 84.038 C 191.471 83.572 190.701 83.59 188.92 83.544 C 186.444 83.479 183.083 84.26 179.285 84.038 C 174.464 83.755 166.669 80.955 161.989 81.32 C 158.314 81.607 154.189 83.917 152.971 84.532 C 152.522 84.759 152.658 84.803 152.354 85.026 C 151.846 85.398 150.632 85.993 150.006 86.632 C 149.412 87.239 149.029 88.341 148.647 88.732 C 148.415 88.97 148.236 88.979 148.03 89.103 C 147.824 89.226 147.835 89.285 147.412 89.473 C 146.261 89.985 140.288 91.853 139.135 92.438 C 138.695 92.662 138.789 92.783 138.517 92.932 C 138.171 93.122 137.448 93.223 137.159 93.427 C 136.952 93.571 136.949 93.798 136.788 93.921 C 136.622 94.047 136.363 94.025 136.17 94.168 C 135.947 94.333 135.828 94.654 135.553 94.909 C 135.208 95.227 134.408 95.607 134.194 95.897 C 134.061 96.077 134.287 96.275 134.07 96.391 C 133.543 96.675 129.923 96.709 129.376 96.391 C 129.131 96.249 129.2 95.992 129.252 95.774 C 129.316 95.504 129.605 95.135 129.87 94.909 C 130.139 94.68 130.63 94.639 130.858 94.415 C 131.062 94.215 131.022 93.856 131.229 93.674 C 131.457 93.472 131.936 93.438 132.217 93.303 C 132.459 93.188 132.57 93.056 132.835 92.932 C 133.185 92.769 133.848 92.628 134.194 92.438 C 134.466 92.289 134.384 92.157 134.811 91.944 C 135.873 91.416 141.038 90.002 142.1 89.473 C 142.528 89.261 142.511 89.194 142.718 88.979 C 142.964 88.722 143.207 88.223 143.459 87.991 C 143.662 87.804 143.933 87.811 144.077 87.62 C 144.233 87.412 144.153 86.962 144.324 86.756 C 144.488 86.556 144.878 86.557 145.065 86.385 C 145.242 86.222 145.271 85.932 145.436 85.767 C 145.6 85.603 145.761 85.545 146.053 85.397 C 146.506 85.167 147.654 84.81 148.03 84.532 C 148.258 84.363 148.156 84.223 148.4 84.038 C 148.852 83.696 150.541 83.211 150.995 82.802 C 151.27 82.554 150.963 82.302 151.365 82.061 C 152.401 81.442 157.094 80.62 160.013 80.332 Z M 140.346 105.632 C 140.472 105.584 140.701 105.552 140.993 105.533 C 141.031 105.288 141.228 104.945 141.384 104.742 C 141.589 104.474 142.031 104.307 142.248 104.125 C 142.412 103.988 142.474 103.923 142.619 103.754 C 142.823 103.516 142.959 103.08 143.36 102.766 C 143.922 102.325 145.501 101.939 145.954 101.531 C 146.23 101.282 146.049 101.038 146.325 100.789 C 146.778 100.381 148.466 99.962 148.919 99.554 C 149.195 99.306 148.822 99.019 149.29 98.813 C 150.772 98.158 162.337 98.334 164.114 98.072 C 164.661 97.991 164.407 97.996 164.855 97.824 C 165.979 97.395 169.827 95.419 172.021 94.86 C 173.892 94.383 175.038 94.461 177.209 94.365 C 180.174 94.236 184.504 94.084 188.574 94.365 C 193.087 94.678 198.717 95.408 203.152 96.342 C 207.164 97.187 213.316 98.735 214.147 99.554 C 214.227 99.633 214.274 99.715 214.293 99.794 C 214.588 99.844 214.788 99.897 214.838 99.949 C 214.958 100.074 214.594 100.321 214.221 100.443 C 213.51 100.677 211.072 100.757 210.267 100.69 C 209.823 100.654 209.48 100.614 209.403 100.443 C 209.387 100.407 209.378 100.359 209.379 100.303 C 209.362 100.3 209.346 100.298 209.329 100.295 C 206.61 99.849 203.023 97.915 198.952 97.083 C 194.007 96.073 186.274 94.881 181.409 95.107 C 177.532 95.286 172.737 96.769 171.65 97.33 C 171.293 97.514 171.497 97.682 171.279 97.824 C 170.954 98.038 170.061 98.121 169.673 98.319 C 169.387 98.465 169.55 98.682 169.056 98.813 C 167.582 99.201 159.801 98.723 156.949 99.06 C 155.083 99.28 153.596 99.645 152.872 100.048 C 152.47 100.272 152.637 100.477 152.255 100.789 C 151.53 101.38 149.16 102.424 148.178 103.26 C 147.414 103.911 147.064 104.828 146.572 105.237 C 146.22 105.529 146.068 105.61 145.584 105.731 C 145.403 105.776 145.16 105.816 144.884 105.85 C 145.021 105.897 145.118 105.948 145.164 106.003 C 145.382 106.263 144.734 106.858 144.546 107.114 C 144.414 107.294 144.363 107.26 144.175 107.485 C 143.772 107.967 143.111 109.874 142.075 110.326 C 140.901 110.839 137.741 110.463 137.257 109.956 C 136.962 109.646 137.469 108.889 137.628 108.597 C 137.735 108.4 137.898 108.38 137.999 108.226 C 138.109 108.057 138.095 107.77 138.246 107.609 C 138.411 107.432 138.8 107.41 138.987 107.238 C 139.164 107.075 139.193 106.785 139.358 106.62 C 139.522 106.456 139.811 106.414 139.975 106.25 C 140.14 106.085 140.023 105.754 140.346 105.632 Z M 124.327 220.133 C 125.186 220.033 127.737 219.874 128.805 220.465 C 129.739 220.982 130.217 222.609 130.629 223.118 C 130.853 223.395 130.876 223.441 131.126 223.616 C 131.496 223.873 132.42 224.152 132.785 224.445 C 133.049 224.657 133.036 224.863 133.282 225.108 C 133.625 225.449 134.413 225.81 134.775 226.269 C 135.117 226.703 135.064 227.404 135.438 227.762 C 135.827 228.133 136.663 228.02 137.097 228.425 C 137.571 228.869 137.762 230.001 138.092 230.416 C 138.314 230.695 138.464 230.633 138.755 230.913 C 139.262 231.399 140.359 232.918 140.911 233.401 C 141.25 233.697 141.519 233.677 141.741 233.898 C 141.962 234.119 142.017 234.506 142.238 234.728 C 142.459 234.949 142.776 234.876 143.067 235.225 C 143.574 235.832 144.178 238.099 144.726 238.708 C 145.059 239.078 145.409 239.035 145.721 239.205 C 146.015 239.367 146.168 239.44 146.55 239.703 C 147.192 240.146 148.839 241.404 149.37 241.859 C 149.647 242.097 149.622 242.194 149.867 242.356 C 150.21 242.584 151.021 242.76 151.36 243.02 C 151.618 243.218 151.641 243.518 151.857 243.683 C 152.08 243.853 152.421 243.79 152.686 244.015 C 153.037 244.312 153.455 245.085 153.682 245.508 C 153.853 245.827 153.64 245.958 154.013 246.337 C 154.976 247.314 158.675 249.814 162.14 251.312 C 166.588 253.235 178.166 255.293 179.222 256.288 C 179.509 256.558 179.351 256.793 179.056 256.951 C 178.323 257.342 175.212 257.426 172.422 256.951 C 168.418 256.27 160.843 253.797 156.833 251.976 C 153.758 250.579 150.683 248.402 149.701 247.498 C 149.288 247.117 149.425 246.89 149.204 246.668 C 148.983 246.447 148.688 246.421 148.374 246.171 C 147.946 245.83 147.316 244.976 146.882 244.678 C 146.574 244.467 146.275 244.517 146.053 244.347 C 145.836 244.182 145.921 244.014 145.555 243.683 C 144.673 242.885 140.475 240.594 139.419 239.371 C 138.777 238.629 138.838 237.881 138.59 237.381 C 138.409 237.018 138.29 236.854 138.092 236.552 C 137.86 236.199 137.507 235.683 137.263 235.391 C 137.079 235.171 136.996 235.074 136.765 234.893 C 136.447 234.645 135.746 234.396 135.438 234.064 C 135.17 233.775 135.172 233.32 134.941 233.069 C 134.723 232.831 134.345 232.844 134.112 232.572 C 133.824 232.236 133.708 231.418 133.448 231.079 C 133.25 230.821 133.059 230.768 132.785 230.581 C 132.431 230.34 131.817 230.111 131.458 229.752 C 131.099 229.393 130.864 228.809 130.629 228.425 C 130.435 228.109 130.387 227.851 130.131 227.596 C 129.821 227.288 129.118 227.048 128.805 226.767 C 128.561 226.549 128.523 226.269 128.307 226.104 C 128.084 225.933 127.701 225.942 127.478 225.772 C 127.261 225.607 127.197 225.274 126.98 225.108 C 126.757 224.938 126.368 224.98 126.151 224.777 C 125.914 224.555 125.884 224.033 125.654 223.782 C 125.435 223.544 125.082 223.526 124.824 223.284 C 124.523 223.001 124.212 222.57 123.995 222.123 C 123.76 221.64 123.366 220.786 123.498 220.465 C 123.599 220.218 123.876 220.186 124.327 220.133 Z M 252.227 180.33 C 253.193 180.254 255.698 179.387 256.705 180.662 C 258.385 182.787 257.917 193.19 257.7 196.749 C 257.569 198.901 257.056 200.267 256.705 201.227 C 256.491 201.813 256.303 201.542 256.042 202.388 C 255.28 204.851 253.526 219.272 252.725 221.46 C 252.474 222.145 252.226 221.968 252.061 222.289 C 251.888 222.627 251.958 223.173 251.73 223.45 C 251.509 223.718 251.069 223.62 250.735 223.948 C 250.244 224.428 249.594 225.849 249.242 226.435 C 249.016 226.813 248.944 226.915 248.745 227.264 C 248.474 227.739 248.134 228.703 247.749 229.089 C 247.45 229.389 247.047 229.333 246.754 229.586 C 246.431 229.866 246.169 230.455 245.925 230.747 C 245.741 230.967 245.619 231.007 245.428 231.245 C 245.15 231.59 244.821 232.294 244.433 232.737 C 244.047 233.178 243.492 233.458 243.106 233.898 C 242.717 234.342 242.425 235.05 242.111 235.391 C 241.88 235.641 241.662 235.634 241.447 235.888 C 241.16 236.228 240.871 237.037 240.618 237.381 C 240.441 237.622 240.351 237.598 240.121 237.879 C 239.686 238.409 238.746 240.004 238.13 240.698 C 237.66 241.229 237.218 241.363 236.804 241.859 C 236.324 242.432 235.86 243.576 235.477 244.015 C 235.232 244.295 235.088 244.325 234.813 244.512 C 234.46 244.754 233.794 245.01 233.487 245.342 C 233.218 245.631 233.226 246.115 232.989 246.337 C 232.772 246.54 232.448 246.432 232.16 246.668 C 231.742 247.012 231.356 248.045 230.833 248.493 C 230.349 248.906 229.612 249.046 229.175 249.322 C 228.825 249.543 228.861 249.801 228.345 249.985 C 227.314 250.354 223.155 250.938 222.375 250.649 C 222.037 250.523 221.948 250.179 222.043 249.985 C 222.179 249.71 223.153 249.649 223.702 249.322 C 224.315 248.957 225.128 248.186 225.526 247.829 C 225.772 247.61 225.843 247.563 226.024 247.332 C 226.272 247.014 226.479 246.28 226.853 246.005 C 227.207 245.744 227.874 245.914 228.18 245.673 C 228.461 245.452 228.476 245.035 228.677 244.678 C 228.907 244.269 229.175 243.659 229.506 243.352 C 229.796 243.083 230.28 243.122 230.501 242.854 C 230.73 242.577 230.644 241.976 230.833 241.693 C 230.996 241.45 231.293 241.431 231.497 241.196 C 231.743 240.911 231.868 240.314 232.16 240.035 C 232.431 239.775 232.868 239.819 233.155 239.537 C 233.495 239.203 233.669 238.381 233.984 238.044 C 234.236 237.776 234.592 237.768 234.813 237.547 C 235.035 237.326 235.131 237.08 235.311 236.718 C 235.56 236.218 235.743 235.205 236.14 234.728 C 236.489 234.307 237.161 234.25 237.467 233.898 C 237.748 233.575 237.724 233.018 237.965 232.737 C 238.181 232.485 238.573 232.461 238.794 232.24 C 239.015 232.019 239.07 231.632 239.291 231.411 C 239.512 231.189 239.839 231.227 240.121 230.913 C 240.552 230.432 240.982 228.906 241.447 228.425 C 241.768 228.094 242.221 228.196 242.442 227.928 C 242.671 227.65 242.585 227.049 242.774 226.767 C 242.937 226.524 243.239 226.528 243.437 226.269 C 243.698 225.931 243.764 225.165 244.101 224.777 C 244.432 224.395 245.118 224.256 245.428 223.948 C 245.683 223.693 245.749 223.499 245.925 223.118 C 246.181 222.565 246.438 221.256 246.754 220.796 C 246.959 220.499 247.232 220.638 247.418 220.299 C 247.751 219.692 247.826 217.76 248.081 216.816 C 248.281 216.074 248.559 215.95 248.745 214.992 C 249.085 213.237 249.099 208.155 249.408 206.202 C 249.596 205.008 249.859 204.606 250.071 203.714 C 250.303 202.739 250.413 201.13 250.735 200.563 C 250.922 200.234 251.213 200.562 251.398 200.066 C 251.977 198.509 252.413 187.7 252.061 185.637 C 251.926 184.841 251.56 185.041 251.398 184.476 C 251.151 183.616 250.732 181.261 251.066 180.662 C 251.277 180.284 251.656 180.375 252.227 180.33 Z" style="fill-opacity: 1; fill-rule: nonzero; stroke-dasharray: none; stroke-dashoffset: 0px; stroke-linecap: butt; stroke-linejoin: miter; stroke-miterlimit: 4; stroke-opacity: 1; stroke-width: 3.82px; paint-order: normal; vector-effect: none; opacity: 1; mix-blend-mode: normal; isolation: auto; stroke: rgba(0, 0, 0, 0); fill: rgba(225, 182, 165, 0.61);" transform="matrix(1.0000000000000002, 0, 0, 1.0000000000000002, 5.684341886080802e-14, 1.4210854715202004e-14)"/>
</svg>