<?xml version="1.0" encoding="utf-8"?>
<svg viewBox="0 0 360 360" fill="none" shape-rendering="auto" xmlns="http://www.w3.org/2000/svg">
  <mask id="viewboxMask">
    <rect width="360" height="360" rx="0" ry="0" x="0" y="0" fill="#fff"/>
  </mask>
  <g mask="url(#viewboxMask)" transform="matrix(0.9999999999999999, 0, 0, 0.9999999999999999, 0, 0)">
    <g transform="translate(80 23)">
      <path d="M154 319.5c-14.4-20-25.67-58.67-27-78L58.5 212 30 319.5h124Z" fill="#ac6651" stroke="#000" stroke-width="4"/>
      <path d="M130.37 263.69c-2.1.2-4.22.31-6.37.31-30.78 0-56.05-21.57-58.76-49.1L127 241.5c.38 5.48 1.55 13.32 3.37 22.19Z" fill="#000" style="mix-blend-mode:multiply"/>
      <path d="M181.94 151.37v.01l.1.4.14.65A75.72 75.72 0 0 1 34.93 187.7l-.2-.74L18 117.13l-.06-.29A75.72 75.72 0 0 1 165.2 81.55l.05.21.02.08.05.2.05.2v.01l16.4 68.44.08.34.08.34Z" stroke="#000" stroke-width="4" fill="#ac6651"/>
      <g transform="translate(34 102.3)"/>
    </g>
    <path stroke-width="0" opacity="0.9372549019607843" d="M 213.619 118.783 C 215.338 118.521 217.532 118.874 217.774 119.097 C 217.868 119.183 217.685 119.333 217.539 119.41 C 217.311 119.53 216.591 119.447 216.363 119.567 C 216.217 119.644 216.266 119.79 216.128 119.881 C 215.921 120.016 215.354 120.069 215.108 120.194 C 214.926 120.287 215.013 120.361 214.716 120.508 C 213.858 120.934 210.422 122.453 207.973 122.86 C 205.333 123.299 201.104 123.044 199.349 122.86 C 198.382 122.759 198.071 122.409 197.467 122.39 C 196.897 122.372 196.161 122.559 195.82 122.703 C 195.61 122.793 195.601 122.922 195.428 123.017 C 195.209 123.137 194.785 123.21 194.566 123.331 C 194.393 123.425 194.346 123.549 194.174 123.644 C 193.954 123.765 193.531 123.837 193.311 123.958 C 193.139 124.052 193.041 124.132 192.919 124.271 C 192.777 124.434 192.684 124.753 192.527 124.899 C 192.39 125.026 192.195 125.014 192.057 125.134 C 191.904 125.266 191.883 125.5 191.665 125.683 C 191.35 125.946 190.496 126.262 190.175 126.467 C 189.978 126.593 189.983 126.641 189.783 126.78 C 189.439 127.019 188.483 127.588 188.136 127.8 C 187.942 127.919 187.941 127.913 187.744 128.035 C 187.387 128.257 186.872 128.912 186.019 129.133 C 184.725 129.467 182.132 129.437 180.217 129.133 C 178.264 128.822 176.487 127.161 174.415 127.251 C 172.104 127.351 167.88 129.746 166.967 130.23 C 166.665 130.39 166.722 130.444 166.575 130.544 C 166.412 130.654 166.158 130.72 166.026 130.858 C 165.903 130.986 166.037 131.198 165.791 131.328 C 165.197 131.641 161.928 131.823 161.086 131.798 C 160.689 131.787 160.465 131.79 160.38 131.642 C 160.292 131.486 160.427 131.079 160.616 130.858 C 160.845 130.589 161.564 130.45 161.792 130.23 C 161.948 130.079 161.756 129.967 162.027 129.76 C 162.853 129.129 167.147 127.041 169.868 126.467 C 172.584 125.893 176.019 126.038 178.336 126.31 C 180.169 126.525 181.563 127.71 182.883 127.565 C 184.057 127.435 185.502 126.251 185.941 125.84 C 186.147 125.647 186.038 125.474 186.176 125.369 C 186.334 125.25 186.656 125.375 186.882 125.212 C 187.186 124.994 187.163 124.386 187.744 123.958 C 188.768 123.204 191.408 122.037 193.547 121.606 C 195.867 121.138 199.301 121.296 201.23 121.449 C 202.589 121.556 202.961 122.221 204.367 122.076 C 206.568 121.848 211.197 119.152 213.619 118.783 Z M 156.93 151.028 C 158.729 150.811 166.782 150.863 167.749 151.175 C 167.999 151.256 167.868 151.371 167.97 151.469 C 168.097 151.592 168.294 151.74 168.485 151.837 C 168.685 151.939 168.816 151.89 169.148 152.058 C 169.81 152.394 172.561 153.776 172.46 154.193 C 172.359 154.609 169.751 154.696 168.559 154.561 C 167.461 154.436 165.962 153.796 165.541 153.53 C 165.364 153.418 165.473 153.351 165.321 153.236 C 165.018 153.008 163.783 152.581 163.48 152.353 C 163.328 152.238 163.435 152.14 163.26 152.058 C 162.872 151.879 161.58 151.597 160.61 151.764 C 159.437 151.966 157.299 153.19 156.709 153.53 C 156.465 153.671 156.487 153.71 156.341 153.825 C 156.157 153.97 155.829 154.175 155.679 154.34 C 155.564 154.466 155.556 154.61 155.458 154.708 C 155.36 154.806 155.258 154.748 155.09 154.929 C 154.698 155.351 154.14 157.405 153.176 157.946 C 152.148 158.524 149.8 158.139 148.981 158.094 C 148.554 158.07 148.278 158.128 148.171 157.946 C 148.047 157.735 148.33 156.992 148.466 156.769 C 148.55 156.63 148.672 156.663 148.76 156.548 C 148.876 156.398 148.939 156.036 149.055 155.886 C 149.143 155.771 149.253 155.778 149.349 155.665 C 149.476 155.514 149.577 155.152 149.717 155.002 C 149.829 154.883 149.987 154.88 150.085 154.782 C 150.183 154.683 150.208 154.512 150.306 154.414 C 150.404 154.315 150.576 154.291 150.674 154.193 C 150.772 154.095 150.687 153.985 150.895 153.825 C 151.446 153.4 154.839 152.148 155.384 151.764 C 155.577 151.628 155.463 151.563 155.605 151.469 C 155.847 151.31 156.137 151.123 156.93 151.028 Z M 222.288 141.489 C 224.521 141.173 227.688 141.21 230.09 141.489 C 232.293 141.745 235.53 142.611 236.199 142.961 C 236.414 143.074 236.317 143.157 236.42 143.256 C 236.547 143.378 236.779 143.521 236.935 143.624 C 237.069 143.712 237.167 143.765 237.303 143.844 C 237.458 143.935 237.692 144.029 237.818 144.139 C 237.923 144.229 237.941 144.306 238.039 144.433 C 238.183 144.618 238.448 145.007 238.628 145.169 C 238.759 145.287 238.898 145.292 238.996 145.39 C 239.094 145.488 239.119 145.633 239.217 145.758 C 239.331 145.903 239.511 146.101 239.658 146.2 C 239.781 146.282 239.924 146.243 240.026 146.347 C 240.157 146.479 240.491 146.841 240.321 147.009 C 239.963 147.364 236.556 147.463 235.684 147.377 C 235.239 147.333 235.045 147.229 234.874 147.083 C 234.737 146.966 234.758 146.74 234.653 146.641 C 234.557 146.551 234.415 146.609 234.285 146.494 C 234.082 146.313 233.823 145.667 233.623 145.464 C 233.491 145.33 233.369 145.35 233.255 145.243 C 233.121 145.117 233.028 144.865 232.887 144.728 C 232.756 144.6 232.648 144.583 232.445 144.433 C 232.108 144.184 231.729 143.582 230.973 143.256 C 229.822 142.758 227.024 142.154 225.674 142.225 C 224.694 142.277 223.906 142.857 223.392 143.035 C 223.08 143.143 223.068 143.07 222.73 143.256 C 222.01 143.652 219.462 145.497 218.976 145.979 C 218.789 146.165 218.829 146.224 218.755 146.347 C 218.682 146.469 218.669 146.497 218.535 146.715 C 218.215 147.232 217.484 149.333 216.547 149.88 C 215.632 150.415 213.859 150.117 213.014 150.027 C 212.448 149.967 211.884 150.025 211.763 149.659 C 211.582 149.107 212.92 146.794 213.235 146.347 C 213.362 146.168 213.408 146.209 213.53 146.126 C 213.687 146.019 213.962 145.932 214.118 145.758 C 214.286 145.572 214.343 145.183 214.487 145.022 C 214.597 144.898 214.756 144.899 214.855 144.801 C 214.953 144.703 214.906 144.591 215.075 144.433 C 215.433 144.1 216.431 143.406 217.431 142.961 C 218.703 142.395 220.408 141.755 222.288 141.489 Z M 130.923 234.057 C 131.496 233.438 135.536 234.07 136.405 234.605 C 136.906 234.914 136.688 235.495 136.953 235.884 C 137.229 236.29 137.684 236.735 138.049 236.98 C 138.354 237.185 138.724 237.122 138.963 237.346 C 139.224 237.59 139.215 238.198 139.511 238.442 C 139.817 238.694 140.484 238.556 140.79 238.808 C 141.086 239.051 141.015 239.659 141.338 239.904 C 141.705 240.182 142.616 239.992 142.983 240.269 C 143.306 240.514 143.276 241.089 143.531 241.366 C 143.771 241.627 144.191 241.718 144.444 241.914 C 144.667 242.086 144.746 242.277 144.992 242.462 C 145.312 242.701 145.73 242.689 146.271 243.193 C 147.276 244.126 149.587 247.825 150.474 248.674 C 150.894 249.076 151.144 248.979 151.387 249.222 C 151.631 249.466 151.658 249.898 151.935 250.136 C 152.244 250.401 152.906 250.419 153.214 250.684 C 153.492 250.922 153.435 251.385 153.763 251.597 C 154.188 251.874 155.263 251.74 155.772 251.963 C 156.18 252.142 156.262 252.477 156.686 252.694 C 157.259 252.987 158.417 253.15 159.061 253.425 C 159.584 253.648 159.624 253.867 160.34 254.155 C 161.736 254.717 166.785 255.727 167.832 256.348 C 168.275 256.611 168.017 256.873 168.38 257.079 C 169.004 257.434 170.879 257.536 171.851 257.81 C 172.645 258.033 173.122 258.309 173.861 258.541 C 174.688 258.8 175.891 258.987 176.602 259.271 C 177.148 259.491 177.361 259.758 177.881 260.002 C 178.528 260.306 180.372 260.684 180.256 260.916 C 180.096 261.236 177.265 261.826 174.592 261.464 C 170.043 260.848 159.188 257.124 154.128 254.886 C 150.464 253.266 147.006 250.759 145.906 249.953 C 145.504 249.658 145.557 249.66 145.358 249.405 C 145.084 249.054 144.754 248.289 144.444 247.943 C 144.204 247.675 144.101 247.757 143.713 247.395 C 142.825 246.567 140.268 243.315 138.78 242.096 C 137.655 241.174 136.254 240.76 135.674 240.269 C 135.339 239.986 135.451 239.853 135.126 239.538 C 134.545 238.975 132.722 238.119 132.02 237.163 C 131.364 236.271 130.457 234.561 130.923 234.057 Z M 251.149 213.008 C 251.199 212.986 251.258 212.963 251.324 212.941 C 251.189 212.891 251.08 212.82 251.002 212.716 C 250.777 212.413 250.608 211.559 251.002 211.254 C 251.107 211.173 251.293 211.105 251.536 211.05 C 251.374 210.575 251.288 209.799 251.66 209.5 C 252.376 208.926 256.426 208.926 257.142 209.5 C 257.603 209.871 257.573 210.933 257.142 211.328 C 257.025 211.435 256.824 211.518 256.567 211.582 C 256.748 211.958 256.726 212.475 256.484 212.716 C 256.389 212.81 256.212 212.885 255.982 212.943 C 256.287 213.09 256.517 213.291 256.63 213.557 C 257.58 215.792 251.476 227.439 250.418 229.453 C 250.056 230.142 250.064 229.837 249.687 230.366 C 248.887 231.488 246.211 235.826 245.485 236.761 C 245.194 237.135 245.191 237.11 244.936 237.309 C 244.586 237.583 243.871 237.827 243.475 238.223 C 243.079 238.619 242.835 239.334 242.561 239.685 C 242.362 239.939 242.243 239.958 242.013 240.233 C 241.646 240.67 241.037 241.816 240.551 242.243 C 240.185 242.564 239.919 242.259 239.455 242.791 C 238.329 244.082 233.612 249.963 231.513 251.387 C 229.962 252.439 229.781 253.376 229.04 252.84 C 228.575 252.503 228.795 251.801 228.858 251.196 C 228.931 250.483 229.207 249.299 229.589 248.82 C 229.876 248.46 230.398 248.633 230.685 248.272 C 231.066 247.794 231.123 246.47 231.416 245.897 C 231.632 245.473 231.913 245.328 232.147 244.983 C 232.402 244.605 232.606 244.018 232.877 243.704 C 233.102 243.445 233.364 243.41 233.608 243.156 C 233.912 242.84 234.19 242.189 234.522 241.877 C 234.806 241.61 235.197 241.607 235.435 241.329 C 235.7 241.02 235.774 240.367 235.983 240.05 C 236.149 239.799 236.277 239.701 236.532 239.502 C 236.882 239.228 237.597 238.984 237.993 238.588 C 238.389 238.192 238.633 237.477 238.907 237.127 C 239.106 236.872 239.2 236.777 239.455 236.578 C 239.806 236.305 240.557 236.132 240.917 235.665 C 241.321 235.14 241.339 233.927 241.648 233.472 C 241.86 233.158 242.2 233.215 242.378 232.924 C 242.606 232.553 242.466 231.647 242.744 231.28 C 242.988 230.957 243.53 231.067 243.84 230.732 C 244.233 230.307 244.495 229.306 244.754 228.722 C 244.968 228.236 245.102 227.902 245.302 227.443 C 245.524 226.934 245.779 226.302 246.033 225.798 C 246.267 225.334 246.466 225.204 246.764 224.519 C 247.311 223.261 248.385 219.242 248.956 218.124 C 249.239 217.571 249.473 217.654 249.687 217.211 C 249.991 216.579 250.141 215.214 250.418 214.47 C 250.64 213.874 250.57 213.267 251.149 213.008 Z" style="fill-opacity: 1; fill-rule: nonzero; stroke-dasharray: none; stroke-dashoffset: 0px; stroke-linecap: butt; stroke-linejoin: miter; stroke-miterlimit: 4; stroke-opacity: 1; stroke-width: 3.82px; paint-order: normal; vector-effect: none; opacity: 1; mix-blend-mode: normal; isolation: auto; stroke: rgba(0, 0, 0, 0); fill: rgba(124, 74, 59, 0.545);"/>
    <g transform="translate(170 183)">
      <path d="M10 24.16c4.94 6.45 12.43 13.6 23.98 11.96 11.55-1.62 16.68-9.6 15.17-16.04" stroke="#000000" stroke-width="4"/>
    </g>
    <g transform="translate(110 102)">
      <path d="M27 26.5c6.17 2.5 21.1 3 31.5-15M94 4c5.17 5.33 18.1 12.8 28.5 0" stroke="#000000" stroke-width="4" stroke-linecap="round"/>
    </g>
    <g transform="translate(49 11)">
      <g stroke="#000">
        <path d="m105.84 88.82 1.88.3v.08l-.04.16-.12.52c-.12.45-.3 1.09-.6 1.9a41.7 41.7 0 0 1-3.4 6.92c-3.17 5.32-8.7 12.66-18.31 21.6 29.97.74 55-8.92 72.82-19.04a156.35 156.35 0 0 0 21.71-14.87 118.43 118.43 0 0 0 7.5-6.7l.1-.1.01-.01 2.29-2.38.93 3.16-1.84.54 1.84-.54v.05l.05.13.15.52a817.06 817.06 0 0 1 2.69 9.28c1.75 6.14 4.14 14.58 6.66 23.77 5.03 18.35 10.6 39.81 12.7 51.97 3.49 20.32-1.91 35.74-5.1 44.87-.63 1.77-1.17 3.3-1.54 4.6.06.04.12.1.22.16.6.42 1.65.91 3.18 1.4 3.02.96 7.32 1.74 11.92 2.19 4.6.44 9.38.53 13.34.14 1.98-.2 3.7-.5 5.08-.92a6.85 6.85 0 0 0 2.58-1.27c.02-.08.03-.29-.02-.68-.1-.78-.4-1.87-.93-3.32-.8-2.15-1.97-4.8-3.35-7.88l-1.46-3.3c-3.93-8.94-8.65-20.56-9.68-32.4-1.15-13.16 1.45-24.42 3.79-34.54l.11-.48c2.39-10.34 4.38-19.32 2.34-28.42-3.1-13.8-7.32-25.3-13.8-33.57-6.42-8.17-15.13-13.27-27.5-14.21l-1.28-.1-.4-1.22c-5.7-17.57-13.38-29.05-23.18-36.17-9.8-7.12-21.96-10.05-36.94-10.05-27.7 0-57.5 10.52-79.88 28.72-22.35 18.18-37.14 43.9-35.2 74.33 2.13 33.6-.3 59.06-5.8 77.72-5 17-12.59 28.46-21.68 35.14 1.19.61 2.78 1.39 4.77 2.27 5.02 2.24 12.59 5.2 22.67 8.03 19.34 5.43 47.95 10.38 85.71 8.89-8.32-7.15-16.72-15.83-23.37-25-7.63-10.53-13.14-21.94-13.3-32.58-.19-12.62.67-45.67.93-52.5.62-15.9 10.82-28.15 20.54-36.3a96.6 96.6 0 0 1 18.96-12.34l.2-.1.13-.06.1-.05h.02v-.01l.8 1.74Zm0 0 1.88.3.56-3.5-3.23 1.46.79 1.74Zm100.23 126.57.03.04-.03-.04Z" stroke-width="3.82" style="fill: rgb(191, 187, 168);"/>
        <path d="M191 58c.5 4.5-.3 13.5-1.5 19.5" stroke-width="4" style="fill: rgb(191, 187, 168);"/>
      </g>
    </g>
    <g transform="translate(142 119)">
      <path d="M26.47 24.36c1.86 6.36-5.04 1.48-11.4 3.33-6.36 1.86-9.78 9.76-11.64 3.4a12 12 0 0 1 23.04-6.73ZM90.26 15.17c1.64 6.42-4.7 1.52-11.11 3.15-6.43 1.64-10.51 9.19-12.15 2.77a12 12 0 1 1 23.26-5.92Z" fill="#D2EFF3"/>
      <path d="M5.29 34.07c.11.82 1.14 1 1.72.41 2.46-2.52 6.25-4.36 10.65-4.89 2.6-.3 5.1-.12 7.32.48.75.2 1.5-.44 1.23-1.17A10.84 10.84 0 0 0 5.3 34.07ZM69.38 24.07c.12.82 1.15 1 1.73.41 2.44-2.48 6.19-4.3 10.54-4.83 2.56-.3 5.03-.12 7.23.47.75.2 1.5-.44 1.23-1.17a10.74 10.74 0 0 0-20.73 5.12Z" fill="#000000"/>
      <g transform="translate(-40 -8)"/>
    </g>
    <g transform="rotate(-8 1149.44 -1186.92)">
      <path d="M16.5 3c0 14 7 25 7 25S20 34 10 32" stroke="#000" stroke-width="4"/>
    </g>
    <g transform="translate(84 154)">
      <path d="M30.5 6.18A23.78 23.78 0 0 0 23.08 5c-10.5 0-19 6.5-18 18.5 1.04 12.5 8.5 17 19 17A19.6 19.6 0 0 0 31 39.23" stroke="#000" stroke-width="8"/>
      <path d="M31.5 39.04a19.38 19.38 0 0 1-7.42 1.46c-10.5 0-17.96-4.5-19-17-1-12 7.5-18.5 18-18.5 3.14 0 6.19.6 8.92 1.73l-.5 32.3Z" fill="#ac6651"/>
      <path d="M27.5 13.5c-4-1.83-12.8-2.8-16 8" stroke="#000" stroke-width="4"/>
      <path d="M17 14c2.17 1.83 6.3 7.5 5.5 15.5" stroke="#000" stroke-width="4"/>
      <g transform="translate(3 35)"/>
    </g>
    <g transform="translate(53 272)">
      <g stroke="#000" stroke-width="4">
        <path d="M126.77 67.58 128 66l-1.23 1.58 1.72 1.34 1.19-1.83v-.02l.05-.06.04-.05a28.57 28.57 0 0 1 .8-1.18 112.35 112.35 0 0 1 11.5-14.05c3.67-3.78 7.83-7.4 12.13-9.93 4.31-2.53 8.58-3.84 12.53-3.3C209.17 44.2 240.4 63 260.67 91h-273.3c16.3-29.34 39.49-48.02 77.07-56.59 1.6-.36 3.78-.25 6.5.38 2.7.63 5.77 1.73 9.09 3.19 6.62 2.9 14.02 7.16 20.97 11.56a355.78 355.78 0 0 1 25.24 17.63l.4.3.1.08.02.02h.01Z" fill="#ffedef"/>
        <path d="m52.61 37.08 5.17-19.23c.2-.78 1.22-1 1.76-.4C74.4 33.7 93.16 33.08 99.4 32.33c.84-.1 1.5.82 1.1 1.58L87.34 58.86c-.2.38-.62.6-1.04.5-3.95-.82-23.62-5.63-33.57-21.5a1 1 0 0 1-.12-.78ZM183.2 36.98 171.61 17.5c-.4-.66-1.37-.65-1.79 0-5.73 8.83-15.63 12.9-19.09 14.1-.62.22-.9.96-.57 1.53l13.5 22.81c.2.34.59.53.97.42 2.13-.61 9.46-3.67 18.54-18.34a1 1 0 0 0 .01-1.04Z" fill="#ffedef"/>
        <path d="m52.61 37.08 5.17-19.23c.2-.78 1.22-1 1.76-.4C74.4 33.7 93.16 33.08 99.4 32.33c.84-.1 1.5.82 1.1 1.58L87.34 58.86c-.2.38-.62.6-1.04.5-3.95-.82-23.62-5.63-33.57-21.5a1 1 0 0 1-.12-.78ZM183.2 36.98 171.61 17.5c-.4-.66-1.37-.65-1.79 0-5.73 8.83-15.63 12.9-19.09 14.1-.62.22-.9.96-.57 1.53l13.5 22.81c.2.34.59.53.97.42 2.13-.61 9.46-3.67 18.54-18.34a1 1 0 0 0 .01-1.04Z" fill="#fff" fill-opacity=".75"/>
        <path d="m109.5 54.5-9-21.5-7 15 16 6.5ZM141 53.5l9-21.5 7 15-16 6.5ZM70.5 14l-12 3 10 6.5 2-9.5ZM160 14l11 3-7 6.5-4-9.5Z" fill="#000" stroke-linejoin="round"/>
      </g>
    </g>
  </g>
</svg>