<?xml version="1.0" encoding="utf-8"?>
<svg viewBox="0 0 360 360" fill="none" shape-rendering="auto" xmlns="http://www.w3.org/2000/svg">
  <mask id="viewboxMask">
    <rect width="360" height="360" rx="0" ry="0" x="0" y="0" fill="#fff"/>
  </mask>
  <g mask="url(#viewboxMask)" transform="matrix(1, 0, 0, 1, -5.684341886080802e-14, 0)">
    <g transform="translate(80 23)">
      <path d="M154 319.5c-14.4-20-25.67-58.67-27-78L58.5 212 30 319.5h124Z" fill="#ac6651" stroke="#000" stroke-width="4"/>
      <path d="M130.37 263.69c-2.1.2-4.22.31-6.37.31-30.78 0-56.05-21.57-58.76-49.1L127 241.5c.38 5.48 1.55 13.32 3.37 22.19Z" fill="#000" style="mix-blend-mode:multiply"/>
      <path d="M181.94 151.37v.01l.1.4.14.65A75.72 75.72 0 0 1 34.93 187.7l-.2-.74L18 117.13l-.06-.29A75.72 75.72 0 0 1 165.2 81.55l.05.21.02.08.05.2.05.2v.01l16.4 68.44.08.34.08.34Z" fill="#ac6651" stroke="#000" stroke-width="4"/>
      <g transform="translate(34 102.3)"/>
    </g>
    <g transform="translate(170 183)">
      <path d="M64.73 25.7a36 36 0 0 0 1.18-12.54 4.98 4.98 0 0 0-6.8-4.2c-4.26 1.67-18.03 6.88-27.62 8.2-10.52 1.44-26.66-.32-31.44-.91a4.98 4.98 0 0 0-5.53 5.74 36 36 0 0 0 70.21 3.7Z" fill="#000000"/>
      <path d="M51.83 39.55a32 32 0 0 1-37.2 4.62 21.5 21.5 0 0 1 37.2-4.62Z" fill="#FC909F"/>
    </g>
    <g transform="translate(110 102)">
      <path d="M27 26.5c6.17 2.5 21.1 3 31.5-15M94 4c5.17 5.33 18.1 12.8 28.5 0" stroke="#000000" stroke-width="4" stroke-linecap="round"/>
    </g>
    <g transform="translate(49 11)">
      <path d="M123.79 17.49H123.94a96.78 96.78 0 0 1 62.07 24.36c14.06 12.4 22.45 26.87 25.19 36.73-4.06 2.32-11.01 4.31-19.88 5.95-9.68 1.78-21.3 3.08-33.15 4.01-23.7 1.86-48.2 2.2-59.63 1.96l-6.07-.13 4.8 3.71c2.5 1.93 5.83 3.28 9.34 4.22 3.55.95 7.42 1.54 11.14 1.87 3.82.34 7.55.42 10.64.34-10.59 8.16-24.06 14.44-37.35 19.09a225.88 225.88 0 0 1-39.83 9.92l-2.15.32.5 2.11c3.34 14.43 9.5 39.65 13.62 56.57 1.83 7.5 3.26 13.38 3.87 15.94 1.09 4.56 4.5 11.05 8.4 17.03 3.6 5.52 7.78 10.89 11.32 14.2l-7.84 31.81H49.37c8.34-12.71 10.1-27.4 8.4-42.98-1.84-16.87-7.76-35-14-53.17l-1.85-5.36c-5.69-16.46-11.36-32.88-14.43-48.6-3.4-17.44-3.56-33.75 2.83-48.09 10.34-23.21 28.66-36.7 47-44.12 18.37-7.45 36.61-8.76 46.46-7.71Z" stroke="#000" stroke-width="4" style="fill: rgb(244, 226, 160);"/>
      <path stroke-width="0" opacity="0.9372549019607843" d="M 105.705 141.725 C 107.746 141.415 112.871 141.664 115.464 141.875 C 117.414 142.034 119.869 142.291 120.193 142.626 C 120.325 142.762 120.226 142.961 119.968 143.076 C 119.268 143.389 115.656 143.325 113.812 143.226 C 112.202 143.14 110.343 142.461 109.458 142.626 C 108.934 142.723 108.659 143.068 108.482 143.301 C 108.353 143.472 108.444 143.681 108.332 143.827 C 108.208 143.988 107.876 144.09 107.732 144.202 C 107.627 144.284 107.625 144.356 107.507 144.427 C 107.329 144.535 106.891 144.612 106.681 144.728 C 106.516 144.818 106.477 144.883 106.305 145.028 C 106.027 145.262 105.714 145.858 105.104 146.079 C 104.232 146.395 102.072 146.334 101.201 146.229 C 100.66 146.164 100.167 146.071 100.075 145.854 C 99.99 145.655 100.222 145.333 100.525 145.028 C 101.019 144.531 102.851 143.773 103.228 143.301 C 103.431 143.046 103.172 142.834 103.378 142.626 C 103.72 142.278 104.522 141.904 105.705 141.725 Z M 176.211 130.584 C 178.522 130.28 184.673 130.525 185.144 130.885 C 185.303 131.006 185.082 131.216 184.769 131.335 C 183.975 131.637 180.859 131.227 178.763 131.635 C 176.451 132.086 172.246 133.615 171.482 134.113 C 171.239 134.271 171.356 134.388 171.256 134.488 C 171.156 134.588 170.981 134.613 170.881 134.713 C 170.781 134.813 170.756 134.989 170.656 135.089 C 170.556 135.189 170.407 135.214 170.28 135.314 C 170.133 135.43 169.964 135.586 169.83 135.764 C 169.686 135.957 169.774 136.282 169.455 136.44 C 168.835 136.745 166.251 136.708 165.401 136.59 C 164.906 136.522 164.539 136.43 164.425 136.215 C 164.32 136.016 164.525 135.564 164.65 135.389 C 164.746 135.255 164.925 135.264 165.026 135.164 C 165.126 135.064 165.151 134.888 165.251 134.788 C 165.351 134.688 165.526 134.663 165.626 134.563 C 165.726 134.463 165.751 134.288 165.851 134.188 C 165.951 134.088 166.127 134.063 166.227 133.963 C 166.327 133.862 166.225 133.723 166.452 133.587 C 167.077 133.215 171.054 132.552 171.782 132.236 C 172.056 132.117 171.903 132.062 172.157 131.936 C 172.767 131.634 174.491 130.811 176.211 130.584 Z M 158.014 106.5 C 160.827 106.294 163.55 106.553 163.583 106.908 C 163.617 107.269 160.741 108.083 158.014 108.674 C 153.443 109.664 139.125 110.936 136.96 111.662 C 136.358 111.864 136.611 112.046 136.281 112.205 C 135.812 112.432 134.713 112.522 134.244 112.748 C 133.914 112.907 133.844 113.124 133.565 113.292 C 133.232 113.491 132.789 113.598 132.342 113.835 C 131.81 114.118 131.359 114.599 130.576 114.922 C 129.524 115.356 127.485 115.715 126.365 116.008 C 125.527 116.228 125.364 116.381 124.328 116.552 C 122.478 116.857 116.78 117.442 115.363 117.367 C 114.778 117.336 114.425 117.226 114.412 117.095 C 114.399 116.958 114.755 116.748 115.363 116.552 C 116.791 116.091 122.684 115.335 124.464 114.922 C 125.398 114.705 125.755 114.609 126.23 114.378 C 126.625 114.186 126.892 113.889 127.18 113.699 C 127.428 113.537 127.587 113.433 127.86 113.292 C 128.196 113.118 128.805 112.962 129.082 112.748 C 129.294 112.586 129.229 112.359 129.49 112.205 C 129.92 111.951 131.224 111.881 131.799 111.662 C 132.221 111.501 131.977 111.356 132.75 111.119 C 135.48 110.28 152.835 106.88 158.014 106.5 Z M 137.368 97.916 C 137.572 97.893 137.808 97.875 138.063 97.864 C 138.084 97.674 138.381 97.444 138.78 97.318 C 139.938 96.951 144.42 97.078 146.659 97.318 C 147.396 97.397 148.238 97.52 149.01 97.666 C 150.275 97.13 148.876 96.658 150.377 96.488 C 151.987 96.306 154.812 97.662 154.81 97.99 C 154.808 98.349 153.387 97.904 152.771 98.405 C 152.532 98.599 152.882 98.818 152.635 98.948 C 152.165 99.195 149.291 99.257 147.754 99.137 C 146.51 99.101 145.188 99.023 144.214 98.948 C 143.356 98.882 142.252 98.785 141.218 98.663 C 141.036 98.79 140.817 98.913 140.628 99.002 C 140.016 99.29 138.598 99.303 138.047 99.546 C 137.693 99.701 137.697 99.93 137.368 100.089 C 136.898 100.315 135.906 100.431 135.33 100.632 C 134.851 100.8 134.779 101.008 134.108 101.176 C 132.818 101.497 132.36 102.618 131.175 102.57 C 130.629 102.547 129.98 102.686 129.968 102.555 C 129.954 102.418 130.597 101.848 131.046 101.691 C 131.709 101.458 131.666 101.227 132.163 100.954 C 132.441 100.802 132.889 100.114 133.149 99.96 C 133.579 99.706 132.311 99.765 132.885 99.546 C 133.307 99.385 133.364 99.199 133.836 99.002 C 134.604 98.682 136.116 98.06 137.368 97.916 Z" style="fill-opacity: 1; fill-rule: nonzero; stroke-dasharray: none; stroke-dashoffset: 0px; stroke-linecap: butt; stroke-linejoin: miter; stroke-miterlimit: 4; stroke-opacity: 1; stroke-width: 3.82px; paint-order: normal; vector-effect: none; opacity: 1; mix-blend-mode: normal; isolation: auto; stroke: rgba(0, 0, 0, 0); fill: rgba(119, 70, 56, 0.627);"/>
    </g>
    <g transform="translate(142 119)">
      <path d="M26.47 24.36c1.86 6.36-5.04 1.48-11.4 3.33-6.36 1.86-9.78 9.76-11.64 3.4a12 12 0 0 1 23.04-6.73ZM90.26 15.17c1.64 6.42-4.7 1.52-11.11 3.15-6.43 1.64-10.51 9.19-12.15 2.77a12 12 0 1 1 23.26-5.92Z" fill="#D2EFF3"/>
      <path d="M5.29 34.07c.11.82 1.14 1 1.72.41 2.46-2.52 6.25-4.36 10.65-4.89 2.6-.3 5.1-.12 7.32.48.75.2 1.5-.44 1.23-1.17A10.84 10.84 0 0 0 5.3 34.07ZM69.38 24.07c.12.82 1.15 1 1.73.41 2.44-2.48 6.19-4.3 10.54-4.83 2.56-.3 5.03-.12 7.23.47.75.2 1.5-.44 1.23-1.17a10.74 10.74 0 0 0-20.73 5.12Z" fill="#000000"/>
      <g transform="translate(-40 -8)"/>
    </g>
    <g transform="rotate(-8 1149.44 -1186.92)">
      <path d="M16.5 3c0 14 7 25 7 25S20 34 10 32" stroke="#000" stroke-width="4"/>
    </g>
    <g transform="translate(84 154)">
      <path d="M30.5 6.18A23.78 23.78 0 0 0 23.08 5c-10.5 0-19 6.5-18 18.5 1.04 12.5 8.5 17 19 17A19.6 19.6 0 0 0 31 39.23" stroke="#000" stroke-width="8"/>
      <path d="M31.5 39.04a19.38 19.38 0 0 1-7.42 1.46c-10.5 0-17.96-4.5-19-17-1-12 7.5-18.5 18-18.5 3.14 0 6.19.6 8.92 1.73l-.5 32.3Z" fill="#ac6651"/>
      <path d="M27.5 13.5c-4-1.83-12.8-2.8-16 8" stroke="#000" stroke-width="4"/>
      <path d="M17 14c2.17 1.83 6.3 7.5 5.5 15.5" stroke="#000" stroke-width="4"/>
      <g transform="translate(3 35)"/>
    </g>
    <g transform="translate(53 272)">
      <g stroke="#000" stroke-width="4">
        <path d="M260.7 91H-12.64C3.67 61.66 26.86 42.98 64.44 34.4c16.02-3.65 34.67-5.47 56.56-5.47 9.46 0 16.81 1.44 23.8 3.35 2.58.7 5.18 1.5 7.84 2.3 4.4 1.34 8.97 2.72 13.91 3.86l.14.03.15.01c46.12 3.8 73.78 24.3 93.85 52.5Z" fill="#ffeba4"/>
        <path d="m52.93 36.58 9.15-19.6a1 1 0 0 1 1.25-.51c37.93 13.42 72.43 12.48 104.4 3.57a1 1 0 0 1 1.09.38l13.93 19.05a.98.98 0 0 1-.42 1.5c-33.6 13.2-96.67 10.95-128.91-3.07a.98.98 0 0 1-.49-1.32Z" fill="#ffeba4"/>
        <path opacity=".75" d="m52.93 36.58 9.15-19.6a1 1 0 0 1 1.25-.51c37.93 13.42 72.43 12.48 104.4 3.57a1 1 0 0 1 1.09.38l13.93 19.05a.98.98 0 0 1-.42 1.5c-33.6 13.2-96.67 10.95-128.91-3.07a.98.98 0 0 1-.49-1.32Z" fill="#fff"/>
      </g>
    </g>
  </g>
</svg>