<?xml version="1.0" encoding="utf-8"?>
<svg viewBox="0 0 360 360" fill="none" shape-rendering="auto" xmlns="http://www.w3.org/2000/svg">
  <mask id="viewboxMask">
    <rect width="360" height="360" rx="0" ry="0" x="0" y="0" fill="#fff"/>
  </mask>
  <g mask="url(#viewboxMask)" transform="matrix(1, 0, 0, 1, 0, -7.105427357601002e-15)">
    <g transform="translate(80 23)">
      <path d="M154 319.5c-14.4-20-25.67-58.67-27-78L58.5 212 30 319.5h124Z" fill="#ac6651" stroke="#000" stroke-width="4"/>
      <path d="M130.37 263.69c-2.1.2-4.22.31-6.37.31-30.78 0-56.05-21.57-58.76-49.1L127 241.5c.38 5.48 1.55 13.32 3.37 22.19Z" fill="#000" style="mix-blend-mode:multiply"/>
      <path d="M181.94 151.37v.01l.1.4.14.65A75.72 75.72 0 0 1 34.93 187.7l-.2-.74L18 117.13l-.06-.29A75.72 75.72 0 0 1 165.2 81.55l.05.21.02.08.05.2.05.2v.01l16.4 68.44.08.34.08.34Z" fill="#ac6651" stroke="#000" stroke-width="4"/>
      <g transform="translate(34 102.3)"/>
    </g>
    <g transform="translate(170 183)">
      <path d="M-.5 17.5c2.5 17 31 25 57 5.5" stroke="#000000" stroke-width="4"/>
    </g>
    <g transform="translate(110 102)">
      <path d="M27 26.5c6.17 2.5 21.1 3 31.5-15M94 4c5.17 5.33 18.1 12.8 28.5 0M37.15 26.46 31 21.03M116.22 9.44l1.78-8M45.6 22.81l-4.05-7.13M108.14 9.02l.94-8.15M52.67 17.2l-2.2-7.9M100 8.03l-.78-8.16" stroke="#000000" stroke-width="4" stroke-linecap="round"/>
    </g>
    <g transform="translate(49 11)">
      <path d="m-13.4 312.86-.62-1.64c-.56-1.55-1.35-3.84-2.23-6.74a163.21 163.21 0 0 1-5.28-23.98c-2.81-19.77-2.8-45.8 8.4-71.12 1.8-4.09 4.07-8.3 6.52-12.85 9.47-17.6 21.77-40.46 21.77-82.45 0-30.59 14.84-56.35 36.7-74.51 21.88-18.18 50.7-28.66 78.38-28.66 15.13 0 27.3 1.73 37.07 7.64 9.72 5.87 17.37 16.05 23.05 33.58a3.47 3.47 0 0 0 4.36 2.27c11.31-3.67 28.47.04 42.95 9.5 14.42 9.4 25.62 24.15 25.62 41.91 0 15.43-2.64 25.85-5.22 36-3.12 12.3-6.13 24.16-4 43.5.7 6.45 2.15 11.03 4.16 14.82 1.98 3.73 4.48 6.62 7.12 9.66l.05.07c6.28 7.25 9.13 13.22 10.06 18.47.92 5.23-.05 9.98-1.84 14.9-.9 2.48-2 4.97-3.15 7.59l-.1.22c-1.12 2.53-2.3 5.19-3.35 7.98-2.18 5.77-3.89 12.2-3.72 19.83.15 6.48 1.3 10.91 3.01 14.27 1.7 3.32 3.89 5.44 5.8 7.3l.05.05c1.74 1.68 3.2 3.1 4.27 5.1.96 1.78 1.67 4.13 1.79 7.66a172.14 172.14 0 0 1-87.4 23.9 110.86 110.86 0 0 1-7.28-.28c-6.15-9.4-11.75-24.88-16.1-40.8-4.21-15.46-7.18-31.08-8.3-41.4 37.08-10.72 60.32-48.98 54.73-88.46l-.01-.12a5.97 5.97 0 0 0-.08-.47 76.68 76.68 0 0 0-.43-2.25 486.97 486.97 0 0 0-6.53-28.2 276.64 276.64 0 0 0-7.45-24.2c-2.76-7.5-5.83-14.15-9.1-18.24l-.3-.37-.44-.2c-1.93-.83-3.94-1.77-6.03-2.74-9.93-4.62-21.84-10.17-37.26-10.78-18.78-.74-42.56 5.78-74.7 29.09l-2.02 1.46 1.95 1.57c15.92 12.83 19.37 29.86 18.63 44.3a89.2 89.2 0 0 1-5.24 25.1c-1.16-1.69-1.9-3.82-2.45-6.33a85.19 85.19 0 0 1-.96-5.45l-.05-.3c-.3-2-.63-4.08-1.1-6.09-.96-4.01-2.57-8.02-6.14-10.86-3.58-2.84-8.8-4.25-16.4-3.83l-2.22.13.46 2.18 11.36 53.31.02.08.03.09a79.8 79.8 0 0 0 19.91 32.81 65.49 65.49 0 0 1 1.54 2.68c1.01 1.82 2.37 4.38 3.76 7.33 2.82 5.94 5.66 13.24 6.2 19.2.57 6.05-.96 13.86-2.7 20.31a129.63 129.63 0 0 1-2.84 9.14c-5.03-2.4-9.53-2.23-13.38.01-4.16 2.43-7.21 7.06-9.48 12.22-4.15 9.42-6.14 21.64-7.06 29.22A601.65 601.65 0 0 1 6.2 320.1 353.85 353.85 0 0 1-9 314.64a190.8 190.8 0 0 1-4.4-1.77Z" stroke="#000" stroke-width="3.82" style="fill: rgb(85, 85, 85);"/>
    </g>
    <g transform="translate(142 119)">
      <path d="M5.29 34.07c.11.82 1.14 1 1.72.41 2.46-2.52 6.25-4.36 10.65-4.89 2.6-.3 5.1-.12 7.32.48.75.2 1.5-.44 1.23-1.17A10.84 10.84 0 0 0 5.3 34.07ZM69.38 24.07c.12.82 1.15 1 1.73.41 2.44-2.48 6.19-4.3 10.54-4.83 2.56-.3 5.03-.12 7.23.47.75.2 1.5-.44 1.23-1.17a10.74 10.74 0 0 0-20.73 5.12Z" fill="#000000"/>
      <g transform="translate(-40 -8)">
        <g stroke="#77311d" stroke-width="4">
          <path d="M34.5 42.5 0 49.12" stroke-linecap="round"/>
          <path d="M35.47 18.53 74.2 13.1a6 6 0 0 1 6.77 5.1l5.57 39.62a6 6 0 0 1-5.1 6.78l-34.48 4.84a6 6 0 0 1-6.65-4.48l-9.81-39.01a6 6 0 0 1 4.98-7.4ZM145.92 3.22 107.2 8.66a6 6 0 0 0-5.1 6.78l5.56 39.6a6 6 0 0 0 6.78 5.11l34.47-4.84a6 6 0 0 0 5.16-6.14l-1.32-40.2a6 6 0 0 0-6.83-5.75ZM83.5 37.12l22-3.5"/>
        </g>
      </g>
    </g>
    <g transform="rotate(-8 1149.44 -1186.92)">
      <path d="M16.5 7c-.33 3.83 0 12.2 4 15 5 3.5-.5 12-10.5 10" stroke="#000" stroke-width="4"/>
    </g>
    <g transform="translate(84 154)">
      <path d="M30.5 6.18A23.78 23.78 0 0 0 23.08 5c-10.5 0-19 6.5-18 18.5 1.04 12.5 8.5 17 19 17A19.6 19.6 0 0 0 31 39.23" stroke="#000" stroke-width="8"/>
      <path d="M31.5 39.04a19.38 19.38 0 0 1-7.42 1.46c-10.5 0-17.96-4.5-19-17-1-12 7.5-18.5 18-18.5 3.14 0 6.19.6 8.92 1.73l-.5 32.3Z" fill="#ac6651"/>
      <path d="M27.5 13.5c-4-1.83-12.8-2.8-16 8" stroke="#000" stroke-width="4"/>
      <path d="M17 14c2.17 1.83 6.3 7.5 5.5 15.5" stroke="#000" stroke-width="4"/>
      <g transform="translate(3 35)"/>
    </g>
    <g transform="translate(53 272)">
      <g stroke="#000" stroke-width="4">
        <path d="M260.7 91H-12.64C3.67 61.66 26.86 42.98 64.44 34.4c16.02-3.65 34.67-5.47 56.56-5.47 9.46 0 16.81 1.44 23.8 3.35 2.58.7 5.18 1.5 7.84 2.3 4.4 1.34 8.97 2.72 13.91 3.86l.14.03.15.01c46.12 3.8 73.78 24.3 93.85 52.5Z" fill="#6bd9e9"/>
        <path d="m52.93 36.58 9.15-19.6a1 1 0 0 1 1.25-.51c37.93 13.42 72.43 12.48 104.4 3.57a1 1 0 0 1 1.09.38l13.93 19.05a.98.98 0 0 1-.42 1.5c-33.6 13.2-96.67 10.95-128.91-3.07a.98.98 0 0 1-.49-1.32Z" fill="#6bd9e9"/>
        <path opacity=".75" d="m52.93 36.58 9.15-19.6a1 1 0 0 1 1.25-.51c37.93 13.42 72.43 12.48 104.4 3.57a1 1 0 0 1 1.09.38l13.93 19.05a.98.98 0 0 1-.42 1.5c-33.6 13.2-96.67 10.95-128.91-3.07a.98.98 0 0 1-.49-1.32Z" fill="#fff"/>
      </g>
    </g>
  </g>
  <path stroke-width="0" opacity="0.8941176470588236" d="M 198.414 100.345 C 200.086 99.924 203.676 100.107 203.758 100.686 C 203.85 101.341 199.739 103.817 197.504 104.438 C 195.3 105.051 192.682 104.522 190.455 104.438 C 188.377 104.36 186.401 103.772 184.543 103.983 C 182.773 104.184 181.018 104.857 179.541 105.575 C 178.162 106.245 177.236 107.661 175.902 108.076 C 174.581 108.488 172.22 108.407 171.582 108.076 C 171.246 107.902 171.015 107.612 171.241 107.28 C 171.832 106.411 177.107 103.982 179.995 103.301 C 182.674 102.67 185.56 103.063 187.954 103.074 C 190.047 103.083 191.892 103.76 193.639 103.301 C 195.377 102.845 196.709 100.774 198.414 100.345 Z M 198.914 112.897 C 199.875 112.669 203.882 112.801 204.03 113.238 C 204.162 113.627 201.984 114.837 200.733 115.171 C 199.392 115.528 197.734 115.381 196.186 115.171 C 194.554 114.949 193.092 113.963 191.183 113.806 C 188.94 113.622 185.14 113.937 183.452 114.489 C 182.359 114.845 181.682 115.652 181.291 115.967 C 181.093 116.126 181.132 116.096 180.95 116.308 C 180.54 116.788 179.767 118.792 178.676 119.264 C 177.46 119.79 174.273 119.505 173.788 118.923 C 173.445 118.512 174.176 117.35 174.47 116.99 C 174.667 116.747 174.98 116.807 175.152 116.649 C 175.315 116.499 175.341 116.232 175.493 116.08 C 175.645 115.929 175.904 115.861 176.061 115.739 C 176.2 115.632 176.252 115.524 176.403 115.398 C 176.603 115.231 176.957 114.989 177.198 114.83 C 177.405 114.694 177.46 114.633 177.767 114.489 C 178.341 114.218 179.114 113.614 180.723 113.352 C 183.81 112.848 194.67 112.831 196.868 113.124 C 197.651 113.229 197.659 113.623 198.005 113.579 C 198.34 113.536 198.388 113.022 198.914 112.897 Z M 160.349 154.009 C 163.093 153.787 166.908 153.626 168.535 154.009 C 169.459 154.227 170.383 154.798 170.24 155.032 C 170.029 155.381 166.042 155.492 164.897 155.373 C 164.22 155.303 164.226 154.969 163.532 154.919 C 162.307 154.83 159.086 155.201 157.62 155.601 C 156.56 155.89 155.65 156.362 155.233 156.738 C 154.979 156.966 155.05 157.248 154.891 157.42 C 154.742 157.583 154.533 157.574 154.323 157.761 C 154.023 158.028 153.932 158.781 153.3 159.012 C 152.278 159.384 148.22 159.033 147.956 158.67 C 147.8 158.455 148.846 158.077 149.093 157.761 C 149.294 157.504 149.269 157.157 149.434 156.965 C 149.582 156.792 149.758 156.768 150.003 156.624 C 150.348 156.42 151.025 156.06 151.367 155.828 C 151.617 155.658 151.512 155.53 151.935 155.373 C 153.067 154.954 157.56 154.235 160.349 154.009 Z M 213.786 147.779 C 213.836 147.768 213.893 147.757 213.954 147.747 C 213.998 147.645 214.049 147.551 214.081 147.483 C 214.158 147.323 214.142 147.313 214.422 147.142 C 215.282 146.618 219.253 144.436 221.699 143.958 C 224.03 143.503 226.531 143.767 228.748 144.186 C 230.88 144.588 234.558 145.948 234.774 146.346 C 234.87 146.525 234.4 146.599 233.978 146.687 C 233.209 146.848 230.883 146.979 230.112 146.914 C 229.696 146.88 229.548 146.806 229.316 146.687 C 229.096 146.574 229.103 146.394 228.748 146.232 C 228.014 145.898 225.498 145.061 224.427 145.095 C 223.677 145.12 223.052 145.494 222.722 145.777 C 222.49 145.977 222.666 146.204 222.381 146.46 C 221.823 146.959 220.091 147.966 218.743 148.279 C 218.656 148.299 218.564 148.318 218.468 148.336 C 218.385 148.556 218.159 148.803 217.879 148.915 C 217.029 149.254 212.766 148.894 212.535 148.574 C 212.397 148.383 213.15 147.922 213.786 147.779 Z" style="fill-opacity: 1; fill-rule: nonzero; stroke-dasharray: none; stroke-dashoffset: 0px; stroke-linecap: butt; stroke-linejoin: miter; stroke-miterlimit: 4; stroke-opacity: 1; stroke-width: 3.82px; paint-order: normal; vector-effect: none; opacity: 1; mix-blend-mode: normal; isolation: auto; stroke: rgba(0, 0, 0, 0); fill: rgb(140, 83, 66);" transform="matrix(1, 0, 0, 1, 0, -7.105427357601002e-15)"/>
</svg>