<?xml version="1.0" encoding="utf-8"?>
<svg viewBox="0 0 360 360" fill="none" shape-rendering="auto" xmlns="http://www.w3.org/2000/svg">
  <mask id="viewboxMask">
    <rect width="360" height="360" rx="0" ry="0" x="0" y="0" fill="#fff"/>
  </mask>
  <g mask="url(#viewboxMask)">
    <g transform="translate(80 23)">
      <path d="M154 319.5c-14.4-20-25.67-58.67-27-78L58.5 212 30 319.5h124Z" stroke="#000" stroke-width="4" fill="#77311d"/>
      <path d="M130.37 263.69c-2.1.2-4.22.31-6.37.31-30.78 0-56.05-21.57-58.76-49.1L127 241.5c.38 5.48 1.55 13.32 3.37 22.19Z" style="mix-blend-mode:multiply" fill="#000"/>
      <path d="M181.94 151.37v.01l.1.4.14.65A75.72 75.72 0 0 1 34.93 187.7l-.2-.74L18 117.13l-.06-.29A75.72 75.72 0 0 1 165.2 81.55l.05.21.02.08.05.2.05.2v.01l16.4 68.44.08.34.08.34Z" stroke="#000" stroke-width="4" fill="#77311d"/>
      <g transform="translate(34 102.3)"/>
    </g>
    <g transform="translate(170 183)">
      <path d="M-.5 17.5c2.5 17 31 25 57 5.5" stroke="#000000" stroke-width="4"/>
    </g>
    <g transform="translate(110 102)">
      <path d="M27 26.5c6.17 2.5 21.1 3 31.5-15M94 4c5.17 5.33 18.1 12.8 28.5 0M37.15 26.46 31 21.03M116.22 9.44l1.78-8M45.6 22.81l-4.05-7.13M108.14 9.02l.94-8.15M52.67 17.2l-2.2-7.9M100 8.03l-.78-8.16" stroke="#000000" stroke-width="4" stroke-linecap="round"/>
    </g>
    <g transform="translate(49 11)">
      <g stroke="#000">
        <path d="m105.84 88.82 1.88.3v.08l-.04.16-.12.52c-.12.45-.3 1.09-.6 1.9a41.7 41.7 0 0 1-3.4 6.92c-3.17 5.32-8.7 12.66-18.31 21.6 29.97.74 55-8.92 72.82-19.04a156.35 156.35 0 0 0 21.71-14.87 118.43 118.43 0 0 0 7.5-6.7l.1-.1.01-.01 2.29-2.38.93 3.16-1.84.54 1.84-.54v.05l.05.13.15.52a817.06 817.06 0 0 1 2.69 9.28c1.75 6.14 4.14 14.58 6.66 23.77 5.03 18.35 10.6 39.81 12.7 51.97 3.49 20.32-1.91 35.74-5.1 44.87-.63 1.77-1.17 3.3-1.54 4.6.06.04.12.1.22.16.6.42 1.65.91 3.18 1.4 3.02.96 7.32 1.74 11.92 2.19 4.6.44 9.38.53 13.34.14 1.98-.2 3.7-.5 5.08-.92a6.85 6.85 0 0 0 2.58-1.27c.02-.08.03-.29-.02-.68-.1-.78-.4-1.87-.93-3.32-.8-2.15-1.97-4.8-3.35-7.88l-1.46-3.3c-3.93-8.94-8.65-20.56-9.68-32.4-1.15-13.16 1.45-24.42 3.79-34.54l.11-.48c2.39-10.34 4.38-19.32 2.34-28.42-3.1-13.8-7.32-25.3-13.8-33.57-6.42-8.17-15.13-13.27-27.5-14.21l-1.28-.1-.4-1.22c-5.7-17.57-13.38-29.05-23.18-36.17-9.8-7.12-21.96-10.05-36.94-10.05-27.7 0-57.5 10.52-79.88 28.72-22.35 18.18-37.14 43.9-35.2 74.33 2.13 33.6-.3 59.06-5.8 77.72-5 17-12.59 28.46-21.68 35.14 1.19.61 2.78 1.39 4.77 2.27 5.02 2.24 12.59 5.2 22.67 8.03 19.34 5.43 47.95 10.38 85.71 8.89-8.32-7.15-16.72-15.83-23.37-25-7.63-10.53-13.14-21.94-13.3-32.58-.19-12.62.67-45.67.93-52.5.62-15.9 10.82-28.15 20.54-36.3a96.6 96.6 0 0 1 18.96-12.34l.2-.1.13-.06.1-.05h.02v-.01l.8 1.74Zm0 0 1.88.3.56-3.5-3.23 1.46.79 1.74Zm100.23 126.57.03.04-.03-.04Z" stroke-width="3.82" style="fill: rgb(160, 121, 127);"/>
        <path d="M191 58c.5 4.5-.3 13.5-1.5 19.5" stroke-width="4" style="fill: rgb(160, 121, 127);"/>
      </g>
    </g>
    <g transform="translate(142 119)">
      <g fill="#000000">
        <ellipse cx="16.53" cy="29.4" rx="9" ry="13.5" transform="rotate(-6.78 16.53 29.4)"/>
        <ellipse cx="80.53" cy="19.4" rx="9" ry="13.5" transform="rotate(-6.28 80.53 19.4)"/>
      </g>
      <g transform="translate(-40 -8)">
        <g stroke="#d2eff3" stroke-width="4">
          <path d="M34.5 42.5 0 49.12" stroke-linecap="round"/>
          <path d="M35.47 18.53 74.2 13.1a6 6 0 0 1 6.77 5.1l5.57 39.62a6 6 0 0 1-5.1 6.78l-34.48 4.84a6 6 0 0 1-6.65-4.48l-9.81-39.01a6 6 0 0 1 4.98-7.4ZM145.92 3.22 107.2 8.66a6 6 0 0 0-5.1 6.78l5.56 39.6a6 6 0 0 0 6.78 5.11l34.47-4.84a6 6 0 0 0 5.16-6.14l-1.32-40.2a6 6 0 0 0-6.83-5.75ZM83.5 37.12l22-3.5"/>
        </g>
      </g>
    </g>
    <g transform="rotate(-8 1149.44 -1186.92)">
      <path d="M16.5 3c0 14 7 25 7 25S20 34 10 32" stroke="#000" stroke-width="4"/>
    </g>
    <g transform="translate(84 154)">
      <path d="M30.5 6.18A23.78 23.78 0 0 0 23.08 5c-10.5 0-19 6.5-18 18.5 1.04 12.5 8.5 17 19 17A19.6 19.6 0 0 0 31 39.23" stroke="#000" stroke-width="8"/>
      <path d="M31.5 39.04a19.38 19.38 0 0 1-7.42 1.46c-10.5 0-17.96-4.5-19-17-1-12 7.5-18.5 18-18.5 3.14 0 6.19.6 8.92 1.73l-.5 32.3Z" fill="#77311d"/>
      <path d="M27.5 13.5c-4-1.83-12.8-2.8-16 8" stroke="#000" stroke-width="4"/>
      <path d="M17 14c2.17 1.83 6.3 7.5 5.5 15.5" stroke="#000" stroke-width="4"/>
      <g transform="translate(3 35)"/>
    </g>
    <g transform="translate(53 272)">
      <g stroke="#000" stroke-width="4">
        <path d="M260.7 91H-12.64C3.67 61.66 26.86 42.98 64.44 34.4c16.02-3.65 34.67-5.47 56.56-5.47 9.46 0 16.81 1.44 23.8 3.35 2.58.7 5.18 1.5 7.84 2.3 4.4 1.34 8.97 2.72 13.91 3.86l.14.03.15.01c46.12 3.8 73.78 24.3 93.85 52.5Z" fill="#fc909f"/>
        <path d="m52.93 36.58 9.15-19.6a1 1 0 0 1 1.25-.51c37.93 13.42 72.43 12.48 104.4 3.57a1 1 0 0 1 1.09.38l13.93 19.05a.98.98 0 0 1-.42 1.5c-33.6 13.2-96.67 10.95-128.91-3.07a.98.98 0 0 1-.49-1.32Z" fill="#fc909f"/>
        <path opacity=".75" d="m52.93 36.58 9.15-19.6a1 1 0 0 1 1.25-.51c37.93 13.42 72.43 12.48 104.4 3.57a1 1 0 0 1 1.09.38l13.93 19.05a.98.98 0 0 1-.42 1.5c-33.6 13.2-96.67 10.95-128.91-3.07a.98.98 0 0 1-.49-1.32Z" fill="#fff"/>
      </g>
    </g>
  </g>
  <path style="stroke: rgb(70, 28, 17); fill: rgb(93, 38, 23);" d="M 149.074 163.612 C 149.606 164.143 149.812 164.349 150.08 164.618 C 150.332 164.869 151.338 164.366 151.59 164.618 C 152.427 165.455 153.913 165.372 155.615 165.372 C 158.554 165.372 164.187 166.611 165.929 164.869 C 166.39 164.408 167.731 164.827 168.193 164.366 C 169.07 163.489 170.474 163.342 171.463 162.354 C 171.593 162.224 172.625 161.348 172.721 161.348"/>
  <path style="stroke: rgb(70, 28, 17); fill: rgb(93, 38, 23);" d="M 215.737 154.304 C 218.194 154.918 220.028 155.31 222.781 155.31 C 223.302 155.31 225.719 154.978 226.051 155.31 C 226.333 155.592 228.91 155.893 229.573 155.562 C 231.172 154.762 232.512 154.132 233.598 153.046 C 233.933 152.711 234.52 152.627 234.856 152.291 C 235.191 151.956 235.275 151.369 235.61 151.034 C 235.742 150.902 236.365 150.464 236.365 150.279"/>
  <path style="stroke: rgb(70, 28, 17); fill: rgb(93, 38, 23);" d="M 132.974 228.262 C 133.436 228.493 134.755 228.786 134.987 229.017 C 135.105 229.135 134.868 229.401 134.987 229.52 C 135.196 229.73 136.035 229.31 136.245 229.52 C 136.454 229.73 136.79 229.813 136.999 230.023 C 138.259 231.283 139.238 233.268 140.521 234.551 C 140.647 234.677 140.608 235.393 140.773 235.557 C 140.856 235.641 141.192 235.474 141.276 235.557 C 141.402 235.683 141.15 236.186 141.276 236.312 C 141.394 236.431 141.66 236.194 141.779 236.312 C 142.072 236.606 141.988 237.276 142.282 237.57 C 142.786 238.074 143.671 238.456 144.294 239.079 C 144.588 239.373 144.504 240.044 144.798 240.337 C 145.039 240.579 145.732 240.517 146.055 240.84 C 146.684 241.469 146.936 242.475 147.565 243.104 C 147.942 243.482 148.948 243.23 149.326 243.607 C 149.444 243.726 149.207 243.992 149.326 244.11 C 149.737 244.522 150.844 244.371 151.338 244.865 C 151.943 245.47 152.588 245.864 153.099 246.374 C 153.56 246.836 154.65 246.668 155.111 247.129 C 155.276 247.294 155.992 247.255 156.118 247.381 C 156.327 247.59 156.411 247.926 156.621 248.135 C 156.85 248.365 157.879 247.943 157.879 248.387"/>
  <path style="stroke: rgb(70, 28, 17); fill: rgb(93, 38, 23);" d="M 254.477 204.113 C 254.477 205.399 253.438 207.668 252.716 208.389 C 252.507 208.599 252.926 209.437 252.716 209.647 C 251.874 210.489 251.576 211.677 250.955 212.917 C 250.851 213.127 251.115 213.764 250.955 213.923 C 249.951 214.928 249.91 217.232 248.943 218.2 C 248.467 218.676 248.89 220.769 248.44 221.219 C 248.266 221.393 247.859 221.799 247.685 221.973 C 247.518 222.141 247.853 222.812 247.685 222.979 C 247.056 223.608 246.805 224.615 246.176 225.244 C 245.966 225.453 246.134 226.04 245.924 226.25 C 245.547 226.627 245.044 226.879 244.667 227.256 C 244.548 227.375 244.785 227.641 244.667 227.759 C 244.583 227.843 244.247 227.675 244.163 227.759 C 243.828 228.094 243.744 228.682 243.409 229.017 C 242.906 229.52 242.151 229.772 241.648 230.275 C 241.231 230.692 240.698 231.756 240.138 232.036 C 239.988 232.111 239.754 231.917 239.635 232.036 C 239.551 232.119 239.719 232.455 239.635 232.539 C 239.426 232.748 237.874 233.573 237.874 233.797"/>
</svg>